%TF.GenerationSoftware,KiCad,Pcbnew,(5.1.7)-1*%
%TF.CreationDate,2020-12-05T12:34:15+01:00*%
%TF.ProjectId,WiFi-RC-Switch-Bridge_Outlet,57694669-2d52-4432-9d53-77697463682d,rev?*%
%TF.SameCoordinates,Original*%
%TF.FileFunction,Legend,Top*%
%TF.FilePolarity,Positive*%
%FSLAX46Y46*%
G04 Gerber Fmt 4.6, Leading zero omitted, Abs format (unit mm)*
G04 Created by KiCad (PCBNEW (5.1.7)-1) date 2020-12-05 12:34:15*
%MOMM*%
%LPD*%
G01*
G04 APERTURE LIST*
%ADD10C,0.150000*%
%ADD11C,0.120000*%
G04 APERTURE END LIST*
D10*
X159567619Y-102798095D02*
X159520000Y-102750476D01*
X159472380Y-102655238D01*
X159472380Y-102417142D01*
X159520000Y-102321904D01*
X159567619Y-102274285D01*
X159662857Y-102226666D01*
X159758095Y-102226666D01*
X159900952Y-102274285D01*
X160472380Y-102845714D01*
X160472380Y-102226666D01*
X159472380Y-101893333D02*
X159472380Y-101274285D01*
X159853333Y-101607619D01*
X159853333Y-101464761D01*
X159900952Y-101369523D01*
X159948571Y-101321904D01*
X160043809Y-101274285D01*
X160281904Y-101274285D01*
X160377142Y-101321904D01*
X160424761Y-101369523D01*
X160472380Y-101464761D01*
X160472380Y-101750476D01*
X160424761Y-101845714D01*
X160377142Y-101893333D01*
X159472380Y-100655238D02*
X159472380Y-100560000D01*
X159520000Y-100464761D01*
X159567619Y-100417142D01*
X159662857Y-100369523D01*
X159853333Y-100321904D01*
X160091428Y-100321904D01*
X160281904Y-100369523D01*
X160377142Y-100417142D01*
X160424761Y-100464761D01*
X160472380Y-100560000D01*
X160472380Y-100655238D01*
X160424761Y-100750476D01*
X160377142Y-100798095D01*
X160281904Y-100845714D01*
X160091428Y-100893333D01*
X159853333Y-100893333D01*
X159662857Y-100845714D01*
X159567619Y-100798095D01*
X159520000Y-100750476D01*
X159472380Y-100655238D01*
X159472380Y-100036190D02*
X160472380Y-99702857D01*
X159472380Y-99369523D01*
X160186666Y-99083809D02*
X160186666Y-98607619D01*
X160472380Y-99179047D02*
X159472380Y-98845714D01*
X160472380Y-98512380D01*
X160377142Y-97607619D02*
X160424761Y-97655238D01*
X160472380Y-97798095D01*
X160472380Y-97893333D01*
X160424761Y-98036190D01*
X160329523Y-98131428D01*
X160234285Y-98179047D01*
X160043809Y-98226666D01*
X159900952Y-98226666D01*
X159710476Y-98179047D01*
X159615238Y-98131428D01*
X159520000Y-98036190D01*
X159472380Y-97893333D01*
X159472380Y-97798095D01*
X159520000Y-97655238D01*
X159567619Y-97607619D01*
X160472380Y-96417142D02*
X159472380Y-96417142D01*
X160472380Y-95940952D02*
X159472380Y-95940952D01*
X160472380Y-95369523D01*
X159472380Y-95369523D01*
X124920952Y-101052380D02*
X124920952Y-101766666D01*
X124873333Y-101909523D01*
X124778095Y-102004761D01*
X124635238Y-102052380D01*
X124540000Y-102052380D01*
X125873333Y-102052380D02*
X125397142Y-102052380D01*
X125397142Y-101052380D01*
X126778095Y-101957142D02*
X126730476Y-102004761D01*
X126587619Y-102052380D01*
X126492380Y-102052380D01*
X126349523Y-102004761D01*
X126254285Y-101909523D01*
X126206666Y-101814285D01*
X126159047Y-101623809D01*
X126159047Y-101480952D01*
X126206666Y-101290476D01*
X126254285Y-101195238D01*
X126349523Y-101100000D01*
X126492380Y-101052380D01*
X126587619Y-101052380D01*
X126730476Y-101100000D01*
X126778095Y-101147619D01*
X127492380Y-101052380D02*
X127492380Y-101766666D01*
X127444761Y-101909523D01*
X127349523Y-102004761D01*
X127206666Y-102052380D01*
X127111428Y-102052380D01*
X128444761Y-102052380D02*
X127968571Y-102052380D01*
X127968571Y-101052380D01*
X129349523Y-101957142D02*
X129301904Y-102004761D01*
X129159047Y-102052380D01*
X129063809Y-102052380D01*
X128920952Y-102004761D01*
X128825714Y-101909523D01*
X128778095Y-101814285D01*
X128730476Y-101623809D01*
X128730476Y-101480952D01*
X128778095Y-101290476D01*
X128825714Y-101195238D01*
X128920952Y-101100000D01*
X129063809Y-101052380D01*
X129159047Y-101052380D01*
X129301904Y-101100000D01*
X129349523Y-101147619D01*
X130063809Y-101052380D02*
X130063809Y-101766666D01*
X130016190Y-101909523D01*
X129920952Y-102004761D01*
X129778095Y-102052380D01*
X129682857Y-102052380D01*
X131016190Y-102052380D02*
X130540000Y-102052380D01*
X130540000Y-101052380D01*
X131920952Y-101957142D02*
X131873333Y-102004761D01*
X131730476Y-102052380D01*
X131635238Y-102052380D01*
X131492380Y-102004761D01*
X131397142Y-101909523D01*
X131349523Y-101814285D01*
X131301904Y-101623809D01*
X131301904Y-101480952D01*
X131349523Y-101290476D01*
X131397142Y-101195238D01*
X131492380Y-101100000D01*
X131635238Y-101052380D01*
X131730476Y-101052380D01*
X131873333Y-101100000D01*
X131920952Y-101147619D01*
X132635238Y-101052380D02*
X132635238Y-101766666D01*
X132587619Y-101909523D01*
X132492380Y-102004761D01*
X132349523Y-102052380D01*
X132254285Y-102052380D01*
X133587619Y-102052380D02*
X133111428Y-102052380D01*
X133111428Y-101052380D01*
X134492380Y-101957142D02*
X134444761Y-102004761D01*
X134301904Y-102052380D01*
X134206666Y-102052380D01*
X134063809Y-102004761D01*
X133968571Y-101909523D01*
X133920952Y-101814285D01*
X133873333Y-101623809D01*
X133873333Y-101480952D01*
X133920952Y-101290476D01*
X133968571Y-101195238D01*
X134063809Y-101100000D01*
X134206666Y-101052380D01*
X134301904Y-101052380D01*
X134444761Y-101100000D01*
X134492380Y-101147619D01*
D11*
%TO.C,C1*%
X124915000Y-117825225D02*
X124415000Y-117825225D01*
X124665000Y-117575225D02*
X124665000Y-118075225D01*
X123474000Y-122981000D02*
X122906000Y-122981000D01*
X123708000Y-122941000D02*
X122672000Y-122941000D01*
X123867000Y-122901000D02*
X122513000Y-122901000D01*
X123995000Y-122861000D02*
X122385000Y-122861000D01*
X124105000Y-122821000D02*
X122275000Y-122821000D01*
X124201000Y-122781000D02*
X122179000Y-122781000D01*
X124288000Y-122741000D02*
X122092000Y-122741000D01*
X124368000Y-122701000D02*
X122012000Y-122701000D01*
X124441000Y-122661000D02*
X121939000Y-122661000D01*
X124509000Y-122621000D02*
X121871000Y-122621000D01*
X124573000Y-122581000D02*
X121807000Y-122581000D01*
X124633000Y-122541000D02*
X121747000Y-122541000D01*
X124690000Y-122501000D02*
X121690000Y-122501000D01*
X124744000Y-122461000D02*
X121636000Y-122461000D01*
X124795000Y-122421000D02*
X121585000Y-122421000D01*
X122150000Y-122381000D02*
X121537000Y-122381000D01*
X124843000Y-122381000D02*
X124230000Y-122381000D01*
X122150000Y-122341000D02*
X121491000Y-122341000D01*
X124889000Y-122341000D02*
X124230000Y-122341000D01*
X122150000Y-122301000D02*
X121447000Y-122301000D01*
X124933000Y-122301000D02*
X124230000Y-122301000D01*
X122150000Y-122261000D02*
X121405000Y-122261000D01*
X124975000Y-122261000D02*
X124230000Y-122261000D01*
X122150000Y-122221000D02*
X121364000Y-122221000D01*
X125016000Y-122221000D02*
X124230000Y-122221000D01*
X122150000Y-122181000D02*
X121326000Y-122181000D01*
X125054000Y-122181000D02*
X124230000Y-122181000D01*
X122150000Y-122141000D02*
X121289000Y-122141000D01*
X125091000Y-122141000D02*
X124230000Y-122141000D01*
X122150000Y-122101000D02*
X121253000Y-122101000D01*
X125127000Y-122101000D02*
X124230000Y-122101000D01*
X122150000Y-122061000D02*
X121219000Y-122061000D01*
X125161000Y-122061000D02*
X124230000Y-122061000D01*
X122150000Y-122021000D02*
X121186000Y-122021000D01*
X125194000Y-122021000D02*
X124230000Y-122021000D01*
X122150000Y-121981000D02*
X121155000Y-121981000D01*
X125225000Y-121981000D02*
X124230000Y-121981000D01*
X122150000Y-121941000D02*
X121125000Y-121941000D01*
X125255000Y-121941000D02*
X124230000Y-121941000D01*
X122150000Y-121901000D02*
X121095000Y-121901000D01*
X125285000Y-121901000D02*
X124230000Y-121901000D01*
X122150000Y-121861000D02*
X121068000Y-121861000D01*
X125312000Y-121861000D02*
X124230000Y-121861000D01*
X122150000Y-121821000D02*
X121041000Y-121821000D01*
X125339000Y-121821000D02*
X124230000Y-121821000D01*
X122150000Y-121781000D02*
X121015000Y-121781000D01*
X125365000Y-121781000D02*
X124230000Y-121781000D01*
X122150000Y-121741000D02*
X120990000Y-121741000D01*
X125390000Y-121741000D02*
X124230000Y-121741000D01*
X122150000Y-121701000D02*
X120966000Y-121701000D01*
X125414000Y-121701000D02*
X124230000Y-121701000D01*
X122150000Y-121661000D02*
X120943000Y-121661000D01*
X125437000Y-121661000D02*
X124230000Y-121661000D01*
X122150000Y-121621000D02*
X120922000Y-121621000D01*
X125458000Y-121621000D02*
X124230000Y-121621000D01*
X122150000Y-121581000D02*
X120900000Y-121581000D01*
X125480000Y-121581000D02*
X124230000Y-121581000D01*
X122150000Y-121541000D02*
X120880000Y-121541000D01*
X125500000Y-121541000D02*
X124230000Y-121541000D01*
X122150000Y-121501000D02*
X120861000Y-121501000D01*
X125519000Y-121501000D02*
X124230000Y-121501000D01*
X122150000Y-121461000D02*
X120842000Y-121461000D01*
X125538000Y-121461000D02*
X124230000Y-121461000D01*
X122150000Y-121421000D02*
X120825000Y-121421000D01*
X125555000Y-121421000D02*
X124230000Y-121421000D01*
X122150000Y-121381000D02*
X120808000Y-121381000D01*
X125572000Y-121381000D02*
X124230000Y-121381000D01*
X122150000Y-121341000D02*
X120792000Y-121341000D01*
X125588000Y-121341000D02*
X124230000Y-121341000D01*
X122150000Y-121301000D02*
X120776000Y-121301000D01*
X125604000Y-121301000D02*
X124230000Y-121301000D01*
X122150000Y-121261000D02*
X120762000Y-121261000D01*
X125618000Y-121261000D02*
X124230000Y-121261000D01*
X122150000Y-121221000D02*
X120748000Y-121221000D01*
X125632000Y-121221000D02*
X124230000Y-121221000D01*
X122150000Y-121181000D02*
X120735000Y-121181000D01*
X125645000Y-121181000D02*
X124230000Y-121181000D01*
X122150000Y-121141000D02*
X120722000Y-121141000D01*
X125658000Y-121141000D02*
X124230000Y-121141000D01*
X122150000Y-121101000D02*
X120710000Y-121101000D01*
X125670000Y-121101000D02*
X124230000Y-121101000D01*
X122150000Y-121060000D02*
X120699000Y-121060000D01*
X125681000Y-121060000D02*
X124230000Y-121060000D01*
X122150000Y-121020000D02*
X120689000Y-121020000D01*
X125691000Y-121020000D02*
X124230000Y-121020000D01*
X122150000Y-120980000D02*
X120679000Y-120980000D01*
X125701000Y-120980000D02*
X124230000Y-120980000D01*
X122150000Y-120940000D02*
X120670000Y-120940000D01*
X125710000Y-120940000D02*
X124230000Y-120940000D01*
X122150000Y-120900000D02*
X120662000Y-120900000D01*
X125718000Y-120900000D02*
X124230000Y-120900000D01*
X122150000Y-120860000D02*
X120654000Y-120860000D01*
X125726000Y-120860000D02*
X124230000Y-120860000D01*
X122150000Y-120820000D02*
X120647000Y-120820000D01*
X125733000Y-120820000D02*
X124230000Y-120820000D01*
X122150000Y-120780000D02*
X120640000Y-120780000D01*
X125740000Y-120780000D02*
X124230000Y-120780000D01*
X122150000Y-120740000D02*
X120634000Y-120740000D01*
X125746000Y-120740000D02*
X124230000Y-120740000D01*
X122150000Y-120700000D02*
X120629000Y-120700000D01*
X125751000Y-120700000D02*
X124230000Y-120700000D01*
X122150000Y-120660000D02*
X120625000Y-120660000D01*
X125755000Y-120660000D02*
X124230000Y-120660000D01*
X122150000Y-120620000D02*
X120621000Y-120620000D01*
X125759000Y-120620000D02*
X124230000Y-120620000D01*
X122150000Y-120580000D02*
X120617000Y-120580000D01*
X125763000Y-120580000D02*
X124230000Y-120580000D01*
X122150000Y-120540000D02*
X120614000Y-120540000D01*
X125766000Y-120540000D02*
X124230000Y-120540000D01*
X122150000Y-120500000D02*
X120612000Y-120500000D01*
X125768000Y-120500000D02*
X124230000Y-120500000D01*
X122150000Y-120460000D02*
X120611000Y-120460000D01*
X125769000Y-120460000D02*
X124230000Y-120460000D01*
X125770000Y-120420000D02*
X124230000Y-120420000D01*
X122150000Y-120420000D02*
X120610000Y-120420000D01*
X125770000Y-120380000D02*
X124230000Y-120380000D01*
X122150000Y-120380000D02*
X120610000Y-120380000D01*
X125810000Y-120380000D02*
G75*
G03*
X125810000Y-120380000I-2620000J0D01*
G01*
%TO.C,C2*%
X133005000Y-117570000D02*
X133450000Y-117570000D01*
X130710000Y-117570000D02*
X131155000Y-117570000D01*
X133005000Y-123810000D02*
X133450000Y-123810000D01*
X130710000Y-123810000D02*
X131155000Y-123810000D01*
X133450000Y-123810000D02*
X133450000Y-117570000D01*
X130710000Y-123810000D02*
X130710000Y-117570000D01*
%TO.C,C3*%
X130710000Y-131430000D02*
X130710000Y-125190000D01*
X133450000Y-131430000D02*
X133450000Y-125190000D01*
X130710000Y-131430000D02*
X131155000Y-131430000D01*
X133005000Y-131430000D02*
X133450000Y-131430000D01*
X130710000Y-125190000D02*
X131155000Y-125190000D01*
X133005000Y-125190000D02*
X133450000Y-125190000D01*
%TO.C,J1*%
X158750000Y-104140000D02*
X158750000Y-93980000D01*
X151130000Y-104140000D02*
X158750000Y-104140000D01*
X151130000Y-93980000D02*
X151130000Y-104140000D01*
X158750000Y-93980000D02*
X151130000Y-93980000D01*
X157480000Y-93980000D02*
X157480000Y-104140000D01*
%TO.C,J2*%
X139760000Y-105410000D02*
X139760000Y-106740000D01*
X139760000Y-106740000D02*
X138430000Y-106740000D01*
X137160000Y-106740000D02*
X119320000Y-106740000D01*
X119320000Y-104080000D02*
X119320000Y-106740000D01*
X137160000Y-104080000D02*
X119320000Y-104080000D01*
X137160000Y-104080000D02*
X137160000Y-106740000D01*
%TO.C,PSU1*%
X114300000Y-116840000D02*
X114300000Y-93980000D01*
X114300000Y-93980000D02*
X151130000Y-93980000D01*
X151130000Y-93980000D02*
X151130000Y-116840000D01*
X151130000Y-116840000D02*
X114300000Y-116840000D01*
%TO.C,R1*%
X136430000Y-121820000D02*
X136430000Y-122150000D01*
X142970000Y-121820000D02*
X136430000Y-121820000D01*
X142970000Y-122150000D02*
X142970000Y-121820000D01*
X136430000Y-124560000D02*
X136430000Y-124230000D01*
X142970000Y-124560000D02*
X136430000Y-124560000D01*
X142970000Y-124230000D02*
X142970000Y-124560000D01*
%TO.C,R2*%
X142970000Y-126770000D02*
X142970000Y-127100000D01*
X142970000Y-127100000D02*
X136430000Y-127100000D01*
X136430000Y-127100000D02*
X136430000Y-126770000D01*
X142970000Y-124690000D02*
X142970000Y-124360000D01*
X142970000Y-124360000D02*
X136430000Y-124360000D01*
X136430000Y-124360000D02*
X136430000Y-124690000D01*
%TO.C,R3*%
X152300000Y-122650000D02*
X152630000Y-122650000D01*
X152300000Y-116110000D02*
X152300000Y-122650000D01*
X152630000Y-116110000D02*
X152300000Y-116110000D01*
X155040000Y-122650000D02*
X154710000Y-122650000D01*
X155040000Y-116110000D02*
X155040000Y-122650000D01*
X154710000Y-116110000D02*
X155040000Y-116110000D01*
%TO.C,R4*%
X152630000Y-132810000D02*
X152300000Y-132810000D01*
X152300000Y-132810000D02*
X152300000Y-126270000D01*
X152300000Y-126270000D02*
X152630000Y-126270000D01*
X154710000Y-132810000D02*
X155040000Y-132810000D01*
X155040000Y-132810000D02*
X155040000Y-126270000D01*
X155040000Y-126270000D02*
X154710000Y-126270000D01*
%TO.C,SW1*%
X116440000Y-127810000D02*
X116440000Y-129310000D01*
X117690000Y-131810000D02*
X122190000Y-131810000D01*
X123440000Y-129310000D02*
X123440000Y-127810000D01*
X122190000Y-125310000D02*
X117690000Y-125310000D01*
%TO.C,U1*%
X125730000Y-132080000D02*
X151130000Y-132080000D01*
X125730000Y-116840000D02*
X125730000Y-132080000D01*
X151130000Y-116840000D02*
X125730000Y-116840000D01*
X151130000Y-116840000D02*
X151130000Y-132080000D01*
%TO.C,U2*%
X128270000Y-115570000D02*
X147320000Y-115570000D01*
X128270000Y-134620000D02*
X128270000Y-115570000D01*
X137160000Y-134620000D02*
X128270000Y-134620000D01*
X147320000Y-134620000D02*
X147320000Y-115570000D01*
X137160000Y-134620000D02*
X147320000Y-134620000D01*
%TO.C,U3*%
X153670000Y-133350000D02*
G75*
G03*
X153670000Y-133350000I-2540000J0D01*
G01*
X158750000Y-134620000D02*
X158750000Y-105410000D01*
X153289000Y-134620000D02*
X158750000Y-134620000D01*
X151130000Y-105410000D02*
X151130000Y-130810000D01*
X158750000Y-105410000D02*
X151130000Y-105410000D01*
%TO.C,C1*%
D10*
X121007142Y-123356666D02*
X121054761Y-123404285D01*
X121102380Y-123547142D01*
X121102380Y-123642380D01*
X121054761Y-123785238D01*
X120959523Y-123880476D01*
X120864285Y-123928095D01*
X120673809Y-123975714D01*
X120530952Y-123975714D01*
X120340476Y-123928095D01*
X120245238Y-123880476D01*
X120150000Y-123785238D01*
X120102380Y-123642380D01*
X120102380Y-123547142D01*
X120150000Y-123404285D01*
X120197619Y-123356666D01*
X121102380Y-122404285D02*
X121102380Y-122975714D01*
X121102380Y-122690000D02*
X120102380Y-122690000D01*
X120245238Y-122785238D01*
X120340476Y-122880476D01*
X120388095Y-122975714D01*
%TO.C,C2*%
X132437142Y-120856666D02*
X132484761Y-120904285D01*
X132532380Y-121047142D01*
X132532380Y-121142380D01*
X132484761Y-121285238D01*
X132389523Y-121380476D01*
X132294285Y-121428095D01*
X132103809Y-121475714D01*
X131960952Y-121475714D01*
X131770476Y-121428095D01*
X131675238Y-121380476D01*
X131580000Y-121285238D01*
X131532380Y-121142380D01*
X131532380Y-121047142D01*
X131580000Y-120904285D01*
X131627619Y-120856666D01*
X131627619Y-120475714D02*
X131580000Y-120428095D01*
X131532380Y-120332857D01*
X131532380Y-120094761D01*
X131580000Y-119999523D01*
X131627619Y-119951904D01*
X131722857Y-119904285D01*
X131818095Y-119904285D01*
X131960952Y-119951904D01*
X132532380Y-120523333D01*
X132532380Y-119904285D01*
%TO.C,C3*%
X132437142Y-128436666D02*
X132484761Y-128484285D01*
X132532380Y-128627142D01*
X132532380Y-128722380D01*
X132484761Y-128865238D01*
X132389523Y-128960476D01*
X132294285Y-129008095D01*
X132103809Y-129055714D01*
X131960952Y-129055714D01*
X131770476Y-129008095D01*
X131675238Y-128960476D01*
X131580000Y-128865238D01*
X131532380Y-128722380D01*
X131532380Y-128627142D01*
X131580000Y-128484285D01*
X131627619Y-128436666D01*
X131532380Y-128103333D02*
X131532380Y-127484285D01*
X131913333Y-127817619D01*
X131913333Y-127674761D01*
X131960952Y-127579523D01*
X132008571Y-127531904D01*
X132103809Y-127484285D01*
X132341904Y-127484285D01*
X132437142Y-127531904D01*
X132484761Y-127579523D01*
X132532380Y-127674761D01*
X132532380Y-127960476D01*
X132484761Y-128055714D01*
X132437142Y-128103333D01*
%TO.C,J1*%
X154392380Y-93043333D02*
X155106666Y-93043333D01*
X155249523Y-93090952D01*
X155344761Y-93186190D01*
X155392380Y-93329047D01*
X155392380Y-93424285D01*
X155392380Y-92043333D02*
X155392380Y-92614761D01*
X155392380Y-92329047D02*
X154392380Y-92329047D01*
X154535238Y-92424285D01*
X154630476Y-92519523D01*
X154678095Y-92614761D01*
%TO.C,J2*%
X140652380Y-105743333D02*
X141366666Y-105743333D01*
X141509523Y-105790952D01*
X141604761Y-105886190D01*
X141652380Y-106029047D01*
X141652380Y-106124285D01*
X140747619Y-105314761D02*
X140700000Y-105267142D01*
X140652380Y-105171904D01*
X140652380Y-104933809D01*
X140700000Y-104838571D01*
X140747619Y-104790952D01*
X140842857Y-104743333D01*
X140938095Y-104743333D01*
X141080952Y-104790952D01*
X141652380Y-105362380D01*
X141652380Y-104743333D01*
%TO.C,PSU1*%
X130341904Y-93162380D02*
X130341904Y-92162380D01*
X130722857Y-92162380D01*
X130818095Y-92210000D01*
X130865714Y-92257619D01*
X130913333Y-92352857D01*
X130913333Y-92495714D01*
X130865714Y-92590952D01*
X130818095Y-92638571D01*
X130722857Y-92686190D01*
X130341904Y-92686190D01*
X131294285Y-93114761D02*
X131437142Y-93162380D01*
X131675238Y-93162380D01*
X131770476Y-93114761D01*
X131818095Y-93067142D01*
X131865714Y-92971904D01*
X131865714Y-92876666D01*
X131818095Y-92781428D01*
X131770476Y-92733809D01*
X131675238Y-92686190D01*
X131484761Y-92638571D01*
X131389523Y-92590952D01*
X131341904Y-92543333D01*
X131294285Y-92448095D01*
X131294285Y-92352857D01*
X131341904Y-92257619D01*
X131389523Y-92210000D01*
X131484761Y-92162380D01*
X131722857Y-92162380D01*
X131865714Y-92210000D01*
X132294285Y-92162380D02*
X132294285Y-92971904D01*
X132341904Y-93067142D01*
X132389523Y-93114761D01*
X132484761Y-93162380D01*
X132675238Y-93162380D01*
X132770476Y-93114761D01*
X132818095Y-93067142D01*
X132865714Y-92971904D01*
X132865714Y-92162380D01*
X133865714Y-93162380D02*
X133294285Y-93162380D01*
X133580000Y-93162380D02*
X133580000Y-92162380D01*
X133484761Y-92305238D01*
X133389523Y-92400476D01*
X133294285Y-92448095D01*
%TO.C,R1*%
X139533333Y-123642380D02*
X139200000Y-123166190D01*
X138961904Y-123642380D02*
X138961904Y-122642380D01*
X139342857Y-122642380D01*
X139438095Y-122690000D01*
X139485714Y-122737619D01*
X139533333Y-122832857D01*
X139533333Y-122975714D01*
X139485714Y-123070952D01*
X139438095Y-123118571D01*
X139342857Y-123166190D01*
X138961904Y-123166190D01*
X140485714Y-123642380D02*
X139914285Y-123642380D01*
X140200000Y-123642380D02*
X140200000Y-122642380D01*
X140104761Y-122785238D01*
X140009523Y-122880476D01*
X139914285Y-122928095D01*
%TO.C,R2*%
X139533333Y-126182380D02*
X139200000Y-125706190D01*
X138961904Y-126182380D02*
X138961904Y-125182380D01*
X139342857Y-125182380D01*
X139438095Y-125230000D01*
X139485714Y-125277619D01*
X139533333Y-125372857D01*
X139533333Y-125515714D01*
X139485714Y-125610952D01*
X139438095Y-125658571D01*
X139342857Y-125706190D01*
X138961904Y-125706190D01*
X139914285Y-125277619D02*
X139961904Y-125230000D01*
X140057142Y-125182380D01*
X140295238Y-125182380D01*
X140390476Y-125230000D01*
X140438095Y-125277619D01*
X140485714Y-125372857D01*
X140485714Y-125468095D01*
X140438095Y-125610952D01*
X139866666Y-126182380D01*
X140485714Y-126182380D01*
%TO.C,R3*%
X154122380Y-119546666D02*
X153646190Y-119880000D01*
X154122380Y-120118095D02*
X153122380Y-120118095D01*
X153122380Y-119737142D01*
X153170000Y-119641904D01*
X153217619Y-119594285D01*
X153312857Y-119546666D01*
X153455714Y-119546666D01*
X153550952Y-119594285D01*
X153598571Y-119641904D01*
X153646190Y-119737142D01*
X153646190Y-120118095D01*
X153122380Y-119213333D02*
X153122380Y-118594285D01*
X153503333Y-118927619D01*
X153503333Y-118784761D01*
X153550952Y-118689523D01*
X153598571Y-118641904D01*
X153693809Y-118594285D01*
X153931904Y-118594285D01*
X154027142Y-118641904D01*
X154074761Y-118689523D01*
X154122380Y-118784761D01*
X154122380Y-119070476D01*
X154074761Y-119165714D01*
X154027142Y-119213333D01*
%TO.C,R4*%
X154122380Y-129706666D02*
X153646190Y-130040000D01*
X154122380Y-130278095D02*
X153122380Y-130278095D01*
X153122380Y-129897142D01*
X153170000Y-129801904D01*
X153217619Y-129754285D01*
X153312857Y-129706666D01*
X153455714Y-129706666D01*
X153550952Y-129754285D01*
X153598571Y-129801904D01*
X153646190Y-129897142D01*
X153646190Y-130278095D01*
X153455714Y-128849523D02*
X154122380Y-128849523D01*
X153074761Y-129087619D02*
X153789047Y-129325714D01*
X153789047Y-128706666D01*
%TO.C,SW1*%
X118606666Y-133214761D02*
X118749523Y-133262380D01*
X118987619Y-133262380D01*
X119082857Y-133214761D01*
X119130476Y-133167142D01*
X119178095Y-133071904D01*
X119178095Y-132976666D01*
X119130476Y-132881428D01*
X119082857Y-132833809D01*
X118987619Y-132786190D01*
X118797142Y-132738571D01*
X118701904Y-132690952D01*
X118654285Y-132643333D01*
X118606666Y-132548095D01*
X118606666Y-132452857D01*
X118654285Y-132357619D01*
X118701904Y-132310000D01*
X118797142Y-132262380D01*
X119035238Y-132262380D01*
X119178095Y-132310000D01*
X119511428Y-132262380D02*
X119749523Y-133262380D01*
X119940000Y-132548095D01*
X120130476Y-133262380D01*
X120368571Y-132262380D01*
X121273333Y-133262380D02*
X120701904Y-133262380D01*
X120987619Y-133262380D02*
X120987619Y-132262380D01*
X120892380Y-132405238D01*
X120797142Y-132500476D01*
X120701904Y-132548095D01*
%TO.C,U1*%
X147828095Y-130262380D02*
X147828095Y-131071904D01*
X147875714Y-131167142D01*
X147923333Y-131214761D01*
X148018571Y-131262380D01*
X148209047Y-131262380D01*
X148304285Y-131214761D01*
X148351904Y-131167142D01*
X148399523Y-131071904D01*
X148399523Y-130262380D01*
X149399523Y-131262380D02*
X148828095Y-131262380D01*
X149113809Y-131262380D02*
X149113809Y-130262380D01*
X149018571Y-130405238D01*
X148923333Y-130500476D01*
X148828095Y-130548095D01*
%TO.C,U2*%
X131318095Y-132802380D02*
X131318095Y-133611904D01*
X131365714Y-133707142D01*
X131413333Y-133754761D01*
X131508571Y-133802380D01*
X131699047Y-133802380D01*
X131794285Y-133754761D01*
X131841904Y-133707142D01*
X131889523Y-133611904D01*
X131889523Y-132802380D01*
X132318095Y-132897619D02*
X132365714Y-132850000D01*
X132460952Y-132802380D01*
X132699047Y-132802380D01*
X132794285Y-132850000D01*
X132841904Y-132897619D01*
X132889523Y-132992857D01*
X132889523Y-133088095D01*
X132841904Y-133230952D01*
X132270476Y-133802380D01*
X132889523Y-133802380D01*
%TO.C,U3*%
X159472380Y-112521904D02*
X160281904Y-112521904D01*
X160377142Y-112474285D01*
X160424761Y-112426666D01*
X160472380Y-112331428D01*
X160472380Y-112140952D01*
X160424761Y-112045714D01*
X160377142Y-111998095D01*
X160281904Y-111950476D01*
X159472380Y-111950476D01*
X159472380Y-111569523D02*
X159472380Y-110950476D01*
X159853333Y-111283809D01*
X159853333Y-111140952D01*
X159900952Y-111045714D01*
X159948571Y-110998095D01*
X160043809Y-110950476D01*
X160281904Y-110950476D01*
X160377142Y-110998095D01*
X160424761Y-111045714D01*
X160472380Y-111140952D01*
X160472380Y-111426666D01*
X160424761Y-111521904D01*
X160377142Y-111569523D01*
%TD*%
M02*
