M48
; DRILL file {KiCad (5.1.7)-1} date 12/05/20 12:34:20
; FORMAT={-:-/ absolute / inch / decimal}
; #@! TF.CreationDate,2020-12-05T12:34:20+01:00
; #@! TF.GenerationSoftware,Kicad,Pcbnew,(5.1.7)-1
FMAT,2
INCH
T1C0.0157
T2C0.0300
T3C0.0315
T4C0.0394
T5C0.0433
T6C0.0598
%
G90
G05
T1
X5.45Y-4.4
X5.9Y-5.25
T2
X5.3Y-5.25
X5.4Y-5.25
X5.5Y-5.25
X6.2Y-4.25
X6.2Y-4.35
X6.2Y-4.45
X6.2Y-4.55
X5.8Y-4.75
X5.8Y-4.85
X5.8Y-4.95
X5.8Y-5.05
X5.9Y-4.75
X5.9Y-4.85
X5.9Y-4.95
X5.9Y-5.05
T3
X6.05Y-4.95
X6.05Y-5.25
X5.2Y-4.6531
X5.2Y-4.85
X5.35Y-4.95
X5.65Y-4.95
X6.05Y-4.55
X6.05Y-4.85
X5.35Y-4.85
X5.65Y-4.85
X4.85Y-4.7
X4.85Y-4.7787
X5.2Y-4.9531
X5.2Y-5.15
T4
X4.65Y-3.85
X4.65Y-4.45
X5.8Y-4.05
X5.8Y-4.25
X4.75Y-4.15
X4.85Y-4.15
X4.95Y-4.15
X5.05Y-4.15
X5.15Y-4.15
X5.25Y-4.15
X5.35Y-4.15
X5.45Y-4.15
T5
X4.5941Y-4.9728
X4.5941Y-5.15
X4.85Y-4.9728
X4.85Y-5.15
T6
X6.1Y-3.8
X6.1Y-4.0
T0
M30
