%TF.GenerationSoftware,KiCad,Pcbnew,(5.1.7)-1*%
%TF.CreationDate,2020-12-05T12:34:15+01:00*%
%TF.ProjectId,WiFi-RC-Switch-Bridge_Outlet,57694669-2d52-4432-9d53-77697463682d,rev?*%
%TF.SameCoordinates,Original*%
%TF.FileFunction,Copper,L2,Bot*%
%TF.FilePolarity,Positive*%
%FSLAX46Y46*%
G04 Gerber Fmt 4.6, Leading zero omitted, Abs format (unit mm)*
G04 Created by KiCad (PCBNEW (5.1.7)-1) date 2020-12-05 12:34:15*
%MOMM*%
%LPD*%
G01*
G04 APERTURE LIST*
%TA.AperFunction,ComponentPad*%
%ADD10R,1.600000X1.600000*%
%TD*%
%TA.AperFunction,ComponentPad*%
%ADD11C,1.600000*%
%TD*%
%TA.AperFunction,ComponentPad*%
%ADD12R,3.000000X3.000000*%
%TD*%
%TA.AperFunction,ComponentPad*%
%ADD13C,3.000000*%
%TD*%
%TA.AperFunction,ComponentPad*%
%ADD14R,1.700000X1.700000*%
%TD*%
%TA.AperFunction,ComponentPad*%
%ADD15O,1.700000X1.700000*%
%TD*%
%TA.AperFunction,ComponentPad*%
%ADD16O,1.600000X1.600000*%
%TD*%
%TA.AperFunction,ComponentPad*%
%ADD17C,2.000000*%
%TD*%
%TA.AperFunction,ComponentPad*%
%ADD18C,1.524000*%
%TD*%
%TA.AperFunction,ViaPad*%
%ADD19C,0.800000*%
%TD*%
%TA.AperFunction,Conductor*%
%ADD20C,0.250000*%
%TD*%
%TA.AperFunction,Conductor*%
%ADD21C,1.000000*%
%TD*%
%TA.AperFunction,Conductor*%
%ADD22C,0.254000*%
%TD*%
%TA.AperFunction,Conductor*%
%ADD23C,0.100000*%
%TD*%
G04 APERTURE END LIST*
D10*
%TO.P,C1,1*%
%TO.N,+3V3*%
X123190000Y-119380000D03*
D11*
%TO.P,C1,2*%
%TO.N,GND*%
X123190000Y-121380000D03*
%TD*%
%TO.P,C2,1*%
%TO.N,GND*%
X132080000Y-123190000D03*
%TO.P,C2,2*%
%TO.N,+3V3*%
X132080000Y-118190000D03*
%TD*%
%TO.P,C3,2*%
%TO.N,GND*%
X132080000Y-125810000D03*
%TO.P,C3,1*%
%TO.N,RST*%
X132080000Y-130810000D03*
%TD*%
D12*
%TO.P,J1,1*%
%TO.N,Net-(J1-Pad1)*%
X154940000Y-101600000D03*
D13*
%TO.P,J1,2*%
%TO.N,Net-(J1-Pad2)*%
X154940000Y-96520000D03*
%TD*%
D14*
%TO.P,J2,1*%
%TO.N,+3V3*%
X138430000Y-105410000D03*
D15*
%TO.P,J2,2*%
%TO.N,RST*%
X135890000Y-105410000D03*
%TO.P,J2,3*%
%TO.N,EN*%
X133350000Y-105410000D03*
%TO.P,J2,4*%
%TO.N,TX*%
X130810000Y-105410000D03*
%TO.P,J2,5*%
%TO.N,RX*%
X128270000Y-105410000D03*
%TO.P,J2,6*%
%TO.N,IO0*%
X125730000Y-105410000D03*
%TO.P,J2,7*%
%TO.N,IO2*%
X123190000Y-105410000D03*
%TO.P,J2,8*%
%TO.N,GND*%
X120650000Y-105410000D03*
%TD*%
D13*
%TO.P,PSU1,1*%
%TO.N,Net-(J1-Pad2)*%
X147320000Y-107950000D03*
%TO.P,PSU1,2*%
%TO.N,Net-(J1-Pad1)*%
X147320000Y-102870000D03*
%TO.P,PSU1,3*%
%TO.N,GND*%
X118110000Y-113030000D03*
%TO.P,PSU1,4*%
%TO.N,+3V3*%
X118110000Y-97790000D03*
%TD*%
D11*
%TO.P,R1,1*%
%TO.N,IO0*%
X143510000Y-123190000D03*
D16*
%TO.P,R1,2*%
%TO.N,+3V3*%
X135890000Y-123190000D03*
%TD*%
%TO.P,R2,2*%
%TO.N,+3V3*%
X135890000Y-125730000D03*
D11*
%TO.P,R2,1*%
%TO.N,IO2*%
X143510000Y-125730000D03*
%TD*%
%TO.P,R3,1*%
%TO.N,+3V3*%
X153670000Y-115570000D03*
D16*
%TO.P,R3,2*%
%TO.N,RST*%
X153670000Y-123190000D03*
%TD*%
%TO.P,R4,2*%
%TO.N,EN*%
X153670000Y-125730000D03*
D11*
%TO.P,R4,1*%
%TO.N,+3V3*%
X153670000Y-133350000D03*
%TD*%
D17*
%TO.P,SW1,2*%
%TO.N,GND*%
X123190000Y-126310000D03*
%TO.P,SW1,1*%
%TO.N,RST*%
X123190000Y-130810000D03*
%TO.P,SW1,2*%
%TO.N,GND*%
X116690000Y-126310000D03*
%TO.P,SW1,1*%
%TO.N,RST*%
X116690000Y-130810000D03*
%TD*%
D18*
%TO.P,U1,3*%
%TO.N,RST*%
X149860000Y-123190000D03*
%TO.P,U1,2*%
%TO.N,EN*%
X149860000Y-125730000D03*
%TO.P,U1,4*%
%TO.N,+3V3*%
X149860000Y-120650000D03*
%TO.P,U1,1*%
%TO.N,TX*%
X149860000Y-128270000D03*
%TO.P,U1,5*%
%TO.N,GND*%
X147320000Y-128270000D03*
%TO.P,U1,6*%
%TO.N,IO2*%
X147320000Y-125730000D03*
%TO.P,U1,7*%
%TO.N,IO0*%
X147320000Y-123190000D03*
%TO.P,U1,8*%
%TO.N,RX*%
X147320000Y-120650000D03*
%TD*%
%TO.P,U2,2*%
%TO.N,+3V3*%
X137160000Y-133350000D03*
%TO.P,U2,3*%
%TO.N,IO2*%
X139700000Y-133350000D03*
%TO.P,U2,1*%
%TO.N,GND*%
X134620000Y-133350000D03*
%TD*%
%TO.P,U3,1*%
%TO.N,GND*%
X157480000Y-107950000D03*
%TO.P,U3,2*%
%TO.N,IO0*%
X157480000Y-110490000D03*
%TO.P,U3,3*%
X157480000Y-113030000D03*
%TO.P,U3,4*%
%TO.N,+3V3*%
X157480000Y-115570000D03*
%TD*%
D19*
%TO.N,RST*%
X138430000Y-111760000D03*
%TO.N,TX*%
X149860000Y-133350000D03*
%TD*%
D20*
%TO.N,RST*%
X148772999Y-122102999D02*
X147164237Y-122102999D01*
X147164237Y-122102999D02*
X138430000Y-113368762D01*
X149860000Y-123190000D02*
X148772999Y-122102999D01*
X138430000Y-113368762D02*
X138430000Y-111760000D01*
X138430000Y-113368762D02*
X138430000Y-128270000D01*
X135890000Y-130810000D02*
X132080000Y-130810000D01*
X138430000Y-128270000D02*
X135890000Y-130810000D01*
D21*
%TO.N,Net-(J1-Pad2)*%
X147749998Y-96520000D02*
X154940000Y-96520000D01*
X143319999Y-106071319D02*
X143319999Y-100949999D01*
X143319999Y-100949999D02*
X147749998Y-96520000D01*
X145198680Y-107950000D02*
X143319999Y-106071319D01*
X147320000Y-107950000D02*
X145198680Y-107950000D01*
D20*
%TO.N,EN*%
X133350000Y-106680000D02*
X133350000Y-105410000D01*
X135890000Y-109220000D02*
X133350000Y-106680000D01*
X140038762Y-109220000D02*
X135890000Y-109220000D01*
X150947001Y-120128239D02*
X140038762Y-109220000D01*
X150947001Y-124642999D02*
X150947001Y-120128239D01*
X149860000Y-125730000D02*
X150947001Y-124642999D01*
%TO.N,TX*%
X130810000Y-105410000D02*
X129540000Y-106680000D01*
X129540000Y-106680000D02*
X129540000Y-132080000D01*
X129540000Y-132080000D02*
X132080000Y-134620000D01*
X132080000Y-134620000D02*
X148590000Y-134620000D01*
X148590000Y-134620000D02*
X149860000Y-133350000D01*
X149860000Y-133350000D02*
X149860000Y-133350000D01*
%TD*%
D22*
%TO.N,GND*%
X146283453Y-94325161D02*
X146124751Y-94455405D01*
X145883441Y-94653443D01*
X145801177Y-94753682D01*
X141553682Y-99001178D01*
X141453443Y-99083442D01*
X141371179Y-99183681D01*
X141125161Y-99483455D01*
X140881226Y-99939826D01*
X140731011Y-100435017D01*
X140680289Y-100949999D01*
X140693000Y-101079054D01*
X140692999Y-105942273D01*
X140680289Y-106071319D01*
X140692999Y-106200364D01*
X140692999Y-106200366D01*
X140731010Y-106586300D01*
X140881225Y-107081491D01*
X141125160Y-107537862D01*
X141453442Y-107937876D01*
X141553686Y-108020144D01*
X143249859Y-109716318D01*
X143332123Y-109816557D01*
X143383000Y-109858311D01*
X143383000Y-110490000D01*
X143385440Y-110514776D01*
X143392667Y-110538601D01*
X143404403Y-110560557D01*
X143420197Y-110579803D01*
X144690197Y-111849803D01*
X144709443Y-111865597D01*
X144731399Y-111877333D01*
X144755224Y-111884560D01*
X144780000Y-111887000D01*
X148590000Y-111887000D01*
X148620802Y-111883208D01*
X148644247Y-111874832D01*
X148665607Y-111862042D01*
X148684062Y-111845331D01*
X148698902Y-111825341D01*
X149134098Y-111100015D01*
X149632078Y-110767275D01*
X150137275Y-110262078D01*
X150534206Y-109668029D01*
X150807617Y-109007957D01*
X150947000Y-108307228D01*
X150947000Y-108078511D01*
X151603445Y-106984435D01*
X156694040Y-106984435D01*
X157480000Y-107770395D01*
X158265960Y-106984435D01*
X158198980Y-106744344D01*
X157949952Y-106627244D01*
X157682865Y-106560977D01*
X157407983Y-106548090D01*
X157135867Y-106589078D01*
X156876977Y-106682364D01*
X156761020Y-106744344D01*
X156694040Y-106984435D01*
X151603445Y-106984435D01*
X152471907Y-105537000D01*
X158623000Y-105537000D01*
X158623000Y-107213540D01*
X158445565Y-107164040D01*
X157659605Y-107950000D01*
X158445565Y-108735960D01*
X158623000Y-108686460D01*
X158623000Y-109686088D01*
X158565120Y-109599465D01*
X158370535Y-109404880D01*
X158141727Y-109251995D01*
X158070057Y-109222308D01*
X158083023Y-109217636D01*
X158198980Y-109155656D01*
X158265960Y-108915565D01*
X157480000Y-108129605D01*
X156694040Y-108915565D01*
X156761020Y-109155656D01*
X156896760Y-109219485D01*
X156818273Y-109251995D01*
X156589465Y-109404880D01*
X156394880Y-109599465D01*
X156241995Y-109828273D01*
X156221772Y-109877096D01*
X156191538Y-109725100D01*
X155993863Y-109247870D01*
X155706883Y-108818374D01*
X155341626Y-108453117D01*
X154912130Y-108166137D01*
X154564194Y-108022017D01*
X156078090Y-108022017D01*
X156119078Y-108294133D01*
X156212364Y-108553023D01*
X156274344Y-108668980D01*
X156514435Y-108735960D01*
X157300395Y-107950000D01*
X156514435Y-107164040D01*
X156274344Y-107231020D01*
X156157244Y-107480048D01*
X156090977Y-107747135D01*
X156078090Y-108022017D01*
X154564194Y-108022017D01*
X154434900Y-107968462D01*
X153928275Y-107867688D01*
X153411725Y-107867688D01*
X152905100Y-107968462D01*
X152427870Y-108166137D01*
X151998374Y-108453117D01*
X151633117Y-108818374D01*
X151346137Y-109247870D01*
X151148462Y-109725100D01*
X151047688Y-110231725D01*
X151047688Y-110748275D01*
X151148462Y-111254900D01*
X151346137Y-111732130D01*
X151633117Y-112161626D01*
X151998374Y-112526883D01*
X152427870Y-112813863D01*
X152905100Y-113011538D01*
X153411725Y-113112312D01*
X153928275Y-113112312D01*
X154434900Y-113011538D01*
X154912130Y-112813863D01*
X155341626Y-112526883D01*
X155706883Y-112161626D01*
X155993863Y-111732130D01*
X156191538Y-111254900D01*
X156221772Y-111102904D01*
X156241995Y-111151727D01*
X156394880Y-111380535D01*
X156589465Y-111575120D01*
X156818273Y-111728005D01*
X156895515Y-111760000D01*
X156818273Y-111791995D01*
X156589465Y-111944880D01*
X156394880Y-112139465D01*
X156241995Y-112368273D01*
X156136686Y-112622510D01*
X156083000Y-112892408D01*
X156083000Y-113167592D01*
X156136686Y-113437490D01*
X156241995Y-113691727D01*
X156394880Y-113920535D01*
X156589465Y-114115120D01*
X156818273Y-114268005D01*
X156895515Y-114300000D01*
X156818273Y-114331995D01*
X156589465Y-114484880D01*
X156394880Y-114679465D01*
X156241995Y-114908273D01*
X156136686Y-115162510D01*
X156083000Y-115432408D01*
X156083000Y-115707592D01*
X156136686Y-115977490D01*
X156241995Y-116231727D01*
X156394880Y-116460535D01*
X156589465Y-116655120D01*
X156818273Y-116808005D01*
X157072510Y-116913314D01*
X157342408Y-116967000D01*
X157617592Y-116967000D01*
X157887490Y-116913314D01*
X158141727Y-116808005D01*
X158370535Y-116655120D01*
X158565120Y-116460535D01*
X158623000Y-116373912D01*
X158623000Y-122095076D01*
X158244900Y-121938462D01*
X157738275Y-121837688D01*
X157221725Y-121837688D01*
X156715100Y-121938462D01*
X156237870Y-122136137D01*
X155808374Y-122423117D01*
X155443117Y-122788374D01*
X155156137Y-123217870D01*
X155101177Y-123350556D01*
X155105000Y-123331335D01*
X155105000Y-123048665D01*
X155049853Y-122771426D01*
X154941680Y-122510273D01*
X154784637Y-122275241D01*
X154584759Y-122075363D01*
X154349727Y-121918320D01*
X154088574Y-121810147D01*
X153811335Y-121755000D01*
X153528665Y-121755000D01*
X153251426Y-121810147D01*
X152990273Y-121918320D01*
X152755241Y-122075363D01*
X152555363Y-122275241D01*
X152398320Y-122510273D01*
X152290147Y-122771426D01*
X152235000Y-123048665D01*
X152235000Y-123331335D01*
X152290147Y-123608574D01*
X152398320Y-123869727D01*
X152555363Y-124104759D01*
X152755241Y-124304637D01*
X152987759Y-124460000D01*
X152755241Y-124615363D01*
X152555363Y-124815241D01*
X152398320Y-125050273D01*
X152290147Y-125311426D01*
X152235000Y-125588665D01*
X152235000Y-125871335D01*
X152290147Y-126148574D01*
X152398320Y-126409727D01*
X152555363Y-126644759D01*
X152755241Y-126844637D01*
X152990273Y-127001680D01*
X153251426Y-127109853D01*
X153528665Y-127165000D01*
X153811335Y-127165000D01*
X154088574Y-127109853D01*
X154349727Y-127001680D01*
X154584759Y-126844637D01*
X154784637Y-126644759D01*
X154941680Y-126409727D01*
X155049853Y-126148574D01*
X155105000Y-125871335D01*
X155105000Y-125588665D01*
X155101177Y-125569444D01*
X155156137Y-125702130D01*
X155443117Y-126131626D01*
X155808374Y-126496883D01*
X156237870Y-126783863D01*
X156715100Y-126981538D01*
X157221725Y-127082312D01*
X157738275Y-127082312D01*
X158244900Y-126981538D01*
X158623000Y-126824924D01*
X158623000Y-133223000D01*
X155105000Y-133223000D01*
X155105000Y-133208665D01*
X155049853Y-132931426D01*
X154941680Y-132670273D01*
X154784637Y-132435241D01*
X154584759Y-132235363D01*
X154349727Y-132078320D01*
X154088574Y-131970147D01*
X153811335Y-131915000D01*
X153528665Y-131915000D01*
X153251426Y-131970147D01*
X152990273Y-132078320D01*
X152755241Y-132235363D01*
X152555363Y-132435241D01*
X152398320Y-132670273D01*
X152290147Y-132931426D01*
X152235000Y-133208665D01*
X152235000Y-133223000D01*
X150890015Y-133223000D01*
X150855226Y-133048102D01*
X150777205Y-132859744D01*
X150663937Y-132690226D01*
X150519774Y-132546063D01*
X150350256Y-132432795D01*
X150161898Y-132354774D01*
X149961939Y-132315000D01*
X149758061Y-132315000D01*
X149558102Y-132354774D01*
X149369744Y-132432795D01*
X149200226Y-132546063D01*
X149056063Y-132690226D01*
X148942795Y-132859744D01*
X148864774Y-133048102D01*
X148829985Y-133223000D01*
X141097000Y-133223000D01*
X141097000Y-133212408D01*
X141043314Y-132942510D01*
X140938005Y-132688273D01*
X140785120Y-132459465D01*
X140590535Y-132264880D01*
X140361727Y-132111995D01*
X140107490Y-132006686D01*
X139837592Y-131953000D01*
X139562408Y-131953000D01*
X139292510Y-132006686D01*
X139038273Y-132111995D01*
X138809465Y-132264880D01*
X138614880Y-132459465D01*
X138461995Y-132688273D01*
X138430000Y-132765515D01*
X138398005Y-132688273D01*
X138245120Y-132459465D01*
X138050535Y-132264880D01*
X137821727Y-132111995D01*
X137567490Y-132006686D01*
X137297592Y-131953000D01*
X137022408Y-131953000D01*
X136752510Y-132006686D01*
X136498273Y-132111995D01*
X136269465Y-132264880D01*
X136074880Y-132459465D01*
X135921995Y-132688273D01*
X135892308Y-132759943D01*
X135887636Y-132746977D01*
X135825656Y-132631020D01*
X135585565Y-132564040D01*
X134926605Y-133223000D01*
X134313395Y-133223000D01*
X133654435Y-132564040D01*
X133414344Y-132631020D01*
X133297244Y-132880048D01*
X133230977Y-133147135D01*
X133227420Y-133223000D01*
X131757802Y-133223000D01*
X130919237Y-132384435D01*
X133834040Y-132384435D01*
X134620000Y-133170395D01*
X135405960Y-132384435D01*
X135338980Y-132144344D01*
X135089952Y-132027244D01*
X134822865Y-131960977D01*
X134547983Y-131948090D01*
X134275867Y-131989078D01*
X134016977Y-132082364D01*
X133901020Y-132144344D01*
X133834040Y-132384435D01*
X130919237Y-132384435D01*
X130300000Y-131765199D01*
X130300000Y-126802702D01*
X131266903Y-126802702D01*
X131338486Y-127046671D01*
X131593996Y-127167571D01*
X131868184Y-127236300D01*
X132150512Y-127250217D01*
X132430130Y-127208787D01*
X132696292Y-127113603D01*
X132821514Y-127046671D01*
X132893097Y-126802702D01*
X132080000Y-125989605D01*
X131266903Y-126802702D01*
X130300000Y-126802702D01*
X130300000Y-125880512D01*
X130639783Y-125880512D01*
X130681213Y-126160130D01*
X130776397Y-126426292D01*
X130843329Y-126551514D01*
X131087298Y-126623097D01*
X131900395Y-125810000D01*
X132259605Y-125810000D01*
X133072702Y-126623097D01*
X133316671Y-126551514D01*
X133437571Y-126296004D01*
X133506300Y-126021816D01*
X133520217Y-125739488D01*
X133478787Y-125459870D01*
X133383603Y-125193708D01*
X133316671Y-125068486D01*
X133072702Y-124996903D01*
X132259605Y-125810000D01*
X131900395Y-125810000D01*
X131087298Y-124996903D01*
X130843329Y-125068486D01*
X130722429Y-125323996D01*
X130653700Y-125598184D01*
X130639783Y-125880512D01*
X130300000Y-125880512D01*
X130300000Y-124182702D01*
X131266903Y-124182702D01*
X131338486Y-124426671D01*
X131488353Y-124497584D01*
X131463708Y-124506397D01*
X131338486Y-124573329D01*
X131266903Y-124817298D01*
X132080000Y-125630395D01*
X132893097Y-124817298D01*
X132821514Y-124573329D01*
X132671647Y-124502416D01*
X132696292Y-124493603D01*
X132821514Y-124426671D01*
X132893097Y-124182702D01*
X132080000Y-123369605D01*
X131266903Y-124182702D01*
X130300000Y-124182702D01*
X130300000Y-123260512D01*
X130639783Y-123260512D01*
X130681213Y-123540130D01*
X130776397Y-123806292D01*
X130843329Y-123931514D01*
X131087298Y-124003097D01*
X131900395Y-123190000D01*
X132259605Y-123190000D01*
X133072702Y-124003097D01*
X133316671Y-123931514D01*
X133437571Y-123676004D01*
X133506300Y-123401816D01*
X133520217Y-123119488D01*
X133509724Y-123048665D01*
X134455000Y-123048665D01*
X134455000Y-123331335D01*
X134510147Y-123608574D01*
X134618320Y-123869727D01*
X134775363Y-124104759D01*
X134975241Y-124304637D01*
X135207759Y-124460000D01*
X134975241Y-124615363D01*
X134775363Y-124815241D01*
X134618320Y-125050273D01*
X134510147Y-125311426D01*
X134455000Y-125588665D01*
X134455000Y-125871335D01*
X134510147Y-126148574D01*
X134618320Y-126409727D01*
X134775363Y-126644759D01*
X134975241Y-126844637D01*
X135210273Y-127001680D01*
X135471426Y-127109853D01*
X135748665Y-127165000D01*
X136031335Y-127165000D01*
X136308574Y-127109853D01*
X136569727Y-127001680D01*
X136804759Y-126844637D01*
X137004637Y-126644759D01*
X137161680Y-126409727D01*
X137269853Y-126148574D01*
X137325000Y-125871335D01*
X137325000Y-125588665D01*
X137269853Y-125311426D01*
X137161680Y-125050273D01*
X137004637Y-124815241D01*
X136804759Y-124615363D01*
X136572241Y-124460000D01*
X136804759Y-124304637D01*
X137004637Y-124104759D01*
X137161680Y-123869727D01*
X137269853Y-123608574D01*
X137325000Y-123331335D01*
X137325000Y-123048665D01*
X137269853Y-122771426D01*
X137161680Y-122510273D01*
X137004637Y-122275241D01*
X136804759Y-122075363D01*
X136569727Y-121918320D01*
X136308574Y-121810147D01*
X136031335Y-121755000D01*
X135748665Y-121755000D01*
X135471426Y-121810147D01*
X135210273Y-121918320D01*
X134975241Y-122075363D01*
X134775363Y-122275241D01*
X134618320Y-122510273D01*
X134510147Y-122771426D01*
X134455000Y-123048665D01*
X133509724Y-123048665D01*
X133478787Y-122839870D01*
X133383603Y-122573708D01*
X133316671Y-122448486D01*
X133072702Y-122376903D01*
X132259605Y-123190000D01*
X131900395Y-123190000D01*
X131087298Y-122376903D01*
X130843329Y-122448486D01*
X130722429Y-122703996D01*
X130653700Y-122978184D01*
X130639783Y-123260512D01*
X130300000Y-123260512D01*
X130300000Y-122197298D01*
X131266903Y-122197298D01*
X132080000Y-123010395D01*
X132893097Y-122197298D01*
X132821514Y-121953329D01*
X132566004Y-121832429D01*
X132291816Y-121763700D01*
X132009488Y-121749783D01*
X131729870Y-121791213D01*
X131463708Y-121886397D01*
X131338486Y-121953329D01*
X131266903Y-122197298D01*
X130300000Y-122197298D01*
X130300000Y-118048665D01*
X130645000Y-118048665D01*
X130645000Y-118331335D01*
X130700147Y-118608574D01*
X130808320Y-118869727D01*
X130965363Y-119104759D01*
X131165241Y-119304637D01*
X131400273Y-119461680D01*
X131661426Y-119569853D01*
X131938665Y-119625000D01*
X132221335Y-119625000D01*
X132498574Y-119569853D01*
X132759727Y-119461680D01*
X132994759Y-119304637D01*
X133194637Y-119104759D01*
X133351680Y-118869727D01*
X133459853Y-118608574D01*
X133515000Y-118331335D01*
X133515000Y-118048665D01*
X133459853Y-117771426D01*
X133351680Y-117510273D01*
X133194637Y-117275241D01*
X132994759Y-117075363D01*
X132759727Y-116918320D01*
X132498574Y-116810147D01*
X132221335Y-116755000D01*
X131938665Y-116755000D01*
X131661426Y-116810147D01*
X131400273Y-116918320D01*
X131165241Y-117075363D01*
X130965363Y-117275241D01*
X130808320Y-117510273D01*
X130700147Y-117771426D01*
X130645000Y-118048665D01*
X130300000Y-118048665D01*
X130300000Y-106994801D01*
X130443592Y-106851209D01*
X130663740Y-106895000D01*
X130956260Y-106895000D01*
X131243158Y-106837932D01*
X131513411Y-106725990D01*
X131756632Y-106563475D01*
X131963475Y-106356632D01*
X132080000Y-106182240D01*
X132196525Y-106356632D01*
X132403368Y-106563475D01*
X132586927Y-106686125D01*
X132590000Y-106717322D01*
X132590000Y-106717332D01*
X132600997Y-106828985D01*
X132621954Y-106898072D01*
X132644454Y-106972246D01*
X132715026Y-107104276D01*
X132754871Y-107152826D01*
X132809999Y-107220001D01*
X132839003Y-107243804D01*
X135326205Y-109731008D01*
X135349999Y-109760001D01*
X135378992Y-109783795D01*
X135378996Y-109783799D01*
X135449685Y-109841811D01*
X135465724Y-109854974D01*
X135597753Y-109925546D01*
X135741014Y-109969003D01*
X135852667Y-109980000D01*
X135852676Y-109980000D01*
X135889999Y-109983676D01*
X135927322Y-109980000D01*
X139723961Y-109980000D01*
X149172905Y-119428945D01*
X148969465Y-119564880D01*
X148774880Y-119759465D01*
X148621995Y-119988273D01*
X148590000Y-120065515D01*
X148558005Y-119988273D01*
X148405120Y-119759465D01*
X148210535Y-119564880D01*
X147981727Y-119411995D01*
X147727490Y-119306686D01*
X147457592Y-119253000D01*
X147182408Y-119253000D01*
X146912510Y-119306686D01*
X146658273Y-119411995D01*
X146429465Y-119564880D01*
X146234880Y-119759465D01*
X146098945Y-119962905D01*
X139190000Y-113053961D01*
X139190000Y-112463711D01*
X139233937Y-112419774D01*
X139347205Y-112250256D01*
X139425226Y-112061898D01*
X139465000Y-111861939D01*
X139465000Y-111658061D01*
X139425226Y-111458102D01*
X139347205Y-111269744D01*
X139233937Y-111100226D01*
X139089774Y-110956063D01*
X138920256Y-110842795D01*
X138731898Y-110764774D01*
X138531939Y-110725000D01*
X138328061Y-110725000D01*
X138128102Y-110764774D01*
X137939744Y-110842795D01*
X137770226Y-110956063D01*
X137626063Y-111100226D01*
X137512795Y-111269744D01*
X137434774Y-111458102D01*
X137395000Y-111658061D01*
X137395000Y-111861939D01*
X137434774Y-112061898D01*
X137512795Y-112250256D01*
X137626063Y-112419774D01*
X137670001Y-112463712D01*
X137670000Y-113331429D01*
X137670000Y-113331440D01*
X137666324Y-113368762D01*
X137670000Y-113406084D01*
X137670001Y-127955196D01*
X135575199Y-130050000D01*
X133298043Y-130050000D01*
X133194637Y-129895241D01*
X132994759Y-129695363D01*
X132759727Y-129538320D01*
X132498574Y-129430147D01*
X132221335Y-129375000D01*
X131938665Y-129375000D01*
X131661426Y-129430147D01*
X131400273Y-129538320D01*
X131165241Y-129695363D01*
X130965363Y-129895241D01*
X130808320Y-130130273D01*
X130700147Y-130391426D01*
X130645000Y-130668665D01*
X130645000Y-130951335D01*
X130700147Y-131228574D01*
X130808320Y-131489727D01*
X130965363Y-131724759D01*
X131165241Y-131924637D01*
X131400273Y-132081680D01*
X131661426Y-132189853D01*
X131938665Y-132245000D01*
X132221335Y-132245000D01*
X132498574Y-132189853D01*
X132759727Y-132081680D01*
X132994759Y-131924637D01*
X133194637Y-131724759D01*
X133298043Y-131570000D01*
X135852678Y-131570000D01*
X135890000Y-131573676D01*
X135927322Y-131570000D01*
X135927333Y-131570000D01*
X136038986Y-131559003D01*
X136182247Y-131515546D01*
X136314276Y-131444974D01*
X136430001Y-131350001D01*
X136453804Y-131320997D01*
X138539237Y-129235565D01*
X146534040Y-129235565D01*
X146601020Y-129475656D01*
X146850048Y-129592756D01*
X147117135Y-129659023D01*
X147392017Y-129671910D01*
X147664133Y-129630922D01*
X147923023Y-129537636D01*
X148038980Y-129475656D01*
X148105960Y-129235565D01*
X147320000Y-128449605D01*
X146534040Y-129235565D01*
X138539237Y-129235565D01*
X138941008Y-128833795D01*
X138970001Y-128810001D01*
X138993795Y-128781008D01*
X138993799Y-128781004D01*
X139064973Y-128694277D01*
X139073946Y-128677490D01*
X139135546Y-128562247D01*
X139179003Y-128418986D01*
X139186583Y-128342017D01*
X145918090Y-128342017D01*
X145959078Y-128614133D01*
X146052364Y-128873023D01*
X146114344Y-128988980D01*
X146354435Y-129055960D01*
X147140395Y-128270000D01*
X146354435Y-127484040D01*
X146114344Y-127551020D01*
X145997244Y-127800048D01*
X145930977Y-128067135D01*
X145918090Y-128342017D01*
X139186583Y-128342017D01*
X139190000Y-128307333D01*
X139190000Y-128307324D01*
X139193676Y-128270001D01*
X139190000Y-128232678D01*
X139190000Y-123048665D01*
X142075000Y-123048665D01*
X142075000Y-123331335D01*
X142130147Y-123608574D01*
X142238320Y-123869727D01*
X142395363Y-124104759D01*
X142595241Y-124304637D01*
X142827759Y-124460000D01*
X142595241Y-124615363D01*
X142395363Y-124815241D01*
X142238320Y-125050273D01*
X142130147Y-125311426D01*
X142075000Y-125588665D01*
X142075000Y-125871335D01*
X142130147Y-126148574D01*
X142238320Y-126409727D01*
X142395363Y-126644759D01*
X142595241Y-126844637D01*
X142830273Y-127001680D01*
X143091426Y-127109853D01*
X143368665Y-127165000D01*
X143651335Y-127165000D01*
X143928574Y-127109853D01*
X144189727Y-127001680D01*
X144424759Y-126844637D01*
X144624637Y-126644759D01*
X144781680Y-126409727D01*
X144889853Y-126148574D01*
X144945000Y-125871335D01*
X144945000Y-125588665D01*
X144889853Y-125311426D01*
X144781680Y-125050273D01*
X144624637Y-124815241D01*
X144424759Y-124615363D01*
X144192241Y-124460000D01*
X144424759Y-124304637D01*
X144624637Y-124104759D01*
X144781680Y-123869727D01*
X144889853Y-123608574D01*
X144945000Y-123331335D01*
X144945000Y-123048665D01*
X144889853Y-122771426D01*
X144781680Y-122510273D01*
X144624637Y-122275241D01*
X144424759Y-122075363D01*
X144189727Y-121918320D01*
X143928574Y-121810147D01*
X143651335Y-121755000D01*
X143368665Y-121755000D01*
X143091426Y-121810147D01*
X142830273Y-121918320D01*
X142595241Y-122075363D01*
X142395363Y-122275241D01*
X142238320Y-122510273D01*
X142130147Y-122771426D01*
X142075000Y-123048665D01*
X139190000Y-123048665D01*
X139190000Y-115203563D01*
X146260390Y-122273955D01*
X146234880Y-122299465D01*
X146081995Y-122528273D01*
X145976686Y-122782510D01*
X145923000Y-123052408D01*
X145923000Y-123327592D01*
X145976686Y-123597490D01*
X146081995Y-123851727D01*
X146234880Y-124080535D01*
X146429465Y-124275120D01*
X146658273Y-124428005D01*
X146735515Y-124460000D01*
X146658273Y-124491995D01*
X146429465Y-124644880D01*
X146234880Y-124839465D01*
X146081995Y-125068273D01*
X145976686Y-125322510D01*
X145923000Y-125592408D01*
X145923000Y-125867592D01*
X145976686Y-126137490D01*
X146081995Y-126391727D01*
X146234880Y-126620535D01*
X146429465Y-126815120D01*
X146658273Y-126968005D01*
X146729943Y-126997692D01*
X146716977Y-127002364D01*
X146601020Y-127064344D01*
X146534040Y-127304435D01*
X147320000Y-128090395D01*
X148105960Y-127304435D01*
X148038980Y-127064344D01*
X147903240Y-127000515D01*
X147981727Y-126968005D01*
X148210535Y-126815120D01*
X148405120Y-126620535D01*
X148558005Y-126391727D01*
X148590000Y-126314485D01*
X148621995Y-126391727D01*
X148774880Y-126620535D01*
X148969465Y-126815120D01*
X149198273Y-126968005D01*
X149275515Y-127000000D01*
X149198273Y-127031995D01*
X148969465Y-127184880D01*
X148774880Y-127379465D01*
X148621995Y-127608273D01*
X148592308Y-127679943D01*
X148587636Y-127666977D01*
X148525656Y-127551020D01*
X148285565Y-127484040D01*
X147499605Y-128270000D01*
X148285565Y-129055960D01*
X148525656Y-128988980D01*
X148589485Y-128853240D01*
X148621995Y-128931727D01*
X148774880Y-129160535D01*
X148969465Y-129355120D01*
X149198273Y-129508005D01*
X149452510Y-129613314D01*
X149722408Y-129667000D01*
X149997592Y-129667000D01*
X150267490Y-129613314D01*
X150521727Y-129508005D01*
X150750535Y-129355120D01*
X150945120Y-129160535D01*
X151098005Y-128931727D01*
X151203314Y-128677490D01*
X151257000Y-128407592D01*
X151257000Y-128132408D01*
X151203314Y-127862510D01*
X151098005Y-127608273D01*
X150945120Y-127379465D01*
X150750535Y-127184880D01*
X150521727Y-127031995D01*
X150444485Y-127000000D01*
X150521727Y-126968005D01*
X150750535Y-126815120D01*
X150945120Y-126620535D01*
X151098005Y-126391727D01*
X151203314Y-126137490D01*
X151257000Y-125867592D01*
X151257000Y-125592408D01*
X151226372Y-125438430D01*
X151458005Y-125206797D01*
X151487002Y-125183000D01*
X151581975Y-125067275D01*
X151652547Y-124935246D01*
X151696004Y-124791985D01*
X151707001Y-124680332D01*
X151707001Y-124680331D01*
X151710678Y-124642999D01*
X151707001Y-124605666D01*
X151707001Y-120165572D01*
X151710678Y-120128239D01*
X151696004Y-119979253D01*
X151652547Y-119835992D01*
X151581975Y-119703963D01*
X151510800Y-119617236D01*
X151487002Y-119588238D01*
X151458004Y-119564440D01*
X147322229Y-115428665D01*
X152235000Y-115428665D01*
X152235000Y-115711335D01*
X152290147Y-115988574D01*
X152398320Y-116249727D01*
X152555363Y-116484759D01*
X152755241Y-116684637D01*
X152990273Y-116841680D01*
X153251426Y-116949853D01*
X153528665Y-117005000D01*
X153811335Y-117005000D01*
X154088574Y-116949853D01*
X154349727Y-116841680D01*
X154584759Y-116684637D01*
X154784637Y-116484759D01*
X154941680Y-116249727D01*
X155049853Y-115988574D01*
X155105000Y-115711335D01*
X155105000Y-115428665D01*
X155049853Y-115151426D01*
X154941680Y-114890273D01*
X154784637Y-114655241D01*
X154584759Y-114455363D01*
X154349727Y-114298320D01*
X154088574Y-114190147D01*
X153811335Y-114135000D01*
X153528665Y-114135000D01*
X153251426Y-114190147D01*
X152990273Y-114298320D01*
X152755241Y-114455363D01*
X152555363Y-114655241D01*
X152398320Y-114890273D01*
X152290147Y-115151426D01*
X152235000Y-115428665D01*
X147322229Y-115428665D01*
X140602566Y-108709003D01*
X140578763Y-108679999D01*
X140463038Y-108585026D01*
X140331009Y-108514454D01*
X140187748Y-108470997D01*
X140076095Y-108460000D01*
X140076084Y-108460000D01*
X140038762Y-108456324D01*
X140001440Y-108460000D01*
X136204803Y-108460000D01*
X134302454Y-106557653D01*
X134503475Y-106356632D01*
X134620000Y-106182240D01*
X134736525Y-106356632D01*
X134943368Y-106563475D01*
X135186589Y-106725990D01*
X135456842Y-106837932D01*
X135743740Y-106895000D01*
X136036260Y-106895000D01*
X136323158Y-106837932D01*
X136593411Y-106725990D01*
X136836632Y-106563475D01*
X136968487Y-106431620D01*
X136990498Y-106504180D01*
X137049463Y-106614494D01*
X137128815Y-106711185D01*
X137225506Y-106790537D01*
X137335820Y-106849502D01*
X137455518Y-106885812D01*
X137580000Y-106898072D01*
X139280000Y-106898072D01*
X139404482Y-106885812D01*
X139524180Y-106849502D01*
X139634494Y-106790537D01*
X139731185Y-106711185D01*
X139810537Y-106614494D01*
X139869502Y-106504180D01*
X139905812Y-106384482D01*
X139918072Y-106260000D01*
X139918072Y-104560000D01*
X139905812Y-104435518D01*
X139869502Y-104315820D01*
X139810537Y-104205506D01*
X139731185Y-104108815D01*
X139634494Y-104029463D01*
X139524180Y-103970498D01*
X139404482Y-103934188D01*
X139280000Y-103921928D01*
X137580000Y-103921928D01*
X137455518Y-103934188D01*
X137335820Y-103970498D01*
X137225506Y-104029463D01*
X137128815Y-104108815D01*
X137049463Y-104205506D01*
X136990498Y-104315820D01*
X136968487Y-104388380D01*
X136836632Y-104256525D01*
X136593411Y-104094010D01*
X136323158Y-103982068D01*
X136036260Y-103925000D01*
X135743740Y-103925000D01*
X135456842Y-103982068D01*
X135186589Y-104094010D01*
X134943368Y-104256525D01*
X134736525Y-104463368D01*
X134620000Y-104637760D01*
X134503475Y-104463368D01*
X134296632Y-104256525D01*
X134053411Y-104094010D01*
X133783158Y-103982068D01*
X133496260Y-103925000D01*
X133203740Y-103925000D01*
X132916842Y-103982068D01*
X132646589Y-104094010D01*
X132403368Y-104256525D01*
X132196525Y-104463368D01*
X132080000Y-104637760D01*
X131963475Y-104463368D01*
X131756632Y-104256525D01*
X131513411Y-104094010D01*
X131243158Y-103982068D01*
X130956260Y-103925000D01*
X130663740Y-103925000D01*
X130376842Y-103982068D01*
X130106589Y-104094010D01*
X129863368Y-104256525D01*
X129656525Y-104463368D01*
X129540000Y-104637760D01*
X129423475Y-104463368D01*
X129216632Y-104256525D01*
X128973411Y-104094010D01*
X128703158Y-103982068D01*
X128416260Y-103925000D01*
X128123740Y-103925000D01*
X127836842Y-103982068D01*
X127566589Y-104094010D01*
X127323368Y-104256525D01*
X127116525Y-104463368D01*
X127000000Y-104637760D01*
X126883475Y-104463368D01*
X126676632Y-104256525D01*
X126433411Y-104094010D01*
X126163158Y-103982068D01*
X125876260Y-103925000D01*
X125583740Y-103925000D01*
X125296842Y-103982068D01*
X125026589Y-104094010D01*
X124783368Y-104256525D01*
X124576525Y-104463368D01*
X124460000Y-104637760D01*
X124343475Y-104463368D01*
X124136632Y-104256525D01*
X123893411Y-104094010D01*
X123623158Y-103982068D01*
X123336260Y-103925000D01*
X123043740Y-103925000D01*
X122756842Y-103982068D01*
X122486589Y-104094010D01*
X122243368Y-104256525D01*
X122036525Y-104463368D01*
X121914805Y-104645534D01*
X121845178Y-104528645D01*
X121650269Y-104312412D01*
X121416920Y-104138359D01*
X121154099Y-104013175D01*
X121006890Y-103968524D01*
X120777000Y-104089845D01*
X120777000Y-105283000D01*
X120797000Y-105283000D01*
X120797000Y-105537000D01*
X120777000Y-105537000D01*
X120777000Y-106730155D01*
X121006890Y-106851476D01*
X121154099Y-106806825D01*
X121416920Y-106681641D01*
X121650269Y-106507588D01*
X121845178Y-106291355D01*
X121914805Y-106174466D01*
X122036525Y-106356632D01*
X122243368Y-106563475D01*
X122486589Y-106725990D01*
X122756842Y-106837932D01*
X123043740Y-106895000D01*
X123336260Y-106895000D01*
X123623158Y-106837932D01*
X123893411Y-106725990D01*
X124136632Y-106563475D01*
X124343475Y-106356632D01*
X124460000Y-106182240D01*
X124576525Y-106356632D01*
X124783368Y-106563475D01*
X125026589Y-106725990D01*
X125296842Y-106837932D01*
X125583740Y-106895000D01*
X125876260Y-106895000D01*
X126163158Y-106837932D01*
X126433411Y-106725990D01*
X126676632Y-106563475D01*
X126883475Y-106356632D01*
X127000000Y-106182240D01*
X127116525Y-106356632D01*
X127323368Y-106563475D01*
X127566589Y-106725990D01*
X127836842Y-106837932D01*
X128123740Y-106895000D01*
X128416260Y-106895000D01*
X128703158Y-106837932D01*
X128780000Y-106806103D01*
X128780001Y-132042667D01*
X128776324Y-132080000D01*
X128780001Y-132117333D01*
X128790998Y-132228986D01*
X128794813Y-132241563D01*
X128834454Y-132372246D01*
X128905026Y-132504276D01*
X128972362Y-132586324D01*
X129000000Y-132620001D01*
X129028998Y-132643799D01*
X129608199Y-133223000D01*
X114427000Y-133223000D01*
X114427000Y-130648967D01*
X115055000Y-130648967D01*
X115055000Y-130971033D01*
X115117832Y-131286912D01*
X115241082Y-131584463D01*
X115420013Y-131852252D01*
X115647748Y-132079987D01*
X115915537Y-132258918D01*
X116213088Y-132382168D01*
X116528967Y-132445000D01*
X116851033Y-132445000D01*
X117166912Y-132382168D01*
X117464463Y-132258918D01*
X117732252Y-132079987D01*
X117959987Y-131852252D01*
X118138918Y-131584463D01*
X118262168Y-131286912D01*
X118325000Y-130971033D01*
X118325000Y-130648967D01*
X121555000Y-130648967D01*
X121555000Y-130971033D01*
X121617832Y-131286912D01*
X121741082Y-131584463D01*
X121920013Y-131852252D01*
X122147748Y-132079987D01*
X122415537Y-132258918D01*
X122713088Y-132382168D01*
X123028967Y-132445000D01*
X123351033Y-132445000D01*
X123666912Y-132382168D01*
X123964463Y-132258918D01*
X124232252Y-132079987D01*
X124459987Y-131852252D01*
X124638918Y-131584463D01*
X124762168Y-131286912D01*
X124825000Y-130971033D01*
X124825000Y-130648967D01*
X124762168Y-130333088D01*
X124638918Y-130035537D01*
X124459987Y-129767748D01*
X124232252Y-129540013D01*
X123964463Y-129361082D01*
X123666912Y-129237832D01*
X123351033Y-129175000D01*
X123028967Y-129175000D01*
X122713088Y-129237832D01*
X122415537Y-129361082D01*
X122147748Y-129540013D01*
X121920013Y-129767748D01*
X121741082Y-130035537D01*
X121617832Y-130333088D01*
X121555000Y-130648967D01*
X118325000Y-130648967D01*
X118262168Y-130333088D01*
X118138918Y-130035537D01*
X117959987Y-129767748D01*
X117732252Y-129540013D01*
X117464463Y-129361082D01*
X117166912Y-129237832D01*
X116851033Y-129175000D01*
X116528967Y-129175000D01*
X116213088Y-129237832D01*
X115915537Y-129361082D01*
X115647748Y-129540013D01*
X115420013Y-129767748D01*
X115241082Y-130035537D01*
X115117832Y-130333088D01*
X115055000Y-130648967D01*
X114427000Y-130648967D01*
X114427000Y-127445413D01*
X115734192Y-127445413D01*
X115829956Y-127709814D01*
X116119571Y-127850704D01*
X116431108Y-127932384D01*
X116752595Y-127951718D01*
X117071675Y-127907961D01*
X117376088Y-127802795D01*
X117550044Y-127709814D01*
X117645808Y-127445413D01*
X122234192Y-127445413D01*
X122329956Y-127709814D01*
X122619571Y-127850704D01*
X122931108Y-127932384D01*
X123252595Y-127951718D01*
X123571675Y-127907961D01*
X123876088Y-127802795D01*
X124050044Y-127709814D01*
X124145808Y-127445413D01*
X123190000Y-126489605D01*
X122234192Y-127445413D01*
X117645808Y-127445413D01*
X116690000Y-126489605D01*
X115734192Y-127445413D01*
X114427000Y-127445413D01*
X114427000Y-126372595D01*
X115048282Y-126372595D01*
X115092039Y-126691675D01*
X115197205Y-126996088D01*
X115290186Y-127170044D01*
X115554587Y-127265808D01*
X116510395Y-126310000D01*
X116869605Y-126310000D01*
X117825413Y-127265808D01*
X118089814Y-127170044D01*
X118230704Y-126880429D01*
X118312384Y-126568892D01*
X118324189Y-126372595D01*
X121548282Y-126372595D01*
X121592039Y-126691675D01*
X121697205Y-126996088D01*
X121790186Y-127170044D01*
X122054587Y-127265808D01*
X123010395Y-126310000D01*
X123369605Y-126310000D01*
X124325413Y-127265808D01*
X124589814Y-127170044D01*
X124730704Y-126880429D01*
X124812384Y-126568892D01*
X124831718Y-126247405D01*
X124787961Y-125928325D01*
X124682795Y-125623912D01*
X124589814Y-125449956D01*
X124325413Y-125354192D01*
X123369605Y-126310000D01*
X123010395Y-126310000D01*
X122054587Y-125354192D01*
X121790186Y-125449956D01*
X121649296Y-125739571D01*
X121567616Y-126051108D01*
X121548282Y-126372595D01*
X118324189Y-126372595D01*
X118331718Y-126247405D01*
X118287961Y-125928325D01*
X118182795Y-125623912D01*
X118089814Y-125449956D01*
X117825413Y-125354192D01*
X116869605Y-126310000D01*
X116510395Y-126310000D01*
X115554587Y-125354192D01*
X115290186Y-125449956D01*
X115149296Y-125739571D01*
X115067616Y-126051108D01*
X115048282Y-126372595D01*
X114427000Y-126372595D01*
X114427000Y-125174587D01*
X115734192Y-125174587D01*
X116690000Y-126130395D01*
X117645808Y-125174587D01*
X122234192Y-125174587D01*
X123190000Y-126130395D01*
X124145808Y-125174587D01*
X124050044Y-124910186D01*
X123760429Y-124769296D01*
X123448892Y-124687616D01*
X123127405Y-124668282D01*
X122808325Y-124712039D01*
X122503912Y-124817205D01*
X122329956Y-124910186D01*
X122234192Y-125174587D01*
X117645808Y-125174587D01*
X117550044Y-124910186D01*
X117260429Y-124769296D01*
X116948892Y-124687616D01*
X116627405Y-124668282D01*
X116308325Y-124712039D01*
X116003912Y-124817205D01*
X115829956Y-124910186D01*
X115734192Y-125174587D01*
X114427000Y-125174587D01*
X114427000Y-121676934D01*
X114516137Y-121892130D01*
X114803117Y-122321626D01*
X115168374Y-122686883D01*
X115597870Y-122973863D01*
X116075100Y-123171538D01*
X116581725Y-123272312D01*
X117098275Y-123272312D01*
X117604900Y-123171538D01*
X118082130Y-122973863D01*
X118511626Y-122686883D01*
X118825807Y-122372702D01*
X122376903Y-122372702D01*
X122448486Y-122616671D01*
X122703996Y-122737571D01*
X122978184Y-122806300D01*
X123260512Y-122820217D01*
X123540130Y-122778787D01*
X123806292Y-122683603D01*
X123931514Y-122616671D01*
X124003097Y-122372702D01*
X123190000Y-121559605D01*
X122376903Y-122372702D01*
X118825807Y-122372702D01*
X118876883Y-122321626D01*
X119163863Y-121892130D01*
X119346787Y-121450512D01*
X121749783Y-121450512D01*
X121791213Y-121730130D01*
X121886397Y-121996292D01*
X121953329Y-122121514D01*
X122197298Y-122193097D01*
X123010395Y-121380000D01*
X122996253Y-121365858D01*
X123175858Y-121186253D01*
X123190000Y-121200395D01*
X123204143Y-121186253D01*
X123383748Y-121365858D01*
X123369605Y-121380000D01*
X124182702Y-122193097D01*
X124426671Y-122121514D01*
X124547571Y-121866004D01*
X124616300Y-121591816D01*
X124630217Y-121309488D01*
X124588787Y-121029870D01*
X124493603Y-120763708D01*
X124428384Y-120641691D01*
X124441185Y-120631185D01*
X124520537Y-120534494D01*
X124579502Y-120424180D01*
X124615812Y-120304482D01*
X124628072Y-120180000D01*
X124628072Y-118580000D01*
X124615812Y-118455518D01*
X124579502Y-118335820D01*
X124520537Y-118225506D01*
X124441185Y-118128815D01*
X124344494Y-118049463D01*
X124234180Y-117990498D01*
X124114482Y-117954188D01*
X123990000Y-117941928D01*
X122390000Y-117941928D01*
X122265518Y-117954188D01*
X122145820Y-117990498D01*
X122035506Y-118049463D01*
X121938815Y-118128815D01*
X121859463Y-118225506D01*
X121800498Y-118335820D01*
X121764188Y-118455518D01*
X121751928Y-118580000D01*
X121751928Y-120180000D01*
X121764188Y-120304482D01*
X121800498Y-120424180D01*
X121859463Y-120534494D01*
X121938815Y-120631185D01*
X121951758Y-120641807D01*
X121832429Y-120893996D01*
X121763700Y-121168184D01*
X121749783Y-121450512D01*
X119346787Y-121450512D01*
X119361538Y-121414900D01*
X119462312Y-120908275D01*
X119462312Y-120391725D01*
X119361538Y-119885100D01*
X119163863Y-119407870D01*
X118876883Y-118978374D01*
X118511626Y-118613117D01*
X118082130Y-118326137D01*
X117604900Y-118128462D01*
X117098275Y-118027688D01*
X116581725Y-118027688D01*
X116075100Y-118128462D01*
X115597870Y-118326137D01*
X115168374Y-118613117D01*
X114803117Y-118978374D01*
X114516137Y-119407870D01*
X114427000Y-119623066D01*
X114427000Y-114521653D01*
X116797952Y-114521653D01*
X116953962Y-114837214D01*
X117328745Y-115028020D01*
X117733551Y-115142044D01*
X118152824Y-115174902D01*
X118570451Y-115125334D01*
X118970383Y-114995243D01*
X119266038Y-114837214D01*
X119422048Y-114521653D01*
X118110000Y-113209605D01*
X116797952Y-114521653D01*
X114427000Y-114521653D01*
X114427000Y-113072824D01*
X115965098Y-113072824D01*
X116014666Y-113490451D01*
X116144757Y-113890383D01*
X116302786Y-114186038D01*
X116618347Y-114342048D01*
X117930395Y-113030000D01*
X118289605Y-113030000D01*
X119601653Y-114342048D01*
X119917214Y-114186038D01*
X120108020Y-113811255D01*
X120222044Y-113406449D01*
X120254902Y-112987176D01*
X120205334Y-112569549D01*
X120075243Y-112169617D01*
X119917214Y-111873962D01*
X119601653Y-111717952D01*
X118289605Y-113030000D01*
X117930395Y-113030000D01*
X116618347Y-111717952D01*
X116302786Y-111873962D01*
X116111980Y-112248745D01*
X115997956Y-112653551D01*
X115965098Y-113072824D01*
X114427000Y-113072824D01*
X114427000Y-111538347D01*
X116797952Y-111538347D01*
X118110000Y-112850395D01*
X119422048Y-111538347D01*
X119266038Y-111222786D01*
X118891255Y-111031980D01*
X118486449Y-110917956D01*
X118067176Y-110885098D01*
X117649549Y-110934666D01*
X117249617Y-111064757D01*
X116953962Y-111222786D01*
X116797952Y-111538347D01*
X114427000Y-111538347D01*
X114427000Y-105766891D01*
X119208519Y-105766891D01*
X119305843Y-106041252D01*
X119454822Y-106291355D01*
X119649731Y-106507588D01*
X119883080Y-106681641D01*
X120145901Y-106806825D01*
X120293110Y-106851476D01*
X120523000Y-106730155D01*
X120523000Y-105537000D01*
X119329186Y-105537000D01*
X119208519Y-105766891D01*
X114427000Y-105766891D01*
X114427000Y-105053109D01*
X119208519Y-105053109D01*
X119329186Y-105283000D01*
X120523000Y-105283000D01*
X120523000Y-104089845D01*
X120293110Y-103968524D01*
X120145901Y-104013175D01*
X119883080Y-104138359D01*
X119649731Y-104312412D01*
X119454822Y-104528645D01*
X119305843Y-104778748D01*
X119208519Y-105053109D01*
X114427000Y-105053109D01*
X114427000Y-97579721D01*
X115975000Y-97579721D01*
X115975000Y-98000279D01*
X116057047Y-98412756D01*
X116217988Y-98801302D01*
X116451637Y-99150983D01*
X116749017Y-99448363D01*
X117098698Y-99682012D01*
X117487244Y-99842953D01*
X117899721Y-99925000D01*
X118320279Y-99925000D01*
X118732756Y-99842953D01*
X119121302Y-99682012D01*
X119470983Y-99448363D01*
X119768363Y-99150983D01*
X120002012Y-98801302D01*
X120162953Y-98412756D01*
X120245000Y-98000279D01*
X120245000Y-97579721D01*
X120162953Y-97167244D01*
X120002012Y-96778698D01*
X119768363Y-96429017D01*
X119470983Y-96131637D01*
X119121302Y-95897988D01*
X118732756Y-95737047D01*
X118320279Y-95655000D01*
X117899721Y-95655000D01*
X117487244Y-95737047D01*
X117098698Y-95897988D01*
X116749017Y-96131637D01*
X116451637Y-96429017D01*
X116217988Y-96778698D01*
X116057047Y-97167244D01*
X115975000Y-97579721D01*
X114427000Y-97579721D01*
X114427000Y-94107000D01*
X146691604Y-94107000D01*
X146283453Y-94325161D01*
%TA.AperFunction,Conductor*%
D23*
G36*
X146283453Y-94325161D02*
G01*
X146124751Y-94455405D01*
X145883441Y-94653443D01*
X145801177Y-94753682D01*
X141553682Y-99001178D01*
X141453443Y-99083442D01*
X141371179Y-99183681D01*
X141125161Y-99483455D01*
X140881226Y-99939826D01*
X140731011Y-100435017D01*
X140680289Y-100949999D01*
X140693000Y-101079054D01*
X140692999Y-105942273D01*
X140680289Y-106071319D01*
X140692999Y-106200364D01*
X140692999Y-106200366D01*
X140731010Y-106586300D01*
X140881225Y-107081491D01*
X141125160Y-107537862D01*
X141453442Y-107937876D01*
X141553686Y-108020144D01*
X143249859Y-109716318D01*
X143332123Y-109816557D01*
X143383000Y-109858311D01*
X143383000Y-110490000D01*
X143385440Y-110514776D01*
X143392667Y-110538601D01*
X143404403Y-110560557D01*
X143420197Y-110579803D01*
X144690197Y-111849803D01*
X144709443Y-111865597D01*
X144731399Y-111877333D01*
X144755224Y-111884560D01*
X144780000Y-111887000D01*
X148590000Y-111887000D01*
X148620802Y-111883208D01*
X148644247Y-111874832D01*
X148665607Y-111862042D01*
X148684062Y-111845331D01*
X148698902Y-111825341D01*
X149134098Y-111100015D01*
X149632078Y-110767275D01*
X150137275Y-110262078D01*
X150534206Y-109668029D01*
X150807617Y-109007957D01*
X150947000Y-108307228D01*
X150947000Y-108078511D01*
X151603445Y-106984435D01*
X156694040Y-106984435D01*
X157480000Y-107770395D01*
X158265960Y-106984435D01*
X158198980Y-106744344D01*
X157949952Y-106627244D01*
X157682865Y-106560977D01*
X157407983Y-106548090D01*
X157135867Y-106589078D01*
X156876977Y-106682364D01*
X156761020Y-106744344D01*
X156694040Y-106984435D01*
X151603445Y-106984435D01*
X152471907Y-105537000D01*
X158623000Y-105537000D01*
X158623000Y-107213540D01*
X158445565Y-107164040D01*
X157659605Y-107950000D01*
X158445565Y-108735960D01*
X158623000Y-108686460D01*
X158623000Y-109686088D01*
X158565120Y-109599465D01*
X158370535Y-109404880D01*
X158141727Y-109251995D01*
X158070057Y-109222308D01*
X158083023Y-109217636D01*
X158198980Y-109155656D01*
X158265960Y-108915565D01*
X157480000Y-108129605D01*
X156694040Y-108915565D01*
X156761020Y-109155656D01*
X156896760Y-109219485D01*
X156818273Y-109251995D01*
X156589465Y-109404880D01*
X156394880Y-109599465D01*
X156241995Y-109828273D01*
X156221772Y-109877096D01*
X156191538Y-109725100D01*
X155993863Y-109247870D01*
X155706883Y-108818374D01*
X155341626Y-108453117D01*
X154912130Y-108166137D01*
X154564194Y-108022017D01*
X156078090Y-108022017D01*
X156119078Y-108294133D01*
X156212364Y-108553023D01*
X156274344Y-108668980D01*
X156514435Y-108735960D01*
X157300395Y-107950000D01*
X156514435Y-107164040D01*
X156274344Y-107231020D01*
X156157244Y-107480048D01*
X156090977Y-107747135D01*
X156078090Y-108022017D01*
X154564194Y-108022017D01*
X154434900Y-107968462D01*
X153928275Y-107867688D01*
X153411725Y-107867688D01*
X152905100Y-107968462D01*
X152427870Y-108166137D01*
X151998374Y-108453117D01*
X151633117Y-108818374D01*
X151346137Y-109247870D01*
X151148462Y-109725100D01*
X151047688Y-110231725D01*
X151047688Y-110748275D01*
X151148462Y-111254900D01*
X151346137Y-111732130D01*
X151633117Y-112161626D01*
X151998374Y-112526883D01*
X152427870Y-112813863D01*
X152905100Y-113011538D01*
X153411725Y-113112312D01*
X153928275Y-113112312D01*
X154434900Y-113011538D01*
X154912130Y-112813863D01*
X155341626Y-112526883D01*
X155706883Y-112161626D01*
X155993863Y-111732130D01*
X156191538Y-111254900D01*
X156221772Y-111102904D01*
X156241995Y-111151727D01*
X156394880Y-111380535D01*
X156589465Y-111575120D01*
X156818273Y-111728005D01*
X156895515Y-111760000D01*
X156818273Y-111791995D01*
X156589465Y-111944880D01*
X156394880Y-112139465D01*
X156241995Y-112368273D01*
X156136686Y-112622510D01*
X156083000Y-112892408D01*
X156083000Y-113167592D01*
X156136686Y-113437490D01*
X156241995Y-113691727D01*
X156394880Y-113920535D01*
X156589465Y-114115120D01*
X156818273Y-114268005D01*
X156895515Y-114300000D01*
X156818273Y-114331995D01*
X156589465Y-114484880D01*
X156394880Y-114679465D01*
X156241995Y-114908273D01*
X156136686Y-115162510D01*
X156083000Y-115432408D01*
X156083000Y-115707592D01*
X156136686Y-115977490D01*
X156241995Y-116231727D01*
X156394880Y-116460535D01*
X156589465Y-116655120D01*
X156818273Y-116808005D01*
X157072510Y-116913314D01*
X157342408Y-116967000D01*
X157617592Y-116967000D01*
X157887490Y-116913314D01*
X158141727Y-116808005D01*
X158370535Y-116655120D01*
X158565120Y-116460535D01*
X158623000Y-116373912D01*
X158623000Y-122095076D01*
X158244900Y-121938462D01*
X157738275Y-121837688D01*
X157221725Y-121837688D01*
X156715100Y-121938462D01*
X156237870Y-122136137D01*
X155808374Y-122423117D01*
X155443117Y-122788374D01*
X155156137Y-123217870D01*
X155101177Y-123350556D01*
X155105000Y-123331335D01*
X155105000Y-123048665D01*
X155049853Y-122771426D01*
X154941680Y-122510273D01*
X154784637Y-122275241D01*
X154584759Y-122075363D01*
X154349727Y-121918320D01*
X154088574Y-121810147D01*
X153811335Y-121755000D01*
X153528665Y-121755000D01*
X153251426Y-121810147D01*
X152990273Y-121918320D01*
X152755241Y-122075363D01*
X152555363Y-122275241D01*
X152398320Y-122510273D01*
X152290147Y-122771426D01*
X152235000Y-123048665D01*
X152235000Y-123331335D01*
X152290147Y-123608574D01*
X152398320Y-123869727D01*
X152555363Y-124104759D01*
X152755241Y-124304637D01*
X152987759Y-124460000D01*
X152755241Y-124615363D01*
X152555363Y-124815241D01*
X152398320Y-125050273D01*
X152290147Y-125311426D01*
X152235000Y-125588665D01*
X152235000Y-125871335D01*
X152290147Y-126148574D01*
X152398320Y-126409727D01*
X152555363Y-126644759D01*
X152755241Y-126844637D01*
X152990273Y-127001680D01*
X153251426Y-127109853D01*
X153528665Y-127165000D01*
X153811335Y-127165000D01*
X154088574Y-127109853D01*
X154349727Y-127001680D01*
X154584759Y-126844637D01*
X154784637Y-126644759D01*
X154941680Y-126409727D01*
X155049853Y-126148574D01*
X155105000Y-125871335D01*
X155105000Y-125588665D01*
X155101177Y-125569444D01*
X155156137Y-125702130D01*
X155443117Y-126131626D01*
X155808374Y-126496883D01*
X156237870Y-126783863D01*
X156715100Y-126981538D01*
X157221725Y-127082312D01*
X157738275Y-127082312D01*
X158244900Y-126981538D01*
X158623000Y-126824924D01*
X158623000Y-133223000D01*
X155105000Y-133223000D01*
X155105000Y-133208665D01*
X155049853Y-132931426D01*
X154941680Y-132670273D01*
X154784637Y-132435241D01*
X154584759Y-132235363D01*
X154349727Y-132078320D01*
X154088574Y-131970147D01*
X153811335Y-131915000D01*
X153528665Y-131915000D01*
X153251426Y-131970147D01*
X152990273Y-132078320D01*
X152755241Y-132235363D01*
X152555363Y-132435241D01*
X152398320Y-132670273D01*
X152290147Y-132931426D01*
X152235000Y-133208665D01*
X152235000Y-133223000D01*
X150890015Y-133223000D01*
X150855226Y-133048102D01*
X150777205Y-132859744D01*
X150663937Y-132690226D01*
X150519774Y-132546063D01*
X150350256Y-132432795D01*
X150161898Y-132354774D01*
X149961939Y-132315000D01*
X149758061Y-132315000D01*
X149558102Y-132354774D01*
X149369744Y-132432795D01*
X149200226Y-132546063D01*
X149056063Y-132690226D01*
X148942795Y-132859744D01*
X148864774Y-133048102D01*
X148829985Y-133223000D01*
X141097000Y-133223000D01*
X141097000Y-133212408D01*
X141043314Y-132942510D01*
X140938005Y-132688273D01*
X140785120Y-132459465D01*
X140590535Y-132264880D01*
X140361727Y-132111995D01*
X140107490Y-132006686D01*
X139837592Y-131953000D01*
X139562408Y-131953000D01*
X139292510Y-132006686D01*
X139038273Y-132111995D01*
X138809465Y-132264880D01*
X138614880Y-132459465D01*
X138461995Y-132688273D01*
X138430000Y-132765515D01*
X138398005Y-132688273D01*
X138245120Y-132459465D01*
X138050535Y-132264880D01*
X137821727Y-132111995D01*
X137567490Y-132006686D01*
X137297592Y-131953000D01*
X137022408Y-131953000D01*
X136752510Y-132006686D01*
X136498273Y-132111995D01*
X136269465Y-132264880D01*
X136074880Y-132459465D01*
X135921995Y-132688273D01*
X135892308Y-132759943D01*
X135887636Y-132746977D01*
X135825656Y-132631020D01*
X135585565Y-132564040D01*
X134926605Y-133223000D01*
X134313395Y-133223000D01*
X133654435Y-132564040D01*
X133414344Y-132631020D01*
X133297244Y-132880048D01*
X133230977Y-133147135D01*
X133227420Y-133223000D01*
X131757802Y-133223000D01*
X130919237Y-132384435D01*
X133834040Y-132384435D01*
X134620000Y-133170395D01*
X135405960Y-132384435D01*
X135338980Y-132144344D01*
X135089952Y-132027244D01*
X134822865Y-131960977D01*
X134547983Y-131948090D01*
X134275867Y-131989078D01*
X134016977Y-132082364D01*
X133901020Y-132144344D01*
X133834040Y-132384435D01*
X130919237Y-132384435D01*
X130300000Y-131765199D01*
X130300000Y-126802702D01*
X131266903Y-126802702D01*
X131338486Y-127046671D01*
X131593996Y-127167571D01*
X131868184Y-127236300D01*
X132150512Y-127250217D01*
X132430130Y-127208787D01*
X132696292Y-127113603D01*
X132821514Y-127046671D01*
X132893097Y-126802702D01*
X132080000Y-125989605D01*
X131266903Y-126802702D01*
X130300000Y-126802702D01*
X130300000Y-125880512D01*
X130639783Y-125880512D01*
X130681213Y-126160130D01*
X130776397Y-126426292D01*
X130843329Y-126551514D01*
X131087298Y-126623097D01*
X131900395Y-125810000D01*
X132259605Y-125810000D01*
X133072702Y-126623097D01*
X133316671Y-126551514D01*
X133437571Y-126296004D01*
X133506300Y-126021816D01*
X133520217Y-125739488D01*
X133478787Y-125459870D01*
X133383603Y-125193708D01*
X133316671Y-125068486D01*
X133072702Y-124996903D01*
X132259605Y-125810000D01*
X131900395Y-125810000D01*
X131087298Y-124996903D01*
X130843329Y-125068486D01*
X130722429Y-125323996D01*
X130653700Y-125598184D01*
X130639783Y-125880512D01*
X130300000Y-125880512D01*
X130300000Y-124182702D01*
X131266903Y-124182702D01*
X131338486Y-124426671D01*
X131488353Y-124497584D01*
X131463708Y-124506397D01*
X131338486Y-124573329D01*
X131266903Y-124817298D01*
X132080000Y-125630395D01*
X132893097Y-124817298D01*
X132821514Y-124573329D01*
X132671647Y-124502416D01*
X132696292Y-124493603D01*
X132821514Y-124426671D01*
X132893097Y-124182702D01*
X132080000Y-123369605D01*
X131266903Y-124182702D01*
X130300000Y-124182702D01*
X130300000Y-123260512D01*
X130639783Y-123260512D01*
X130681213Y-123540130D01*
X130776397Y-123806292D01*
X130843329Y-123931514D01*
X131087298Y-124003097D01*
X131900395Y-123190000D01*
X132259605Y-123190000D01*
X133072702Y-124003097D01*
X133316671Y-123931514D01*
X133437571Y-123676004D01*
X133506300Y-123401816D01*
X133520217Y-123119488D01*
X133509724Y-123048665D01*
X134455000Y-123048665D01*
X134455000Y-123331335D01*
X134510147Y-123608574D01*
X134618320Y-123869727D01*
X134775363Y-124104759D01*
X134975241Y-124304637D01*
X135207759Y-124460000D01*
X134975241Y-124615363D01*
X134775363Y-124815241D01*
X134618320Y-125050273D01*
X134510147Y-125311426D01*
X134455000Y-125588665D01*
X134455000Y-125871335D01*
X134510147Y-126148574D01*
X134618320Y-126409727D01*
X134775363Y-126644759D01*
X134975241Y-126844637D01*
X135210273Y-127001680D01*
X135471426Y-127109853D01*
X135748665Y-127165000D01*
X136031335Y-127165000D01*
X136308574Y-127109853D01*
X136569727Y-127001680D01*
X136804759Y-126844637D01*
X137004637Y-126644759D01*
X137161680Y-126409727D01*
X137269853Y-126148574D01*
X137325000Y-125871335D01*
X137325000Y-125588665D01*
X137269853Y-125311426D01*
X137161680Y-125050273D01*
X137004637Y-124815241D01*
X136804759Y-124615363D01*
X136572241Y-124460000D01*
X136804759Y-124304637D01*
X137004637Y-124104759D01*
X137161680Y-123869727D01*
X137269853Y-123608574D01*
X137325000Y-123331335D01*
X137325000Y-123048665D01*
X137269853Y-122771426D01*
X137161680Y-122510273D01*
X137004637Y-122275241D01*
X136804759Y-122075363D01*
X136569727Y-121918320D01*
X136308574Y-121810147D01*
X136031335Y-121755000D01*
X135748665Y-121755000D01*
X135471426Y-121810147D01*
X135210273Y-121918320D01*
X134975241Y-122075363D01*
X134775363Y-122275241D01*
X134618320Y-122510273D01*
X134510147Y-122771426D01*
X134455000Y-123048665D01*
X133509724Y-123048665D01*
X133478787Y-122839870D01*
X133383603Y-122573708D01*
X133316671Y-122448486D01*
X133072702Y-122376903D01*
X132259605Y-123190000D01*
X131900395Y-123190000D01*
X131087298Y-122376903D01*
X130843329Y-122448486D01*
X130722429Y-122703996D01*
X130653700Y-122978184D01*
X130639783Y-123260512D01*
X130300000Y-123260512D01*
X130300000Y-122197298D01*
X131266903Y-122197298D01*
X132080000Y-123010395D01*
X132893097Y-122197298D01*
X132821514Y-121953329D01*
X132566004Y-121832429D01*
X132291816Y-121763700D01*
X132009488Y-121749783D01*
X131729870Y-121791213D01*
X131463708Y-121886397D01*
X131338486Y-121953329D01*
X131266903Y-122197298D01*
X130300000Y-122197298D01*
X130300000Y-118048665D01*
X130645000Y-118048665D01*
X130645000Y-118331335D01*
X130700147Y-118608574D01*
X130808320Y-118869727D01*
X130965363Y-119104759D01*
X131165241Y-119304637D01*
X131400273Y-119461680D01*
X131661426Y-119569853D01*
X131938665Y-119625000D01*
X132221335Y-119625000D01*
X132498574Y-119569853D01*
X132759727Y-119461680D01*
X132994759Y-119304637D01*
X133194637Y-119104759D01*
X133351680Y-118869727D01*
X133459853Y-118608574D01*
X133515000Y-118331335D01*
X133515000Y-118048665D01*
X133459853Y-117771426D01*
X133351680Y-117510273D01*
X133194637Y-117275241D01*
X132994759Y-117075363D01*
X132759727Y-116918320D01*
X132498574Y-116810147D01*
X132221335Y-116755000D01*
X131938665Y-116755000D01*
X131661426Y-116810147D01*
X131400273Y-116918320D01*
X131165241Y-117075363D01*
X130965363Y-117275241D01*
X130808320Y-117510273D01*
X130700147Y-117771426D01*
X130645000Y-118048665D01*
X130300000Y-118048665D01*
X130300000Y-106994801D01*
X130443592Y-106851209D01*
X130663740Y-106895000D01*
X130956260Y-106895000D01*
X131243158Y-106837932D01*
X131513411Y-106725990D01*
X131756632Y-106563475D01*
X131963475Y-106356632D01*
X132080000Y-106182240D01*
X132196525Y-106356632D01*
X132403368Y-106563475D01*
X132586927Y-106686125D01*
X132590000Y-106717322D01*
X132590000Y-106717332D01*
X132600997Y-106828985D01*
X132621954Y-106898072D01*
X132644454Y-106972246D01*
X132715026Y-107104276D01*
X132754871Y-107152826D01*
X132809999Y-107220001D01*
X132839003Y-107243804D01*
X135326205Y-109731008D01*
X135349999Y-109760001D01*
X135378992Y-109783795D01*
X135378996Y-109783799D01*
X135449685Y-109841811D01*
X135465724Y-109854974D01*
X135597753Y-109925546D01*
X135741014Y-109969003D01*
X135852667Y-109980000D01*
X135852676Y-109980000D01*
X135889999Y-109983676D01*
X135927322Y-109980000D01*
X139723961Y-109980000D01*
X149172905Y-119428945D01*
X148969465Y-119564880D01*
X148774880Y-119759465D01*
X148621995Y-119988273D01*
X148590000Y-120065515D01*
X148558005Y-119988273D01*
X148405120Y-119759465D01*
X148210535Y-119564880D01*
X147981727Y-119411995D01*
X147727490Y-119306686D01*
X147457592Y-119253000D01*
X147182408Y-119253000D01*
X146912510Y-119306686D01*
X146658273Y-119411995D01*
X146429465Y-119564880D01*
X146234880Y-119759465D01*
X146098945Y-119962905D01*
X139190000Y-113053961D01*
X139190000Y-112463711D01*
X139233937Y-112419774D01*
X139347205Y-112250256D01*
X139425226Y-112061898D01*
X139465000Y-111861939D01*
X139465000Y-111658061D01*
X139425226Y-111458102D01*
X139347205Y-111269744D01*
X139233937Y-111100226D01*
X139089774Y-110956063D01*
X138920256Y-110842795D01*
X138731898Y-110764774D01*
X138531939Y-110725000D01*
X138328061Y-110725000D01*
X138128102Y-110764774D01*
X137939744Y-110842795D01*
X137770226Y-110956063D01*
X137626063Y-111100226D01*
X137512795Y-111269744D01*
X137434774Y-111458102D01*
X137395000Y-111658061D01*
X137395000Y-111861939D01*
X137434774Y-112061898D01*
X137512795Y-112250256D01*
X137626063Y-112419774D01*
X137670001Y-112463712D01*
X137670000Y-113331429D01*
X137670000Y-113331440D01*
X137666324Y-113368762D01*
X137670000Y-113406084D01*
X137670001Y-127955196D01*
X135575199Y-130050000D01*
X133298043Y-130050000D01*
X133194637Y-129895241D01*
X132994759Y-129695363D01*
X132759727Y-129538320D01*
X132498574Y-129430147D01*
X132221335Y-129375000D01*
X131938665Y-129375000D01*
X131661426Y-129430147D01*
X131400273Y-129538320D01*
X131165241Y-129695363D01*
X130965363Y-129895241D01*
X130808320Y-130130273D01*
X130700147Y-130391426D01*
X130645000Y-130668665D01*
X130645000Y-130951335D01*
X130700147Y-131228574D01*
X130808320Y-131489727D01*
X130965363Y-131724759D01*
X131165241Y-131924637D01*
X131400273Y-132081680D01*
X131661426Y-132189853D01*
X131938665Y-132245000D01*
X132221335Y-132245000D01*
X132498574Y-132189853D01*
X132759727Y-132081680D01*
X132994759Y-131924637D01*
X133194637Y-131724759D01*
X133298043Y-131570000D01*
X135852678Y-131570000D01*
X135890000Y-131573676D01*
X135927322Y-131570000D01*
X135927333Y-131570000D01*
X136038986Y-131559003D01*
X136182247Y-131515546D01*
X136314276Y-131444974D01*
X136430001Y-131350001D01*
X136453804Y-131320997D01*
X138539237Y-129235565D01*
X146534040Y-129235565D01*
X146601020Y-129475656D01*
X146850048Y-129592756D01*
X147117135Y-129659023D01*
X147392017Y-129671910D01*
X147664133Y-129630922D01*
X147923023Y-129537636D01*
X148038980Y-129475656D01*
X148105960Y-129235565D01*
X147320000Y-128449605D01*
X146534040Y-129235565D01*
X138539237Y-129235565D01*
X138941008Y-128833795D01*
X138970001Y-128810001D01*
X138993795Y-128781008D01*
X138993799Y-128781004D01*
X139064973Y-128694277D01*
X139073946Y-128677490D01*
X139135546Y-128562247D01*
X139179003Y-128418986D01*
X139186583Y-128342017D01*
X145918090Y-128342017D01*
X145959078Y-128614133D01*
X146052364Y-128873023D01*
X146114344Y-128988980D01*
X146354435Y-129055960D01*
X147140395Y-128270000D01*
X146354435Y-127484040D01*
X146114344Y-127551020D01*
X145997244Y-127800048D01*
X145930977Y-128067135D01*
X145918090Y-128342017D01*
X139186583Y-128342017D01*
X139190000Y-128307333D01*
X139190000Y-128307324D01*
X139193676Y-128270001D01*
X139190000Y-128232678D01*
X139190000Y-123048665D01*
X142075000Y-123048665D01*
X142075000Y-123331335D01*
X142130147Y-123608574D01*
X142238320Y-123869727D01*
X142395363Y-124104759D01*
X142595241Y-124304637D01*
X142827759Y-124460000D01*
X142595241Y-124615363D01*
X142395363Y-124815241D01*
X142238320Y-125050273D01*
X142130147Y-125311426D01*
X142075000Y-125588665D01*
X142075000Y-125871335D01*
X142130147Y-126148574D01*
X142238320Y-126409727D01*
X142395363Y-126644759D01*
X142595241Y-126844637D01*
X142830273Y-127001680D01*
X143091426Y-127109853D01*
X143368665Y-127165000D01*
X143651335Y-127165000D01*
X143928574Y-127109853D01*
X144189727Y-127001680D01*
X144424759Y-126844637D01*
X144624637Y-126644759D01*
X144781680Y-126409727D01*
X144889853Y-126148574D01*
X144945000Y-125871335D01*
X144945000Y-125588665D01*
X144889853Y-125311426D01*
X144781680Y-125050273D01*
X144624637Y-124815241D01*
X144424759Y-124615363D01*
X144192241Y-124460000D01*
X144424759Y-124304637D01*
X144624637Y-124104759D01*
X144781680Y-123869727D01*
X144889853Y-123608574D01*
X144945000Y-123331335D01*
X144945000Y-123048665D01*
X144889853Y-122771426D01*
X144781680Y-122510273D01*
X144624637Y-122275241D01*
X144424759Y-122075363D01*
X144189727Y-121918320D01*
X143928574Y-121810147D01*
X143651335Y-121755000D01*
X143368665Y-121755000D01*
X143091426Y-121810147D01*
X142830273Y-121918320D01*
X142595241Y-122075363D01*
X142395363Y-122275241D01*
X142238320Y-122510273D01*
X142130147Y-122771426D01*
X142075000Y-123048665D01*
X139190000Y-123048665D01*
X139190000Y-115203563D01*
X146260390Y-122273955D01*
X146234880Y-122299465D01*
X146081995Y-122528273D01*
X145976686Y-122782510D01*
X145923000Y-123052408D01*
X145923000Y-123327592D01*
X145976686Y-123597490D01*
X146081995Y-123851727D01*
X146234880Y-124080535D01*
X146429465Y-124275120D01*
X146658273Y-124428005D01*
X146735515Y-124460000D01*
X146658273Y-124491995D01*
X146429465Y-124644880D01*
X146234880Y-124839465D01*
X146081995Y-125068273D01*
X145976686Y-125322510D01*
X145923000Y-125592408D01*
X145923000Y-125867592D01*
X145976686Y-126137490D01*
X146081995Y-126391727D01*
X146234880Y-126620535D01*
X146429465Y-126815120D01*
X146658273Y-126968005D01*
X146729943Y-126997692D01*
X146716977Y-127002364D01*
X146601020Y-127064344D01*
X146534040Y-127304435D01*
X147320000Y-128090395D01*
X148105960Y-127304435D01*
X148038980Y-127064344D01*
X147903240Y-127000515D01*
X147981727Y-126968005D01*
X148210535Y-126815120D01*
X148405120Y-126620535D01*
X148558005Y-126391727D01*
X148590000Y-126314485D01*
X148621995Y-126391727D01*
X148774880Y-126620535D01*
X148969465Y-126815120D01*
X149198273Y-126968005D01*
X149275515Y-127000000D01*
X149198273Y-127031995D01*
X148969465Y-127184880D01*
X148774880Y-127379465D01*
X148621995Y-127608273D01*
X148592308Y-127679943D01*
X148587636Y-127666977D01*
X148525656Y-127551020D01*
X148285565Y-127484040D01*
X147499605Y-128270000D01*
X148285565Y-129055960D01*
X148525656Y-128988980D01*
X148589485Y-128853240D01*
X148621995Y-128931727D01*
X148774880Y-129160535D01*
X148969465Y-129355120D01*
X149198273Y-129508005D01*
X149452510Y-129613314D01*
X149722408Y-129667000D01*
X149997592Y-129667000D01*
X150267490Y-129613314D01*
X150521727Y-129508005D01*
X150750535Y-129355120D01*
X150945120Y-129160535D01*
X151098005Y-128931727D01*
X151203314Y-128677490D01*
X151257000Y-128407592D01*
X151257000Y-128132408D01*
X151203314Y-127862510D01*
X151098005Y-127608273D01*
X150945120Y-127379465D01*
X150750535Y-127184880D01*
X150521727Y-127031995D01*
X150444485Y-127000000D01*
X150521727Y-126968005D01*
X150750535Y-126815120D01*
X150945120Y-126620535D01*
X151098005Y-126391727D01*
X151203314Y-126137490D01*
X151257000Y-125867592D01*
X151257000Y-125592408D01*
X151226372Y-125438430D01*
X151458005Y-125206797D01*
X151487002Y-125183000D01*
X151581975Y-125067275D01*
X151652547Y-124935246D01*
X151696004Y-124791985D01*
X151707001Y-124680332D01*
X151707001Y-124680331D01*
X151710678Y-124642999D01*
X151707001Y-124605666D01*
X151707001Y-120165572D01*
X151710678Y-120128239D01*
X151696004Y-119979253D01*
X151652547Y-119835992D01*
X151581975Y-119703963D01*
X151510800Y-119617236D01*
X151487002Y-119588238D01*
X151458004Y-119564440D01*
X147322229Y-115428665D01*
X152235000Y-115428665D01*
X152235000Y-115711335D01*
X152290147Y-115988574D01*
X152398320Y-116249727D01*
X152555363Y-116484759D01*
X152755241Y-116684637D01*
X152990273Y-116841680D01*
X153251426Y-116949853D01*
X153528665Y-117005000D01*
X153811335Y-117005000D01*
X154088574Y-116949853D01*
X154349727Y-116841680D01*
X154584759Y-116684637D01*
X154784637Y-116484759D01*
X154941680Y-116249727D01*
X155049853Y-115988574D01*
X155105000Y-115711335D01*
X155105000Y-115428665D01*
X155049853Y-115151426D01*
X154941680Y-114890273D01*
X154784637Y-114655241D01*
X154584759Y-114455363D01*
X154349727Y-114298320D01*
X154088574Y-114190147D01*
X153811335Y-114135000D01*
X153528665Y-114135000D01*
X153251426Y-114190147D01*
X152990273Y-114298320D01*
X152755241Y-114455363D01*
X152555363Y-114655241D01*
X152398320Y-114890273D01*
X152290147Y-115151426D01*
X152235000Y-115428665D01*
X147322229Y-115428665D01*
X140602566Y-108709003D01*
X140578763Y-108679999D01*
X140463038Y-108585026D01*
X140331009Y-108514454D01*
X140187748Y-108470997D01*
X140076095Y-108460000D01*
X140076084Y-108460000D01*
X140038762Y-108456324D01*
X140001440Y-108460000D01*
X136204803Y-108460000D01*
X134302454Y-106557653D01*
X134503475Y-106356632D01*
X134620000Y-106182240D01*
X134736525Y-106356632D01*
X134943368Y-106563475D01*
X135186589Y-106725990D01*
X135456842Y-106837932D01*
X135743740Y-106895000D01*
X136036260Y-106895000D01*
X136323158Y-106837932D01*
X136593411Y-106725990D01*
X136836632Y-106563475D01*
X136968487Y-106431620D01*
X136990498Y-106504180D01*
X137049463Y-106614494D01*
X137128815Y-106711185D01*
X137225506Y-106790537D01*
X137335820Y-106849502D01*
X137455518Y-106885812D01*
X137580000Y-106898072D01*
X139280000Y-106898072D01*
X139404482Y-106885812D01*
X139524180Y-106849502D01*
X139634494Y-106790537D01*
X139731185Y-106711185D01*
X139810537Y-106614494D01*
X139869502Y-106504180D01*
X139905812Y-106384482D01*
X139918072Y-106260000D01*
X139918072Y-104560000D01*
X139905812Y-104435518D01*
X139869502Y-104315820D01*
X139810537Y-104205506D01*
X139731185Y-104108815D01*
X139634494Y-104029463D01*
X139524180Y-103970498D01*
X139404482Y-103934188D01*
X139280000Y-103921928D01*
X137580000Y-103921928D01*
X137455518Y-103934188D01*
X137335820Y-103970498D01*
X137225506Y-104029463D01*
X137128815Y-104108815D01*
X137049463Y-104205506D01*
X136990498Y-104315820D01*
X136968487Y-104388380D01*
X136836632Y-104256525D01*
X136593411Y-104094010D01*
X136323158Y-103982068D01*
X136036260Y-103925000D01*
X135743740Y-103925000D01*
X135456842Y-103982068D01*
X135186589Y-104094010D01*
X134943368Y-104256525D01*
X134736525Y-104463368D01*
X134620000Y-104637760D01*
X134503475Y-104463368D01*
X134296632Y-104256525D01*
X134053411Y-104094010D01*
X133783158Y-103982068D01*
X133496260Y-103925000D01*
X133203740Y-103925000D01*
X132916842Y-103982068D01*
X132646589Y-104094010D01*
X132403368Y-104256525D01*
X132196525Y-104463368D01*
X132080000Y-104637760D01*
X131963475Y-104463368D01*
X131756632Y-104256525D01*
X131513411Y-104094010D01*
X131243158Y-103982068D01*
X130956260Y-103925000D01*
X130663740Y-103925000D01*
X130376842Y-103982068D01*
X130106589Y-104094010D01*
X129863368Y-104256525D01*
X129656525Y-104463368D01*
X129540000Y-104637760D01*
X129423475Y-104463368D01*
X129216632Y-104256525D01*
X128973411Y-104094010D01*
X128703158Y-103982068D01*
X128416260Y-103925000D01*
X128123740Y-103925000D01*
X127836842Y-103982068D01*
X127566589Y-104094010D01*
X127323368Y-104256525D01*
X127116525Y-104463368D01*
X127000000Y-104637760D01*
X126883475Y-104463368D01*
X126676632Y-104256525D01*
X126433411Y-104094010D01*
X126163158Y-103982068D01*
X125876260Y-103925000D01*
X125583740Y-103925000D01*
X125296842Y-103982068D01*
X125026589Y-104094010D01*
X124783368Y-104256525D01*
X124576525Y-104463368D01*
X124460000Y-104637760D01*
X124343475Y-104463368D01*
X124136632Y-104256525D01*
X123893411Y-104094010D01*
X123623158Y-103982068D01*
X123336260Y-103925000D01*
X123043740Y-103925000D01*
X122756842Y-103982068D01*
X122486589Y-104094010D01*
X122243368Y-104256525D01*
X122036525Y-104463368D01*
X121914805Y-104645534D01*
X121845178Y-104528645D01*
X121650269Y-104312412D01*
X121416920Y-104138359D01*
X121154099Y-104013175D01*
X121006890Y-103968524D01*
X120777000Y-104089845D01*
X120777000Y-105283000D01*
X120797000Y-105283000D01*
X120797000Y-105537000D01*
X120777000Y-105537000D01*
X120777000Y-106730155D01*
X121006890Y-106851476D01*
X121154099Y-106806825D01*
X121416920Y-106681641D01*
X121650269Y-106507588D01*
X121845178Y-106291355D01*
X121914805Y-106174466D01*
X122036525Y-106356632D01*
X122243368Y-106563475D01*
X122486589Y-106725990D01*
X122756842Y-106837932D01*
X123043740Y-106895000D01*
X123336260Y-106895000D01*
X123623158Y-106837932D01*
X123893411Y-106725990D01*
X124136632Y-106563475D01*
X124343475Y-106356632D01*
X124460000Y-106182240D01*
X124576525Y-106356632D01*
X124783368Y-106563475D01*
X125026589Y-106725990D01*
X125296842Y-106837932D01*
X125583740Y-106895000D01*
X125876260Y-106895000D01*
X126163158Y-106837932D01*
X126433411Y-106725990D01*
X126676632Y-106563475D01*
X126883475Y-106356632D01*
X127000000Y-106182240D01*
X127116525Y-106356632D01*
X127323368Y-106563475D01*
X127566589Y-106725990D01*
X127836842Y-106837932D01*
X128123740Y-106895000D01*
X128416260Y-106895000D01*
X128703158Y-106837932D01*
X128780000Y-106806103D01*
X128780001Y-132042667D01*
X128776324Y-132080000D01*
X128780001Y-132117333D01*
X128790998Y-132228986D01*
X128794813Y-132241563D01*
X128834454Y-132372246D01*
X128905026Y-132504276D01*
X128972362Y-132586324D01*
X129000000Y-132620001D01*
X129028998Y-132643799D01*
X129608199Y-133223000D01*
X114427000Y-133223000D01*
X114427000Y-130648967D01*
X115055000Y-130648967D01*
X115055000Y-130971033D01*
X115117832Y-131286912D01*
X115241082Y-131584463D01*
X115420013Y-131852252D01*
X115647748Y-132079987D01*
X115915537Y-132258918D01*
X116213088Y-132382168D01*
X116528967Y-132445000D01*
X116851033Y-132445000D01*
X117166912Y-132382168D01*
X117464463Y-132258918D01*
X117732252Y-132079987D01*
X117959987Y-131852252D01*
X118138918Y-131584463D01*
X118262168Y-131286912D01*
X118325000Y-130971033D01*
X118325000Y-130648967D01*
X121555000Y-130648967D01*
X121555000Y-130971033D01*
X121617832Y-131286912D01*
X121741082Y-131584463D01*
X121920013Y-131852252D01*
X122147748Y-132079987D01*
X122415537Y-132258918D01*
X122713088Y-132382168D01*
X123028967Y-132445000D01*
X123351033Y-132445000D01*
X123666912Y-132382168D01*
X123964463Y-132258918D01*
X124232252Y-132079987D01*
X124459987Y-131852252D01*
X124638918Y-131584463D01*
X124762168Y-131286912D01*
X124825000Y-130971033D01*
X124825000Y-130648967D01*
X124762168Y-130333088D01*
X124638918Y-130035537D01*
X124459987Y-129767748D01*
X124232252Y-129540013D01*
X123964463Y-129361082D01*
X123666912Y-129237832D01*
X123351033Y-129175000D01*
X123028967Y-129175000D01*
X122713088Y-129237832D01*
X122415537Y-129361082D01*
X122147748Y-129540013D01*
X121920013Y-129767748D01*
X121741082Y-130035537D01*
X121617832Y-130333088D01*
X121555000Y-130648967D01*
X118325000Y-130648967D01*
X118262168Y-130333088D01*
X118138918Y-130035537D01*
X117959987Y-129767748D01*
X117732252Y-129540013D01*
X117464463Y-129361082D01*
X117166912Y-129237832D01*
X116851033Y-129175000D01*
X116528967Y-129175000D01*
X116213088Y-129237832D01*
X115915537Y-129361082D01*
X115647748Y-129540013D01*
X115420013Y-129767748D01*
X115241082Y-130035537D01*
X115117832Y-130333088D01*
X115055000Y-130648967D01*
X114427000Y-130648967D01*
X114427000Y-127445413D01*
X115734192Y-127445413D01*
X115829956Y-127709814D01*
X116119571Y-127850704D01*
X116431108Y-127932384D01*
X116752595Y-127951718D01*
X117071675Y-127907961D01*
X117376088Y-127802795D01*
X117550044Y-127709814D01*
X117645808Y-127445413D01*
X122234192Y-127445413D01*
X122329956Y-127709814D01*
X122619571Y-127850704D01*
X122931108Y-127932384D01*
X123252595Y-127951718D01*
X123571675Y-127907961D01*
X123876088Y-127802795D01*
X124050044Y-127709814D01*
X124145808Y-127445413D01*
X123190000Y-126489605D01*
X122234192Y-127445413D01*
X117645808Y-127445413D01*
X116690000Y-126489605D01*
X115734192Y-127445413D01*
X114427000Y-127445413D01*
X114427000Y-126372595D01*
X115048282Y-126372595D01*
X115092039Y-126691675D01*
X115197205Y-126996088D01*
X115290186Y-127170044D01*
X115554587Y-127265808D01*
X116510395Y-126310000D01*
X116869605Y-126310000D01*
X117825413Y-127265808D01*
X118089814Y-127170044D01*
X118230704Y-126880429D01*
X118312384Y-126568892D01*
X118324189Y-126372595D01*
X121548282Y-126372595D01*
X121592039Y-126691675D01*
X121697205Y-126996088D01*
X121790186Y-127170044D01*
X122054587Y-127265808D01*
X123010395Y-126310000D01*
X123369605Y-126310000D01*
X124325413Y-127265808D01*
X124589814Y-127170044D01*
X124730704Y-126880429D01*
X124812384Y-126568892D01*
X124831718Y-126247405D01*
X124787961Y-125928325D01*
X124682795Y-125623912D01*
X124589814Y-125449956D01*
X124325413Y-125354192D01*
X123369605Y-126310000D01*
X123010395Y-126310000D01*
X122054587Y-125354192D01*
X121790186Y-125449956D01*
X121649296Y-125739571D01*
X121567616Y-126051108D01*
X121548282Y-126372595D01*
X118324189Y-126372595D01*
X118331718Y-126247405D01*
X118287961Y-125928325D01*
X118182795Y-125623912D01*
X118089814Y-125449956D01*
X117825413Y-125354192D01*
X116869605Y-126310000D01*
X116510395Y-126310000D01*
X115554587Y-125354192D01*
X115290186Y-125449956D01*
X115149296Y-125739571D01*
X115067616Y-126051108D01*
X115048282Y-126372595D01*
X114427000Y-126372595D01*
X114427000Y-125174587D01*
X115734192Y-125174587D01*
X116690000Y-126130395D01*
X117645808Y-125174587D01*
X122234192Y-125174587D01*
X123190000Y-126130395D01*
X124145808Y-125174587D01*
X124050044Y-124910186D01*
X123760429Y-124769296D01*
X123448892Y-124687616D01*
X123127405Y-124668282D01*
X122808325Y-124712039D01*
X122503912Y-124817205D01*
X122329956Y-124910186D01*
X122234192Y-125174587D01*
X117645808Y-125174587D01*
X117550044Y-124910186D01*
X117260429Y-124769296D01*
X116948892Y-124687616D01*
X116627405Y-124668282D01*
X116308325Y-124712039D01*
X116003912Y-124817205D01*
X115829956Y-124910186D01*
X115734192Y-125174587D01*
X114427000Y-125174587D01*
X114427000Y-121676934D01*
X114516137Y-121892130D01*
X114803117Y-122321626D01*
X115168374Y-122686883D01*
X115597870Y-122973863D01*
X116075100Y-123171538D01*
X116581725Y-123272312D01*
X117098275Y-123272312D01*
X117604900Y-123171538D01*
X118082130Y-122973863D01*
X118511626Y-122686883D01*
X118825807Y-122372702D01*
X122376903Y-122372702D01*
X122448486Y-122616671D01*
X122703996Y-122737571D01*
X122978184Y-122806300D01*
X123260512Y-122820217D01*
X123540130Y-122778787D01*
X123806292Y-122683603D01*
X123931514Y-122616671D01*
X124003097Y-122372702D01*
X123190000Y-121559605D01*
X122376903Y-122372702D01*
X118825807Y-122372702D01*
X118876883Y-122321626D01*
X119163863Y-121892130D01*
X119346787Y-121450512D01*
X121749783Y-121450512D01*
X121791213Y-121730130D01*
X121886397Y-121996292D01*
X121953329Y-122121514D01*
X122197298Y-122193097D01*
X123010395Y-121380000D01*
X122996253Y-121365858D01*
X123175858Y-121186253D01*
X123190000Y-121200395D01*
X123204143Y-121186253D01*
X123383748Y-121365858D01*
X123369605Y-121380000D01*
X124182702Y-122193097D01*
X124426671Y-122121514D01*
X124547571Y-121866004D01*
X124616300Y-121591816D01*
X124630217Y-121309488D01*
X124588787Y-121029870D01*
X124493603Y-120763708D01*
X124428384Y-120641691D01*
X124441185Y-120631185D01*
X124520537Y-120534494D01*
X124579502Y-120424180D01*
X124615812Y-120304482D01*
X124628072Y-120180000D01*
X124628072Y-118580000D01*
X124615812Y-118455518D01*
X124579502Y-118335820D01*
X124520537Y-118225506D01*
X124441185Y-118128815D01*
X124344494Y-118049463D01*
X124234180Y-117990498D01*
X124114482Y-117954188D01*
X123990000Y-117941928D01*
X122390000Y-117941928D01*
X122265518Y-117954188D01*
X122145820Y-117990498D01*
X122035506Y-118049463D01*
X121938815Y-118128815D01*
X121859463Y-118225506D01*
X121800498Y-118335820D01*
X121764188Y-118455518D01*
X121751928Y-118580000D01*
X121751928Y-120180000D01*
X121764188Y-120304482D01*
X121800498Y-120424180D01*
X121859463Y-120534494D01*
X121938815Y-120631185D01*
X121951758Y-120641807D01*
X121832429Y-120893996D01*
X121763700Y-121168184D01*
X121749783Y-121450512D01*
X119346787Y-121450512D01*
X119361538Y-121414900D01*
X119462312Y-120908275D01*
X119462312Y-120391725D01*
X119361538Y-119885100D01*
X119163863Y-119407870D01*
X118876883Y-118978374D01*
X118511626Y-118613117D01*
X118082130Y-118326137D01*
X117604900Y-118128462D01*
X117098275Y-118027688D01*
X116581725Y-118027688D01*
X116075100Y-118128462D01*
X115597870Y-118326137D01*
X115168374Y-118613117D01*
X114803117Y-118978374D01*
X114516137Y-119407870D01*
X114427000Y-119623066D01*
X114427000Y-114521653D01*
X116797952Y-114521653D01*
X116953962Y-114837214D01*
X117328745Y-115028020D01*
X117733551Y-115142044D01*
X118152824Y-115174902D01*
X118570451Y-115125334D01*
X118970383Y-114995243D01*
X119266038Y-114837214D01*
X119422048Y-114521653D01*
X118110000Y-113209605D01*
X116797952Y-114521653D01*
X114427000Y-114521653D01*
X114427000Y-113072824D01*
X115965098Y-113072824D01*
X116014666Y-113490451D01*
X116144757Y-113890383D01*
X116302786Y-114186038D01*
X116618347Y-114342048D01*
X117930395Y-113030000D01*
X118289605Y-113030000D01*
X119601653Y-114342048D01*
X119917214Y-114186038D01*
X120108020Y-113811255D01*
X120222044Y-113406449D01*
X120254902Y-112987176D01*
X120205334Y-112569549D01*
X120075243Y-112169617D01*
X119917214Y-111873962D01*
X119601653Y-111717952D01*
X118289605Y-113030000D01*
X117930395Y-113030000D01*
X116618347Y-111717952D01*
X116302786Y-111873962D01*
X116111980Y-112248745D01*
X115997956Y-112653551D01*
X115965098Y-113072824D01*
X114427000Y-113072824D01*
X114427000Y-111538347D01*
X116797952Y-111538347D01*
X118110000Y-112850395D01*
X119422048Y-111538347D01*
X119266038Y-111222786D01*
X118891255Y-111031980D01*
X118486449Y-110917956D01*
X118067176Y-110885098D01*
X117649549Y-110934666D01*
X117249617Y-111064757D01*
X116953962Y-111222786D01*
X116797952Y-111538347D01*
X114427000Y-111538347D01*
X114427000Y-105766891D01*
X119208519Y-105766891D01*
X119305843Y-106041252D01*
X119454822Y-106291355D01*
X119649731Y-106507588D01*
X119883080Y-106681641D01*
X120145901Y-106806825D01*
X120293110Y-106851476D01*
X120523000Y-106730155D01*
X120523000Y-105537000D01*
X119329186Y-105537000D01*
X119208519Y-105766891D01*
X114427000Y-105766891D01*
X114427000Y-105053109D01*
X119208519Y-105053109D01*
X119329186Y-105283000D01*
X120523000Y-105283000D01*
X120523000Y-104089845D01*
X120293110Y-103968524D01*
X120145901Y-104013175D01*
X119883080Y-104138359D01*
X119649731Y-104312412D01*
X119454822Y-104528645D01*
X119305843Y-104778748D01*
X119208519Y-105053109D01*
X114427000Y-105053109D01*
X114427000Y-97579721D01*
X115975000Y-97579721D01*
X115975000Y-98000279D01*
X116057047Y-98412756D01*
X116217988Y-98801302D01*
X116451637Y-99150983D01*
X116749017Y-99448363D01*
X117098698Y-99682012D01*
X117487244Y-99842953D01*
X117899721Y-99925000D01*
X118320279Y-99925000D01*
X118732756Y-99842953D01*
X119121302Y-99682012D01*
X119470983Y-99448363D01*
X119768363Y-99150983D01*
X120002012Y-98801302D01*
X120162953Y-98412756D01*
X120245000Y-98000279D01*
X120245000Y-97579721D01*
X120162953Y-97167244D01*
X120002012Y-96778698D01*
X119768363Y-96429017D01*
X119470983Y-96131637D01*
X119121302Y-95897988D01*
X118732756Y-95737047D01*
X118320279Y-95655000D01*
X117899721Y-95655000D01*
X117487244Y-95737047D01*
X117098698Y-95897988D01*
X116749017Y-96131637D01*
X116451637Y-96429017D01*
X116217988Y-96778698D01*
X116057047Y-97167244D01*
X115975000Y-97579721D01*
X114427000Y-97579721D01*
X114427000Y-94107000D01*
X146691604Y-94107000D01*
X146283453Y-94325161D01*
G37*
%TD.AperFunction*%
%TD*%
M02*
