%TF.GenerationSoftware,KiCad,Pcbnew,(5.1.7)-1*%
%TF.CreationDate,2020-12-05T19:57:28+01:00*%
%TF.ProjectId,WiFi-RC-Switch-Programmer,57694669-2d52-4432-9d53-77697463682d,rev?*%
%TF.SameCoordinates,Original*%
%TF.FileFunction,Copper,L2,Bot*%
%TF.FilePolarity,Positive*%
%FSLAX46Y46*%
G04 Gerber Fmt 4.6, Leading zero omitted, Abs format (unit mm)*
G04 Created by KiCad (PCBNEW (5.1.7)-1) date 2020-12-05 19:57:28*
%MOMM*%
%LPD*%
G01*
G04 APERTURE LIST*
%TA.AperFunction,ComponentPad*%
%ADD10C,1.600000*%
%TD*%
%TA.AperFunction,ComponentPad*%
%ADD11R,1.800000X1.800000*%
%TD*%
%TA.AperFunction,ComponentPad*%
%ADD12C,1.800000*%
%TD*%
%TA.AperFunction,ComponentPad*%
%ADD13C,0.900000*%
%TD*%
%TA.AperFunction,ComponentPad*%
%ADD14O,2.300000X1.200000*%
%TD*%
%TA.AperFunction,ComponentPad*%
%ADD15R,1.700000X1.700000*%
%TD*%
%TA.AperFunction,ComponentPad*%
%ADD16O,1.700000X1.700000*%
%TD*%
%TA.AperFunction,ComponentPad*%
%ADD17C,1.500000*%
%TD*%
%TA.AperFunction,ViaPad*%
%ADD18C,0.800000*%
%TD*%
%TA.AperFunction,Conductor*%
%ADD19C,0.250000*%
%TD*%
%TA.AperFunction,Conductor*%
%ADD20C,0.254000*%
%TD*%
%TA.AperFunction,Conductor*%
%ADD21C,0.100000*%
%TD*%
G04 APERTURE END LIST*
D10*
%TO.P,C1,2*%
%TO.N,GND*%
X133350000Y-105490000D03*
%TO.P,C1,1*%
%TO.N,VBUS*%
X133350000Y-110490000D03*
%TD*%
%TO.P,C2,1*%
%TO.N,+3V3*%
X139700000Y-97790000D03*
%TO.P,C2,2*%
%TO.N,GND*%
X139700000Y-102790000D03*
%TD*%
%TO.P,C3,2*%
%TO.N,GND*%
X130810000Y-97790000D03*
%TO.P,C3,1*%
%TO.N,Net-(C3-Pad1)*%
X130810000Y-100290000D03*
%TD*%
%TO.P,C4,1*%
%TO.N,Net-(C4-Pad1)*%
X130810000Y-92710000D03*
%TO.P,C4,2*%
%TO.N,GND*%
X130810000Y-95210000D03*
%TD*%
%TO.P,C5,1*%
%TO.N,Net-(C5-Pad1)*%
X129540000Y-102950000D03*
%TO.P,C5,2*%
%TO.N,GND*%
X129540000Y-107950000D03*
%TD*%
D11*
%TO.P,D1,1*%
%TO.N,GND*%
X147320000Y-93980000D03*
D12*
%TO.P,D1,2*%
%TO.N,Net-(D1-Pad2)*%
X149860000Y-93980000D03*
%TD*%
%TO.P,D2,2*%
%TO.N,Net-(D2-Pad2)*%
X149860000Y-101600000D03*
D11*
%TO.P,D2,1*%
%TO.N,GND*%
X147320000Y-101600000D03*
%TD*%
%TO.P,D3,1*%
%TO.N,GND*%
X147320000Y-109220000D03*
D12*
%TO.P,D3,2*%
%TO.N,Net-(D3-Pad2)*%
X149860000Y-109220000D03*
%TD*%
D13*
%TO.P,J1,3*%
%TO.N,D+*%
X116840000Y-101600000D03*
%TO.P,J1,1*%
%TO.N,VBUS*%
X116840000Y-100000000D03*
%TO.P,J1,2*%
%TO.N,D-*%
X115640000Y-100800000D03*
%TO.P,J1,4*%
%TO.N,Net-(J1-Pad4)*%
X115640000Y-102400000D03*
%TO.P,J1,5*%
%TO.N,GND*%
X116840000Y-103200000D03*
D14*
%TO.P,J1,6*%
%TO.N,Net-(J1-Pad6)*%
X115940000Y-105300000D03*
X115940000Y-97900000D03*
X111240000Y-97900000D03*
X111240000Y-105300000D03*
%TD*%
D15*
%TO.P,J2,1*%
%TO.N,Net-(J2-Pad1)*%
X161290000Y-92710000D03*
D16*
%TO.P,J2,2*%
%TO.N,Net-(J2-Pad2)*%
X161290000Y-95250000D03*
%TO.P,J2,3*%
%TO.N,Net-(J2-Pad3)*%
X161290000Y-97790000D03*
%TO.P,J2,4*%
%TO.N,Net-(J2-Pad4)*%
X161290000Y-100330000D03*
%TO.P,J2,5*%
%TO.N,Net-(J2-Pad5)*%
X161290000Y-102870000D03*
%TO.P,J2,6*%
%TO.N,Net-(J2-Pad6)*%
X161290000Y-105410000D03*
%TO.P,J2,7*%
%TO.N,Net-(J2-Pad7)*%
X161290000Y-107950000D03*
%TO.P,J2,8*%
%TO.N,Net-(J2-Pad8)*%
X161290000Y-110490000D03*
%TD*%
D17*
%TO.P,Y1,1*%
%TO.N,Net-(C4-Pad1)*%
X134620000Y-93980000D03*
%TO.P,Y1,2*%
%TO.N,Net-(C3-Pad1)*%
X134620000Y-98860000D03*
%TD*%
D18*
%TO.N,RTS*%
X153670000Y-96520000D03*
%TO.N,DTR*%
X152400000Y-105410000D03*
%TO.N,RTS*%
X124460000Y-102870000D03*
%TO.N,DTR*%
X124460000Y-104140000D03*
%TO.N,+3V3*%
X143510000Y-100330000D03*
X143510000Y-102870000D03*
%TO.N,VBUS*%
X118110000Y-99060000D03*
X119380000Y-102870000D03*
%TD*%
D19*
%TO.N,VBUS*%
X118110000Y-101600000D02*
X119380000Y-102870000D01*
X118110000Y-99060000D02*
X118110000Y-101600000D01*
%TO.N,+3V3*%
X143510000Y-100330000D02*
X143510000Y-102870000D01*
%TO.N,DTR*%
X151130000Y-104140000D02*
X152400000Y-105410000D01*
X124460000Y-104140000D02*
X151130000Y-104140000D01*
%TO.N,RTS*%
X125665001Y-101664999D02*
X138365001Y-101664999D01*
X124460000Y-102870000D02*
X125665001Y-101664999D01*
X143510000Y-96520000D02*
X153670000Y-96520000D01*
X138365001Y-101664999D02*
X143510000Y-96520000D01*
%TD*%
D20*
%TO.N,GND*%
X159850498Y-91615820D02*
X159814188Y-91735518D01*
X159801928Y-91860000D01*
X159801928Y-93560000D01*
X159814188Y-93684482D01*
X159850498Y-93804180D01*
X159909463Y-93914494D01*
X159988815Y-94011185D01*
X160085506Y-94090537D01*
X160195820Y-94149502D01*
X160268380Y-94171513D01*
X160136525Y-94303368D01*
X159974010Y-94546589D01*
X159862068Y-94816842D01*
X159805000Y-95103740D01*
X159805000Y-95396260D01*
X159862068Y-95683158D01*
X159974010Y-95953411D01*
X160136525Y-96196632D01*
X160343368Y-96403475D01*
X160517760Y-96520000D01*
X160343368Y-96636525D01*
X160136525Y-96843368D01*
X159974010Y-97086589D01*
X159862068Y-97356842D01*
X159805000Y-97643740D01*
X159805000Y-97936260D01*
X159862068Y-98223158D01*
X159974010Y-98493411D01*
X160136525Y-98736632D01*
X160343368Y-98943475D01*
X160517760Y-99060000D01*
X160343368Y-99176525D01*
X160136525Y-99383368D01*
X159974010Y-99626589D01*
X159862068Y-99896842D01*
X159805000Y-100183740D01*
X159805000Y-100476260D01*
X159862068Y-100763158D01*
X159974010Y-101033411D01*
X160136525Y-101276632D01*
X160343368Y-101483475D01*
X160517760Y-101600000D01*
X160343368Y-101716525D01*
X160136525Y-101923368D01*
X159974010Y-102166589D01*
X159862068Y-102436842D01*
X159805000Y-102723740D01*
X159805000Y-103016260D01*
X159862068Y-103303158D01*
X159974010Y-103573411D01*
X160136525Y-103816632D01*
X160343368Y-104023475D01*
X160517760Y-104140000D01*
X160343368Y-104256525D01*
X160136525Y-104463368D01*
X159974010Y-104706589D01*
X159862068Y-104976842D01*
X159805000Y-105263740D01*
X159805000Y-105556260D01*
X159862068Y-105843158D01*
X159974010Y-106113411D01*
X160136525Y-106356632D01*
X160343368Y-106563475D01*
X160517760Y-106680000D01*
X160343368Y-106796525D01*
X160136525Y-107003368D01*
X159974010Y-107246589D01*
X159862068Y-107516842D01*
X159805000Y-107803740D01*
X159805000Y-108096260D01*
X159862068Y-108383158D01*
X159974010Y-108653411D01*
X160136525Y-108896632D01*
X160343368Y-109103475D01*
X160517760Y-109220000D01*
X160343368Y-109336525D01*
X160136525Y-109543368D01*
X159974010Y-109786589D01*
X159862068Y-110056842D01*
X159805000Y-110343740D01*
X159805000Y-110636260D01*
X159862068Y-110923158D01*
X159974010Y-111193411D01*
X160136525Y-111436632D01*
X160332893Y-111633000D01*
X134222311Y-111633000D01*
X134264759Y-111604637D01*
X134464637Y-111404759D01*
X134621680Y-111169727D01*
X134729853Y-110908574D01*
X134785000Y-110631335D01*
X134785000Y-110348665D01*
X134739516Y-110120000D01*
X145781928Y-110120000D01*
X145794188Y-110244482D01*
X145830498Y-110364180D01*
X145889463Y-110474494D01*
X145968815Y-110571185D01*
X146065506Y-110650537D01*
X146175820Y-110709502D01*
X146295518Y-110745812D01*
X146420000Y-110758072D01*
X147034250Y-110755000D01*
X147193000Y-110596250D01*
X147193000Y-109347000D01*
X145943750Y-109347000D01*
X145785000Y-109505750D01*
X145781928Y-110120000D01*
X134739516Y-110120000D01*
X134729853Y-110071426D01*
X134621680Y-109810273D01*
X134464637Y-109575241D01*
X134264759Y-109375363D01*
X134029727Y-109218320D01*
X133768574Y-109110147D01*
X133491335Y-109055000D01*
X133208665Y-109055000D01*
X132931426Y-109110147D01*
X132670273Y-109218320D01*
X132435241Y-109375363D01*
X132235363Y-109575241D01*
X132078320Y-109810273D01*
X131970147Y-110071426D01*
X131915000Y-110348665D01*
X131915000Y-110631335D01*
X131970147Y-110908574D01*
X132078320Y-111169727D01*
X132235363Y-111404759D01*
X132435241Y-111604637D01*
X132477689Y-111633000D01*
X130839980Y-111633000D01*
X125459384Y-108942702D01*
X128726903Y-108942702D01*
X128798486Y-109186671D01*
X129053996Y-109307571D01*
X129328184Y-109376300D01*
X129610512Y-109390217D01*
X129890130Y-109348787D01*
X130156292Y-109253603D01*
X130281514Y-109186671D01*
X130353097Y-108942702D01*
X129540000Y-108129605D01*
X128726903Y-108942702D01*
X125459384Y-108942702D01*
X123615004Y-108020512D01*
X128099783Y-108020512D01*
X128141213Y-108300130D01*
X128236397Y-108566292D01*
X128303329Y-108691514D01*
X128547298Y-108763097D01*
X129360395Y-107950000D01*
X129719605Y-107950000D01*
X130532702Y-108763097D01*
X130776671Y-108691514D01*
X130897571Y-108436004D01*
X130926649Y-108320000D01*
X145781928Y-108320000D01*
X145785000Y-108934250D01*
X145943750Y-109093000D01*
X147193000Y-109093000D01*
X147193000Y-107843750D01*
X147447000Y-107843750D01*
X147447000Y-109093000D01*
X147467000Y-109093000D01*
X147467000Y-109347000D01*
X147447000Y-109347000D01*
X147447000Y-110596250D01*
X147605750Y-110755000D01*
X148220000Y-110758072D01*
X148344482Y-110745812D01*
X148464180Y-110709502D01*
X148574494Y-110650537D01*
X148671185Y-110571185D01*
X148750537Y-110474494D01*
X148809502Y-110364180D01*
X148815056Y-110345873D01*
X148881495Y-110412312D01*
X149132905Y-110580299D01*
X149412257Y-110696011D01*
X149708816Y-110755000D01*
X150011184Y-110755000D01*
X150307743Y-110696011D01*
X150587095Y-110580299D01*
X150838505Y-110412312D01*
X151052312Y-110198505D01*
X151220299Y-109947095D01*
X151336011Y-109667743D01*
X151395000Y-109371184D01*
X151395000Y-109068816D01*
X151336011Y-108772257D01*
X151220299Y-108492905D01*
X151052312Y-108241495D01*
X150838505Y-108027688D01*
X150587095Y-107859701D01*
X150307743Y-107743989D01*
X150011184Y-107685000D01*
X149708816Y-107685000D01*
X149412257Y-107743989D01*
X149132905Y-107859701D01*
X148881495Y-108027688D01*
X148815056Y-108094127D01*
X148809502Y-108075820D01*
X148750537Y-107965506D01*
X148671185Y-107868815D01*
X148574494Y-107789463D01*
X148464180Y-107730498D01*
X148344482Y-107694188D01*
X148220000Y-107681928D01*
X147605750Y-107685000D01*
X147447000Y-107843750D01*
X147193000Y-107843750D01*
X147034250Y-107685000D01*
X146420000Y-107681928D01*
X146295518Y-107694188D01*
X146175820Y-107730498D01*
X146065506Y-107789463D01*
X145968815Y-107868815D01*
X145889463Y-107965506D01*
X145830498Y-108075820D01*
X145794188Y-108195518D01*
X145781928Y-108320000D01*
X130926649Y-108320000D01*
X130966300Y-108161816D01*
X130980217Y-107879488D01*
X130938787Y-107599870D01*
X130843603Y-107333708D01*
X130776671Y-107208486D01*
X130532702Y-107136903D01*
X129719605Y-107950000D01*
X129360395Y-107950000D01*
X128547298Y-107136903D01*
X128303329Y-107208486D01*
X128182429Y-107463996D01*
X128113700Y-107738184D01*
X128099783Y-108020512D01*
X123615004Y-108020512D01*
X121488576Y-106957298D01*
X128726903Y-106957298D01*
X129540000Y-107770395D01*
X130353097Y-106957298D01*
X130281514Y-106713329D01*
X130026004Y-106592429D01*
X129751816Y-106523700D01*
X129469488Y-106509783D01*
X129189870Y-106551213D01*
X128923708Y-106646397D01*
X128798486Y-106713329D01*
X128726903Y-106957298D01*
X121488576Y-106957298D01*
X120539384Y-106482702D01*
X132536903Y-106482702D01*
X132608486Y-106726671D01*
X132863996Y-106847571D01*
X133138184Y-106916300D01*
X133420512Y-106930217D01*
X133700130Y-106888787D01*
X133966292Y-106793603D01*
X134091514Y-106726671D01*
X134163097Y-106482702D01*
X133350000Y-105669605D01*
X132536903Y-106482702D01*
X120539384Y-106482702D01*
X118166796Y-105296408D01*
X118143544Y-105287510D01*
X118110000Y-105283000D01*
X117729301Y-105283000D01*
X117707130Y-105057898D01*
X117636511Y-104825099D01*
X117521833Y-104610551D01*
X117367502Y-104422498D01*
X117179449Y-104268167D01*
X117140573Y-104247387D01*
X117333936Y-104171943D01*
X117373725Y-104150675D01*
X117402717Y-103942322D01*
X116840000Y-103379605D01*
X116277283Y-103942322D01*
X116294353Y-104065000D01*
X115329335Y-104065000D01*
X115147898Y-104082870D01*
X114915099Y-104153489D01*
X114700551Y-104268167D01*
X114512498Y-104422498D01*
X114358167Y-104610551D01*
X114243489Y-104825099D01*
X114172870Y-105057898D01*
X114150699Y-105283000D01*
X113029301Y-105283000D01*
X113007130Y-105057898D01*
X112936511Y-104825099D01*
X112821833Y-104610551D01*
X112667502Y-104422498D01*
X112479449Y-104268167D01*
X112264901Y-104153489D01*
X112032102Y-104082870D01*
X111850665Y-104065000D01*
X110629335Y-104065000D01*
X110617000Y-104066215D01*
X110617000Y-99133785D01*
X110629335Y-99135000D01*
X111850665Y-99135000D01*
X112032102Y-99117130D01*
X112264901Y-99046511D01*
X112479449Y-98931833D01*
X112667502Y-98777502D01*
X112821833Y-98589449D01*
X112936511Y-98374901D01*
X113007130Y-98142102D01*
X113029301Y-97917000D01*
X114150699Y-97917000D01*
X114172870Y-98142102D01*
X114243489Y-98374901D01*
X114358167Y-98589449D01*
X114512498Y-98777502D01*
X114700551Y-98931833D01*
X114915099Y-99046511D01*
X115147898Y-99117130D01*
X115329335Y-99135000D01*
X116181615Y-99135000D01*
X116148353Y-99157225D01*
X115997225Y-99308353D01*
X115878485Y-99486060D01*
X115796696Y-99683517D01*
X115788775Y-99723337D01*
X115746863Y-99715000D01*
X115533137Y-99715000D01*
X115323517Y-99756696D01*
X115126060Y-99838485D01*
X114948353Y-99957225D01*
X114797225Y-100108353D01*
X114678485Y-100286060D01*
X114596696Y-100483517D01*
X114555000Y-100693137D01*
X114555000Y-100906863D01*
X114596696Y-101116483D01*
X114678485Y-101313940D01*
X114797225Y-101491647D01*
X114905578Y-101600000D01*
X114797225Y-101708353D01*
X114678485Y-101886060D01*
X114596696Y-102083517D01*
X114555000Y-102293137D01*
X114555000Y-102506863D01*
X114596696Y-102716483D01*
X114678485Y-102913940D01*
X114797225Y-103091647D01*
X114948353Y-103242775D01*
X115126060Y-103361515D01*
X115323517Y-103443304D01*
X115533137Y-103485000D01*
X115746863Y-103485000D01*
X115787202Y-103476976D01*
X115790371Y-103494828D01*
X115868057Y-103693936D01*
X115889325Y-103733725D01*
X116097678Y-103762717D01*
X116660395Y-103200000D01*
X117019605Y-103200000D01*
X117582322Y-103762717D01*
X117790675Y-103733725D01*
X117876532Y-103538003D01*
X117922556Y-103329290D01*
X117926979Y-103115610D01*
X117889629Y-102905172D01*
X117811943Y-102706064D01*
X117790675Y-102666275D01*
X117582322Y-102637283D01*
X117019605Y-103200000D01*
X116660395Y-103200000D01*
X116646253Y-103185858D01*
X116825858Y-103006253D01*
X116840000Y-103020395D01*
X117259947Y-102600448D01*
X117353940Y-102561515D01*
X117531647Y-102442775D01*
X117682775Y-102291647D01*
X117700427Y-102265228D01*
X118345000Y-102909802D01*
X118345000Y-102971939D01*
X118384774Y-103171898D01*
X118462795Y-103360256D01*
X118576063Y-103529774D01*
X118720226Y-103673937D01*
X118889744Y-103787205D01*
X119078102Y-103865226D01*
X119278061Y-103905000D01*
X119481939Y-103905000D01*
X119681898Y-103865226D01*
X119870256Y-103787205D01*
X120039774Y-103673937D01*
X120183937Y-103529774D01*
X120297205Y-103360256D01*
X120375226Y-103171898D01*
X120415000Y-102971939D01*
X120415000Y-102768061D01*
X123425000Y-102768061D01*
X123425000Y-102971939D01*
X123464774Y-103171898D01*
X123542795Y-103360256D01*
X123639510Y-103505000D01*
X123542795Y-103649744D01*
X123464774Y-103838102D01*
X123425000Y-104038061D01*
X123425000Y-104241939D01*
X123464774Y-104441898D01*
X123542795Y-104630256D01*
X123656063Y-104799774D01*
X123800226Y-104943937D01*
X123969744Y-105057205D01*
X124158102Y-105135226D01*
X124358061Y-105175000D01*
X124561939Y-105175000D01*
X124761898Y-105135226D01*
X124950256Y-105057205D01*
X125119774Y-104943937D01*
X125163711Y-104900000D01*
X132041637Y-104900000D01*
X131992429Y-105003996D01*
X131923700Y-105278184D01*
X131909783Y-105560512D01*
X131951213Y-105840130D01*
X132046397Y-106106292D01*
X132113329Y-106231514D01*
X132357298Y-106303097D01*
X133170395Y-105490000D01*
X133156253Y-105475858D01*
X133335858Y-105296253D01*
X133350000Y-105310395D01*
X133364143Y-105296253D01*
X133543748Y-105475858D01*
X133529605Y-105490000D01*
X134342702Y-106303097D01*
X134586671Y-106231514D01*
X134707571Y-105976004D01*
X134776300Y-105701816D01*
X134790217Y-105419488D01*
X134748787Y-105139870D01*
X134663005Y-104900000D01*
X150815199Y-104900000D01*
X151365000Y-105449802D01*
X151365000Y-105511939D01*
X151404774Y-105711898D01*
X151482795Y-105900256D01*
X151596063Y-106069774D01*
X151740226Y-106213937D01*
X151909744Y-106327205D01*
X152098102Y-106405226D01*
X152298061Y-106445000D01*
X152501939Y-106445000D01*
X152701898Y-106405226D01*
X152890256Y-106327205D01*
X153059774Y-106213937D01*
X153203937Y-106069774D01*
X153317205Y-105900256D01*
X153395226Y-105711898D01*
X153435000Y-105511939D01*
X153435000Y-105308061D01*
X153395226Y-105108102D01*
X153317205Y-104919744D01*
X153203937Y-104750226D01*
X153059774Y-104606063D01*
X152890256Y-104492795D01*
X152701898Y-104414774D01*
X152501939Y-104375000D01*
X152439802Y-104375000D01*
X151693804Y-103629003D01*
X151670001Y-103599999D01*
X151554276Y-103505026D01*
X151422247Y-103434454D01*
X151278986Y-103390997D01*
X151167333Y-103380000D01*
X151167322Y-103380000D01*
X151130000Y-103376324D01*
X151092678Y-103380000D01*
X144414013Y-103380000D01*
X144427205Y-103360256D01*
X144505226Y-103171898D01*
X144545000Y-102971939D01*
X144545000Y-102768061D01*
X144505226Y-102568102D01*
X144477018Y-102500000D01*
X145781928Y-102500000D01*
X145794188Y-102624482D01*
X145830498Y-102744180D01*
X145889463Y-102854494D01*
X145968815Y-102951185D01*
X146065506Y-103030537D01*
X146175820Y-103089502D01*
X146295518Y-103125812D01*
X146420000Y-103138072D01*
X147034250Y-103135000D01*
X147193000Y-102976250D01*
X147193000Y-101727000D01*
X145943750Y-101727000D01*
X145785000Y-101885750D01*
X145781928Y-102500000D01*
X144477018Y-102500000D01*
X144427205Y-102379744D01*
X144313937Y-102210226D01*
X144270000Y-102166289D01*
X144270000Y-101033711D01*
X144313937Y-100989774D01*
X144427205Y-100820256D01*
X144477017Y-100700000D01*
X145781928Y-100700000D01*
X145785000Y-101314250D01*
X145943750Y-101473000D01*
X147193000Y-101473000D01*
X147193000Y-100223750D01*
X147447000Y-100223750D01*
X147447000Y-101473000D01*
X147467000Y-101473000D01*
X147467000Y-101727000D01*
X147447000Y-101727000D01*
X147447000Y-102976250D01*
X147605750Y-103135000D01*
X148220000Y-103138072D01*
X148344482Y-103125812D01*
X148464180Y-103089502D01*
X148574494Y-103030537D01*
X148671185Y-102951185D01*
X148750537Y-102854494D01*
X148809502Y-102744180D01*
X148815056Y-102725873D01*
X148881495Y-102792312D01*
X149132905Y-102960299D01*
X149412257Y-103076011D01*
X149708816Y-103135000D01*
X150011184Y-103135000D01*
X150307743Y-103076011D01*
X150587095Y-102960299D01*
X150838505Y-102792312D01*
X151052312Y-102578505D01*
X151220299Y-102327095D01*
X151336011Y-102047743D01*
X151395000Y-101751184D01*
X151395000Y-101448816D01*
X151336011Y-101152257D01*
X151220299Y-100872905D01*
X151052312Y-100621495D01*
X150838505Y-100407688D01*
X150587095Y-100239701D01*
X150307743Y-100123989D01*
X150011184Y-100065000D01*
X149708816Y-100065000D01*
X149412257Y-100123989D01*
X149132905Y-100239701D01*
X148881495Y-100407688D01*
X148815056Y-100474127D01*
X148809502Y-100455820D01*
X148750537Y-100345506D01*
X148671185Y-100248815D01*
X148574494Y-100169463D01*
X148464180Y-100110498D01*
X148344482Y-100074188D01*
X148220000Y-100061928D01*
X147605750Y-100065000D01*
X147447000Y-100223750D01*
X147193000Y-100223750D01*
X147034250Y-100065000D01*
X146420000Y-100061928D01*
X146295518Y-100074188D01*
X146175820Y-100110498D01*
X146065506Y-100169463D01*
X145968815Y-100248815D01*
X145889463Y-100345506D01*
X145830498Y-100455820D01*
X145794188Y-100575518D01*
X145781928Y-100700000D01*
X144477017Y-100700000D01*
X144505226Y-100631898D01*
X144545000Y-100431939D01*
X144545000Y-100228061D01*
X144505226Y-100028102D01*
X144427205Y-99839744D01*
X144313937Y-99670226D01*
X144169774Y-99526063D01*
X144000256Y-99412795D01*
X143811898Y-99334774D01*
X143611939Y-99295000D01*
X143408061Y-99295000D01*
X143208102Y-99334774D01*
X143019744Y-99412795D01*
X142850226Y-99526063D01*
X142706063Y-99670226D01*
X142592795Y-99839744D01*
X142514774Y-100028102D01*
X142475000Y-100228061D01*
X142475000Y-100431939D01*
X142514774Y-100631898D01*
X142592795Y-100820256D01*
X142706063Y-100989774D01*
X142750000Y-101033711D01*
X142750001Y-102166288D01*
X142706063Y-102210226D01*
X142592795Y-102379744D01*
X142514774Y-102568102D01*
X142475000Y-102768061D01*
X142475000Y-102971939D01*
X142514774Y-103171898D01*
X142592795Y-103360256D01*
X142605987Y-103380000D01*
X141008363Y-103380000D01*
X141057571Y-103276004D01*
X141126300Y-103001816D01*
X141140217Y-102719488D01*
X141098787Y-102439870D01*
X141003603Y-102173708D01*
X140936671Y-102048486D01*
X140692702Y-101976903D01*
X139879605Y-102790000D01*
X139893748Y-102804143D01*
X139714143Y-102983748D01*
X139700000Y-102969605D01*
X139685858Y-102983748D01*
X139506253Y-102804143D01*
X139520395Y-102790000D01*
X139506253Y-102775858D01*
X139685858Y-102596253D01*
X139700000Y-102610395D01*
X140513097Y-101797298D01*
X140441514Y-101553329D01*
X140186004Y-101432429D01*
X139911816Y-101363700D01*
X139749121Y-101355680D01*
X143824802Y-97280000D01*
X152966289Y-97280000D01*
X153010226Y-97323937D01*
X153179744Y-97437205D01*
X153368102Y-97515226D01*
X153568061Y-97555000D01*
X153771939Y-97555000D01*
X153971898Y-97515226D01*
X154160256Y-97437205D01*
X154329774Y-97323937D01*
X154473937Y-97179774D01*
X154587205Y-97010256D01*
X154665226Y-96821898D01*
X154705000Y-96621939D01*
X154705000Y-96418061D01*
X154665226Y-96218102D01*
X154587205Y-96029744D01*
X154473937Y-95860226D01*
X154329774Y-95716063D01*
X154160256Y-95602795D01*
X153971898Y-95524774D01*
X153771939Y-95485000D01*
X153568061Y-95485000D01*
X153368102Y-95524774D01*
X153179744Y-95602795D01*
X153010226Y-95716063D01*
X152966289Y-95760000D01*
X143547322Y-95760000D01*
X143509999Y-95756324D01*
X143472676Y-95760000D01*
X143472667Y-95760000D01*
X143361014Y-95770997D01*
X143217753Y-95814454D01*
X143085724Y-95885026D01*
X142969999Y-95979999D01*
X142946201Y-96008997D01*
X141135000Y-97820198D01*
X141135000Y-97648665D01*
X141079853Y-97371426D01*
X140971680Y-97110273D01*
X140814637Y-96875241D01*
X140614759Y-96675363D01*
X140379727Y-96518320D01*
X140118574Y-96410147D01*
X139841335Y-96355000D01*
X139558665Y-96355000D01*
X139281426Y-96410147D01*
X139020273Y-96518320D01*
X138785241Y-96675363D01*
X138585363Y-96875241D01*
X138428320Y-97110273D01*
X138320147Y-97371426D01*
X138265000Y-97648665D01*
X138265000Y-97931335D01*
X138320147Y-98208574D01*
X138428320Y-98469727D01*
X138585363Y-98704759D01*
X138785241Y-98904637D01*
X139020273Y-99061680D01*
X139281426Y-99169853D01*
X139558665Y-99225000D01*
X139730199Y-99225000D01*
X138050200Y-100904999D01*
X132108491Y-100904999D01*
X132189853Y-100708574D01*
X132245000Y-100431335D01*
X132245000Y-100148665D01*
X132189853Y-99871426D01*
X132081680Y-99610273D01*
X131924637Y-99375241D01*
X131724759Y-99175363D01*
X131524131Y-99041308D01*
X131551514Y-99026671D01*
X131623097Y-98782702D01*
X131563984Y-98723589D01*
X133235000Y-98723589D01*
X133235000Y-98996411D01*
X133288225Y-99263989D01*
X133392629Y-99516043D01*
X133544201Y-99742886D01*
X133737114Y-99935799D01*
X133963957Y-100087371D01*
X134216011Y-100191775D01*
X134483589Y-100245000D01*
X134756411Y-100245000D01*
X135023989Y-100191775D01*
X135276043Y-100087371D01*
X135502886Y-99935799D01*
X135695799Y-99742886D01*
X135847371Y-99516043D01*
X135951775Y-99263989D01*
X136005000Y-98996411D01*
X136005000Y-98723589D01*
X135951775Y-98456011D01*
X135847371Y-98203957D01*
X135695799Y-97977114D01*
X135502886Y-97784201D01*
X135276043Y-97632629D01*
X135023989Y-97528225D01*
X134756411Y-97475000D01*
X134483589Y-97475000D01*
X134216011Y-97528225D01*
X133963957Y-97632629D01*
X133737114Y-97784201D01*
X133544201Y-97977114D01*
X133392629Y-98203957D01*
X133288225Y-98456011D01*
X133235000Y-98723589D01*
X131563984Y-98723589D01*
X130810000Y-97969605D01*
X129996903Y-98782702D01*
X130068486Y-99026671D01*
X130097341Y-99040324D01*
X129895241Y-99175363D01*
X129695363Y-99375241D01*
X129538320Y-99610273D01*
X129430147Y-99871426D01*
X129375000Y-100148665D01*
X129375000Y-100431335D01*
X129430147Y-100708574D01*
X129511509Y-100904999D01*
X125702326Y-100904999D01*
X125665001Y-100901323D01*
X125627676Y-100904999D01*
X125627668Y-100904999D01*
X125516015Y-100915996D01*
X125372754Y-100959453D01*
X125240725Y-101030025D01*
X125125000Y-101124998D01*
X125101202Y-101153996D01*
X124420199Y-101835000D01*
X124358061Y-101835000D01*
X124158102Y-101874774D01*
X123969744Y-101952795D01*
X123800226Y-102066063D01*
X123656063Y-102210226D01*
X123542795Y-102379744D01*
X123464774Y-102568102D01*
X123425000Y-102768061D01*
X120415000Y-102768061D01*
X120375226Y-102568102D01*
X120297205Y-102379744D01*
X120183937Y-102210226D01*
X120039774Y-102066063D01*
X119870256Y-101952795D01*
X119681898Y-101874774D01*
X119481939Y-101835000D01*
X119419802Y-101835000D01*
X118870000Y-101285199D01*
X118870000Y-99763711D01*
X118913937Y-99719774D01*
X119027205Y-99550256D01*
X119105226Y-99361898D01*
X119145000Y-99161939D01*
X119145000Y-98958061D01*
X119105226Y-98758102D01*
X119027205Y-98569744D01*
X118913937Y-98400226D01*
X118769774Y-98256063D01*
X118600256Y-98142795D01*
X118411898Y-98064774D01*
X118211939Y-98025000D01*
X118008061Y-98025000D01*
X117808102Y-98064774D01*
X117710776Y-98105088D01*
X117729301Y-97917000D01*
X118110000Y-97917000D01*
X118134776Y-97914560D01*
X118166796Y-97903592D01*
X118252956Y-97860512D01*
X129369783Y-97860512D01*
X129411213Y-98140130D01*
X129506397Y-98406292D01*
X129573329Y-98531514D01*
X129817298Y-98603097D01*
X130630395Y-97790000D01*
X130989605Y-97790000D01*
X131802702Y-98603097D01*
X132046671Y-98531514D01*
X132167571Y-98276004D01*
X132236300Y-98001816D01*
X132250217Y-97719488D01*
X132208787Y-97439870D01*
X132113603Y-97173708D01*
X132046671Y-97048486D01*
X131802702Y-96976903D01*
X130989605Y-97790000D01*
X130630395Y-97790000D01*
X129817298Y-96976903D01*
X129573329Y-97048486D01*
X129452429Y-97303996D01*
X129383700Y-97578184D01*
X129369783Y-97860512D01*
X118252956Y-97860512D01*
X121568576Y-96202702D01*
X129996903Y-96202702D01*
X130068486Y-96446671D01*
X130174331Y-96496754D01*
X130068486Y-96553329D01*
X129996903Y-96797298D01*
X130810000Y-97610395D01*
X131623097Y-96797298D01*
X131551514Y-96553329D01*
X131445669Y-96503246D01*
X131551514Y-96446671D01*
X131623097Y-96202702D01*
X130810000Y-95389605D01*
X129996903Y-96202702D01*
X121568576Y-96202702D01*
X123412956Y-95280512D01*
X129369783Y-95280512D01*
X129411213Y-95560130D01*
X129506397Y-95826292D01*
X129573329Y-95951514D01*
X129817298Y-96023097D01*
X130630395Y-95210000D01*
X130989605Y-95210000D01*
X131802702Y-96023097D01*
X132046671Y-95951514D01*
X132167571Y-95696004D01*
X132236300Y-95421816D01*
X132250217Y-95139488D01*
X132208787Y-94859870D01*
X132113603Y-94593708D01*
X132046671Y-94468486D01*
X131802702Y-94396903D01*
X130989605Y-95210000D01*
X130630395Y-95210000D01*
X129817298Y-94396903D01*
X129573329Y-94468486D01*
X129452429Y-94723996D01*
X129383700Y-94998184D01*
X129369783Y-95280512D01*
X123412956Y-95280512D01*
X129440339Y-92266821D01*
X129430147Y-92291426D01*
X129375000Y-92568665D01*
X129375000Y-92851335D01*
X129430147Y-93128574D01*
X129538320Y-93389727D01*
X129695363Y-93624759D01*
X129895241Y-93824637D01*
X130095869Y-93958692D01*
X130068486Y-93973329D01*
X129996903Y-94217298D01*
X130810000Y-95030395D01*
X131623097Y-94217298D01*
X131551514Y-93973329D01*
X131522659Y-93959676D01*
X131696395Y-93843589D01*
X133235000Y-93843589D01*
X133235000Y-94116411D01*
X133288225Y-94383989D01*
X133392629Y-94636043D01*
X133544201Y-94862886D01*
X133737114Y-95055799D01*
X133963957Y-95207371D01*
X134216011Y-95311775D01*
X134483589Y-95365000D01*
X134756411Y-95365000D01*
X135023989Y-95311775D01*
X135276043Y-95207371D01*
X135502886Y-95055799D01*
X135678685Y-94880000D01*
X145781928Y-94880000D01*
X145794188Y-95004482D01*
X145830498Y-95124180D01*
X145889463Y-95234494D01*
X145968815Y-95331185D01*
X146065506Y-95410537D01*
X146175820Y-95469502D01*
X146295518Y-95505812D01*
X146420000Y-95518072D01*
X147034250Y-95515000D01*
X147193000Y-95356250D01*
X147193000Y-94107000D01*
X145943750Y-94107000D01*
X145785000Y-94265750D01*
X145781928Y-94880000D01*
X135678685Y-94880000D01*
X135695799Y-94862886D01*
X135847371Y-94636043D01*
X135951775Y-94383989D01*
X136005000Y-94116411D01*
X136005000Y-93843589D01*
X135951775Y-93576011D01*
X135847371Y-93323957D01*
X135695799Y-93097114D01*
X135678685Y-93080000D01*
X145781928Y-93080000D01*
X145785000Y-93694250D01*
X145943750Y-93853000D01*
X147193000Y-93853000D01*
X147193000Y-92603750D01*
X147447000Y-92603750D01*
X147447000Y-93853000D01*
X147467000Y-93853000D01*
X147467000Y-94107000D01*
X147447000Y-94107000D01*
X147447000Y-95356250D01*
X147605750Y-95515000D01*
X148220000Y-95518072D01*
X148344482Y-95505812D01*
X148464180Y-95469502D01*
X148574494Y-95410537D01*
X148671185Y-95331185D01*
X148750537Y-95234494D01*
X148809502Y-95124180D01*
X148815056Y-95105873D01*
X148881495Y-95172312D01*
X149132905Y-95340299D01*
X149412257Y-95456011D01*
X149708816Y-95515000D01*
X150011184Y-95515000D01*
X150307743Y-95456011D01*
X150587095Y-95340299D01*
X150838505Y-95172312D01*
X151052312Y-94958505D01*
X151220299Y-94707095D01*
X151336011Y-94427743D01*
X151395000Y-94131184D01*
X151395000Y-93828816D01*
X151336011Y-93532257D01*
X151220299Y-93252905D01*
X151052312Y-93001495D01*
X150838505Y-92787688D01*
X150587095Y-92619701D01*
X150307743Y-92503989D01*
X150011184Y-92445000D01*
X149708816Y-92445000D01*
X149412257Y-92503989D01*
X149132905Y-92619701D01*
X148881495Y-92787688D01*
X148815056Y-92854127D01*
X148809502Y-92835820D01*
X148750537Y-92725506D01*
X148671185Y-92628815D01*
X148574494Y-92549463D01*
X148464180Y-92490498D01*
X148344482Y-92454188D01*
X148220000Y-92441928D01*
X147605750Y-92445000D01*
X147447000Y-92603750D01*
X147193000Y-92603750D01*
X147034250Y-92445000D01*
X146420000Y-92441928D01*
X146295518Y-92454188D01*
X146175820Y-92490498D01*
X146065506Y-92549463D01*
X145968815Y-92628815D01*
X145889463Y-92725506D01*
X145830498Y-92835820D01*
X145794188Y-92955518D01*
X145781928Y-93080000D01*
X135678685Y-93080000D01*
X135502886Y-92904201D01*
X135276043Y-92752629D01*
X135023989Y-92648225D01*
X134756411Y-92595000D01*
X134483589Y-92595000D01*
X134216011Y-92648225D01*
X133963957Y-92752629D01*
X133737114Y-92904201D01*
X133544201Y-93097114D01*
X133392629Y-93323957D01*
X133288225Y-93576011D01*
X133235000Y-93843589D01*
X131696395Y-93843589D01*
X131724759Y-93824637D01*
X131924637Y-93624759D01*
X132081680Y-93389727D01*
X132189853Y-93128574D01*
X132245000Y-92851335D01*
X132245000Y-92568665D01*
X132189853Y-92291426D01*
X132081680Y-92030273D01*
X131924637Y-91795241D01*
X131724759Y-91595363D01*
X131682311Y-91567000D01*
X159876593Y-91567000D01*
X159850498Y-91615820D01*
%TA.AperFunction,Conductor*%
D21*
G36*
X159850498Y-91615820D02*
G01*
X159814188Y-91735518D01*
X159801928Y-91860000D01*
X159801928Y-93560000D01*
X159814188Y-93684482D01*
X159850498Y-93804180D01*
X159909463Y-93914494D01*
X159988815Y-94011185D01*
X160085506Y-94090537D01*
X160195820Y-94149502D01*
X160268380Y-94171513D01*
X160136525Y-94303368D01*
X159974010Y-94546589D01*
X159862068Y-94816842D01*
X159805000Y-95103740D01*
X159805000Y-95396260D01*
X159862068Y-95683158D01*
X159974010Y-95953411D01*
X160136525Y-96196632D01*
X160343368Y-96403475D01*
X160517760Y-96520000D01*
X160343368Y-96636525D01*
X160136525Y-96843368D01*
X159974010Y-97086589D01*
X159862068Y-97356842D01*
X159805000Y-97643740D01*
X159805000Y-97936260D01*
X159862068Y-98223158D01*
X159974010Y-98493411D01*
X160136525Y-98736632D01*
X160343368Y-98943475D01*
X160517760Y-99060000D01*
X160343368Y-99176525D01*
X160136525Y-99383368D01*
X159974010Y-99626589D01*
X159862068Y-99896842D01*
X159805000Y-100183740D01*
X159805000Y-100476260D01*
X159862068Y-100763158D01*
X159974010Y-101033411D01*
X160136525Y-101276632D01*
X160343368Y-101483475D01*
X160517760Y-101600000D01*
X160343368Y-101716525D01*
X160136525Y-101923368D01*
X159974010Y-102166589D01*
X159862068Y-102436842D01*
X159805000Y-102723740D01*
X159805000Y-103016260D01*
X159862068Y-103303158D01*
X159974010Y-103573411D01*
X160136525Y-103816632D01*
X160343368Y-104023475D01*
X160517760Y-104140000D01*
X160343368Y-104256525D01*
X160136525Y-104463368D01*
X159974010Y-104706589D01*
X159862068Y-104976842D01*
X159805000Y-105263740D01*
X159805000Y-105556260D01*
X159862068Y-105843158D01*
X159974010Y-106113411D01*
X160136525Y-106356632D01*
X160343368Y-106563475D01*
X160517760Y-106680000D01*
X160343368Y-106796525D01*
X160136525Y-107003368D01*
X159974010Y-107246589D01*
X159862068Y-107516842D01*
X159805000Y-107803740D01*
X159805000Y-108096260D01*
X159862068Y-108383158D01*
X159974010Y-108653411D01*
X160136525Y-108896632D01*
X160343368Y-109103475D01*
X160517760Y-109220000D01*
X160343368Y-109336525D01*
X160136525Y-109543368D01*
X159974010Y-109786589D01*
X159862068Y-110056842D01*
X159805000Y-110343740D01*
X159805000Y-110636260D01*
X159862068Y-110923158D01*
X159974010Y-111193411D01*
X160136525Y-111436632D01*
X160332893Y-111633000D01*
X134222311Y-111633000D01*
X134264759Y-111604637D01*
X134464637Y-111404759D01*
X134621680Y-111169727D01*
X134729853Y-110908574D01*
X134785000Y-110631335D01*
X134785000Y-110348665D01*
X134739516Y-110120000D01*
X145781928Y-110120000D01*
X145794188Y-110244482D01*
X145830498Y-110364180D01*
X145889463Y-110474494D01*
X145968815Y-110571185D01*
X146065506Y-110650537D01*
X146175820Y-110709502D01*
X146295518Y-110745812D01*
X146420000Y-110758072D01*
X147034250Y-110755000D01*
X147193000Y-110596250D01*
X147193000Y-109347000D01*
X145943750Y-109347000D01*
X145785000Y-109505750D01*
X145781928Y-110120000D01*
X134739516Y-110120000D01*
X134729853Y-110071426D01*
X134621680Y-109810273D01*
X134464637Y-109575241D01*
X134264759Y-109375363D01*
X134029727Y-109218320D01*
X133768574Y-109110147D01*
X133491335Y-109055000D01*
X133208665Y-109055000D01*
X132931426Y-109110147D01*
X132670273Y-109218320D01*
X132435241Y-109375363D01*
X132235363Y-109575241D01*
X132078320Y-109810273D01*
X131970147Y-110071426D01*
X131915000Y-110348665D01*
X131915000Y-110631335D01*
X131970147Y-110908574D01*
X132078320Y-111169727D01*
X132235363Y-111404759D01*
X132435241Y-111604637D01*
X132477689Y-111633000D01*
X130839980Y-111633000D01*
X125459384Y-108942702D01*
X128726903Y-108942702D01*
X128798486Y-109186671D01*
X129053996Y-109307571D01*
X129328184Y-109376300D01*
X129610512Y-109390217D01*
X129890130Y-109348787D01*
X130156292Y-109253603D01*
X130281514Y-109186671D01*
X130353097Y-108942702D01*
X129540000Y-108129605D01*
X128726903Y-108942702D01*
X125459384Y-108942702D01*
X123615004Y-108020512D01*
X128099783Y-108020512D01*
X128141213Y-108300130D01*
X128236397Y-108566292D01*
X128303329Y-108691514D01*
X128547298Y-108763097D01*
X129360395Y-107950000D01*
X129719605Y-107950000D01*
X130532702Y-108763097D01*
X130776671Y-108691514D01*
X130897571Y-108436004D01*
X130926649Y-108320000D01*
X145781928Y-108320000D01*
X145785000Y-108934250D01*
X145943750Y-109093000D01*
X147193000Y-109093000D01*
X147193000Y-107843750D01*
X147447000Y-107843750D01*
X147447000Y-109093000D01*
X147467000Y-109093000D01*
X147467000Y-109347000D01*
X147447000Y-109347000D01*
X147447000Y-110596250D01*
X147605750Y-110755000D01*
X148220000Y-110758072D01*
X148344482Y-110745812D01*
X148464180Y-110709502D01*
X148574494Y-110650537D01*
X148671185Y-110571185D01*
X148750537Y-110474494D01*
X148809502Y-110364180D01*
X148815056Y-110345873D01*
X148881495Y-110412312D01*
X149132905Y-110580299D01*
X149412257Y-110696011D01*
X149708816Y-110755000D01*
X150011184Y-110755000D01*
X150307743Y-110696011D01*
X150587095Y-110580299D01*
X150838505Y-110412312D01*
X151052312Y-110198505D01*
X151220299Y-109947095D01*
X151336011Y-109667743D01*
X151395000Y-109371184D01*
X151395000Y-109068816D01*
X151336011Y-108772257D01*
X151220299Y-108492905D01*
X151052312Y-108241495D01*
X150838505Y-108027688D01*
X150587095Y-107859701D01*
X150307743Y-107743989D01*
X150011184Y-107685000D01*
X149708816Y-107685000D01*
X149412257Y-107743989D01*
X149132905Y-107859701D01*
X148881495Y-108027688D01*
X148815056Y-108094127D01*
X148809502Y-108075820D01*
X148750537Y-107965506D01*
X148671185Y-107868815D01*
X148574494Y-107789463D01*
X148464180Y-107730498D01*
X148344482Y-107694188D01*
X148220000Y-107681928D01*
X147605750Y-107685000D01*
X147447000Y-107843750D01*
X147193000Y-107843750D01*
X147034250Y-107685000D01*
X146420000Y-107681928D01*
X146295518Y-107694188D01*
X146175820Y-107730498D01*
X146065506Y-107789463D01*
X145968815Y-107868815D01*
X145889463Y-107965506D01*
X145830498Y-108075820D01*
X145794188Y-108195518D01*
X145781928Y-108320000D01*
X130926649Y-108320000D01*
X130966300Y-108161816D01*
X130980217Y-107879488D01*
X130938787Y-107599870D01*
X130843603Y-107333708D01*
X130776671Y-107208486D01*
X130532702Y-107136903D01*
X129719605Y-107950000D01*
X129360395Y-107950000D01*
X128547298Y-107136903D01*
X128303329Y-107208486D01*
X128182429Y-107463996D01*
X128113700Y-107738184D01*
X128099783Y-108020512D01*
X123615004Y-108020512D01*
X121488576Y-106957298D01*
X128726903Y-106957298D01*
X129540000Y-107770395D01*
X130353097Y-106957298D01*
X130281514Y-106713329D01*
X130026004Y-106592429D01*
X129751816Y-106523700D01*
X129469488Y-106509783D01*
X129189870Y-106551213D01*
X128923708Y-106646397D01*
X128798486Y-106713329D01*
X128726903Y-106957298D01*
X121488576Y-106957298D01*
X120539384Y-106482702D01*
X132536903Y-106482702D01*
X132608486Y-106726671D01*
X132863996Y-106847571D01*
X133138184Y-106916300D01*
X133420512Y-106930217D01*
X133700130Y-106888787D01*
X133966292Y-106793603D01*
X134091514Y-106726671D01*
X134163097Y-106482702D01*
X133350000Y-105669605D01*
X132536903Y-106482702D01*
X120539384Y-106482702D01*
X118166796Y-105296408D01*
X118143544Y-105287510D01*
X118110000Y-105283000D01*
X117729301Y-105283000D01*
X117707130Y-105057898D01*
X117636511Y-104825099D01*
X117521833Y-104610551D01*
X117367502Y-104422498D01*
X117179449Y-104268167D01*
X117140573Y-104247387D01*
X117333936Y-104171943D01*
X117373725Y-104150675D01*
X117402717Y-103942322D01*
X116840000Y-103379605D01*
X116277283Y-103942322D01*
X116294353Y-104065000D01*
X115329335Y-104065000D01*
X115147898Y-104082870D01*
X114915099Y-104153489D01*
X114700551Y-104268167D01*
X114512498Y-104422498D01*
X114358167Y-104610551D01*
X114243489Y-104825099D01*
X114172870Y-105057898D01*
X114150699Y-105283000D01*
X113029301Y-105283000D01*
X113007130Y-105057898D01*
X112936511Y-104825099D01*
X112821833Y-104610551D01*
X112667502Y-104422498D01*
X112479449Y-104268167D01*
X112264901Y-104153489D01*
X112032102Y-104082870D01*
X111850665Y-104065000D01*
X110629335Y-104065000D01*
X110617000Y-104066215D01*
X110617000Y-99133785D01*
X110629335Y-99135000D01*
X111850665Y-99135000D01*
X112032102Y-99117130D01*
X112264901Y-99046511D01*
X112479449Y-98931833D01*
X112667502Y-98777502D01*
X112821833Y-98589449D01*
X112936511Y-98374901D01*
X113007130Y-98142102D01*
X113029301Y-97917000D01*
X114150699Y-97917000D01*
X114172870Y-98142102D01*
X114243489Y-98374901D01*
X114358167Y-98589449D01*
X114512498Y-98777502D01*
X114700551Y-98931833D01*
X114915099Y-99046511D01*
X115147898Y-99117130D01*
X115329335Y-99135000D01*
X116181615Y-99135000D01*
X116148353Y-99157225D01*
X115997225Y-99308353D01*
X115878485Y-99486060D01*
X115796696Y-99683517D01*
X115788775Y-99723337D01*
X115746863Y-99715000D01*
X115533137Y-99715000D01*
X115323517Y-99756696D01*
X115126060Y-99838485D01*
X114948353Y-99957225D01*
X114797225Y-100108353D01*
X114678485Y-100286060D01*
X114596696Y-100483517D01*
X114555000Y-100693137D01*
X114555000Y-100906863D01*
X114596696Y-101116483D01*
X114678485Y-101313940D01*
X114797225Y-101491647D01*
X114905578Y-101600000D01*
X114797225Y-101708353D01*
X114678485Y-101886060D01*
X114596696Y-102083517D01*
X114555000Y-102293137D01*
X114555000Y-102506863D01*
X114596696Y-102716483D01*
X114678485Y-102913940D01*
X114797225Y-103091647D01*
X114948353Y-103242775D01*
X115126060Y-103361515D01*
X115323517Y-103443304D01*
X115533137Y-103485000D01*
X115746863Y-103485000D01*
X115787202Y-103476976D01*
X115790371Y-103494828D01*
X115868057Y-103693936D01*
X115889325Y-103733725D01*
X116097678Y-103762717D01*
X116660395Y-103200000D01*
X117019605Y-103200000D01*
X117582322Y-103762717D01*
X117790675Y-103733725D01*
X117876532Y-103538003D01*
X117922556Y-103329290D01*
X117926979Y-103115610D01*
X117889629Y-102905172D01*
X117811943Y-102706064D01*
X117790675Y-102666275D01*
X117582322Y-102637283D01*
X117019605Y-103200000D01*
X116660395Y-103200000D01*
X116646253Y-103185858D01*
X116825858Y-103006253D01*
X116840000Y-103020395D01*
X117259947Y-102600448D01*
X117353940Y-102561515D01*
X117531647Y-102442775D01*
X117682775Y-102291647D01*
X117700427Y-102265228D01*
X118345000Y-102909802D01*
X118345000Y-102971939D01*
X118384774Y-103171898D01*
X118462795Y-103360256D01*
X118576063Y-103529774D01*
X118720226Y-103673937D01*
X118889744Y-103787205D01*
X119078102Y-103865226D01*
X119278061Y-103905000D01*
X119481939Y-103905000D01*
X119681898Y-103865226D01*
X119870256Y-103787205D01*
X120039774Y-103673937D01*
X120183937Y-103529774D01*
X120297205Y-103360256D01*
X120375226Y-103171898D01*
X120415000Y-102971939D01*
X120415000Y-102768061D01*
X123425000Y-102768061D01*
X123425000Y-102971939D01*
X123464774Y-103171898D01*
X123542795Y-103360256D01*
X123639510Y-103505000D01*
X123542795Y-103649744D01*
X123464774Y-103838102D01*
X123425000Y-104038061D01*
X123425000Y-104241939D01*
X123464774Y-104441898D01*
X123542795Y-104630256D01*
X123656063Y-104799774D01*
X123800226Y-104943937D01*
X123969744Y-105057205D01*
X124158102Y-105135226D01*
X124358061Y-105175000D01*
X124561939Y-105175000D01*
X124761898Y-105135226D01*
X124950256Y-105057205D01*
X125119774Y-104943937D01*
X125163711Y-104900000D01*
X132041637Y-104900000D01*
X131992429Y-105003996D01*
X131923700Y-105278184D01*
X131909783Y-105560512D01*
X131951213Y-105840130D01*
X132046397Y-106106292D01*
X132113329Y-106231514D01*
X132357298Y-106303097D01*
X133170395Y-105490000D01*
X133156253Y-105475858D01*
X133335858Y-105296253D01*
X133350000Y-105310395D01*
X133364143Y-105296253D01*
X133543748Y-105475858D01*
X133529605Y-105490000D01*
X134342702Y-106303097D01*
X134586671Y-106231514D01*
X134707571Y-105976004D01*
X134776300Y-105701816D01*
X134790217Y-105419488D01*
X134748787Y-105139870D01*
X134663005Y-104900000D01*
X150815199Y-104900000D01*
X151365000Y-105449802D01*
X151365000Y-105511939D01*
X151404774Y-105711898D01*
X151482795Y-105900256D01*
X151596063Y-106069774D01*
X151740226Y-106213937D01*
X151909744Y-106327205D01*
X152098102Y-106405226D01*
X152298061Y-106445000D01*
X152501939Y-106445000D01*
X152701898Y-106405226D01*
X152890256Y-106327205D01*
X153059774Y-106213937D01*
X153203937Y-106069774D01*
X153317205Y-105900256D01*
X153395226Y-105711898D01*
X153435000Y-105511939D01*
X153435000Y-105308061D01*
X153395226Y-105108102D01*
X153317205Y-104919744D01*
X153203937Y-104750226D01*
X153059774Y-104606063D01*
X152890256Y-104492795D01*
X152701898Y-104414774D01*
X152501939Y-104375000D01*
X152439802Y-104375000D01*
X151693804Y-103629003D01*
X151670001Y-103599999D01*
X151554276Y-103505026D01*
X151422247Y-103434454D01*
X151278986Y-103390997D01*
X151167333Y-103380000D01*
X151167322Y-103380000D01*
X151130000Y-103376324D01*
X151092678Y-103380000D01*
X144414013Y-103380000D01*
X144427205Y-103360256D01*
X144505226Y-103171898D01*
X144545000Y-102971939D01*
X144545000Y-102768061D01*
X144505226Y-102568102D01*
X144477018Y-102500000D01*
X145781928Y-102500000D01*
X145794188Y-102624482D01*
X145830498Y-102744180D01*
X145889463Y-102854494D01*
X145968815Y-102951185D01*
X146065506Y-103030537D01*
X146175820Y-103089502D01*
X146295518Y-103125812D01*
X146420000Y-103138072D01*
X147034250Y-103135000D01*
X147193000Y-102976250D01*
X147193000Y-101727000D01*
X145943750Y-101727000D01*
X145785000Y-101885750D01*
X145781928Y-102500000D01*
X144477018Y-102500000D01*
X144427205Y-102379744D01*
X144313937Y-102210226D01*
X144270000Y-102166289D01*
X144270000Y-101033711D01*
X144313937Y-100989774D01*
X144427205Y-100820256D01*
X144477017Y-100700000D01*
X145781928Y-100700000D01*
X145785000Y-101314250D01*
X145943750Y-101473000D01*
X147193000Y-101473000D01*
X147193000Y-100223750D01*
X147447000Y-100223750D01*
X147447000Y-101473000D01*
X147467000Y-101473000D01*
X147467000Y-101727000D01*
X147447000Y-101727000D01*
X147447000Y-102976250D01*
X147605750Y-103135000D01*
X148220000Y-103138072D01*
X148344482Y-103125812D01*
X148464180Y-103089502D01*
X148574494Y-103030537D01*
X148671185Y-102951185D01*
X148750537Y-102854494D01*
X148809502Y-102744180D01*
X148815056Y-102725873D01*
X148881495Y-102792312D01*
X149132905Y-102960299D01*
X149412257Y-103076011D01*
X149708816Y-103135000D01*
X150011184Y-103135000D01*
X150307743Y-103076011D01*
X150587095Y-102960299D01*
X150838505Y-102792312D01*
X151052312Y-102578505D01*
X151220299Y-102327095D01*
X151336011Y-102047743D01*
X151395000Y-101751184D01*
X151395000Y-101448816D01*
X151336011Y-101152257D01*
X151220299Y-100872905D01*
X151052312Y-100621495D01*
X150838505Y-100407688D01*
X150587095Y-100239701D01*
X150307743Y-100123989D01*
X150011184Y-100065000D01*
X149708816Y-100065000D01*
X149412257Y-100123989D01*
X149132905Y-100239701D01*
X148881495Y-100407688D01*
X148815056Y-100474127D01*
X148809502Y-100455820D01*
X148750537Y-100345506D01*
X148671185Y-100248815D01*
X148574494Y-100169463D01*
X148464180Y-100110498D01*
X148344482Y-100074188D01*
X148220000Y-100061928D01*
X147605750Y-100065000D01*
X147447000Y-100223750D01*
X147193000Y-100223750D01*
X147034250Y-100065000D01*
X146420000Y-100061928D01*
X146295518Y-100074188D01*
X146175820Y-100110498D01*
X146065506Y-100169463D01*
X145968815Y-100248815D01*
X145889463Y-100345506D01*
X145830498Y-100455820D01*
X145794188Y-100575518D01*
X145781928Y-100700000D01*
X144477017Y-100700000D01*
X144505226Y-100631898D01*
X144545000Y-100431939D01*
X144545000Y-100228061D01*
X144505226Y-100028102D01*
X144427205Y-99839744D01*
X144313937Y-99670226D01*
X144169774Y-99526063D01*
X144000256Y-99412795D01*
X143811898Y-99334774D01*
X143611939Y-99295000D01*
X143408061Y-99295000D01*
X143208102Y-99334774D01*
X143019744Y-99412795D01*
X142850226Y-99526063D01*
X142706063Y-99670226D01*
X142592795Y-99839744D01*
X142514774Y-100028102D01*
X142475000Y-100228061D01*
X142475000Y-100431939D01*
X142514774Y-100631898D01*
X142592795Y-100820256D01*
X142706063Y-100989774D01*
X142750000Y-101033711D01*
X142750001Y-102166288D01*
X142706063Y-102210226D01*
X142592795Y-102379744D01*
X142514774Y-102568102D01*
X142475000Y-102768061D01*
X142475000Y-102971939D01*
X142514774Y-103171898D01*
X142592795Y-103360256D01*
X142605987Y-103380000D01*
X141008363Y-103380000D01*
X141057571Y-103276004D01*
X141126300Y-103001816D01*
X141140217Y-102719488D01*
X141098787Y-102439870D01*
X141003603Y-102173708D01*
X140936671Y-102048486D01*
X140692702Y-101976903D01*
X139879605Y-102790000D01*
X139893748Y-102804143D01*
X139714143Y-102983748D01*
X139700000Y-102969605D01*
X139685858Y-102983748D01*
X139506253Y-102804143D01*
X139520395Y-102790000D01*
X139506253Y-102775858D01*
X139685858Y-102596253D01*
X139700000Y-102610395D01*
X140513097Y-101797298D01*
X140441514Y-101553329D01*
X140186004Y-101432429D01*
X139911816Y-101363700D01*
X139749121Y-101355680D01*
X143824802Y-97280000D01*
X152966289Y-97280000D01*
X153010226Y-97323937D01*
X153179744Y-97437205D01*
X153368102Y-97515226D01*
X153568061Y-97555000D01*
X153771939Y-97555000D01*
X153971898Y-97515226D01*
X154160256Y-97437205D01*
X154329774Y-97323937D01*
X154473937Y-97179774D01*
X154587205Y-97010256D01*
X154665226Y-96821898D01*
X154705000Y-96621939D01*
X154705000Y-96418061D01*
X154665226Y-96218102D01*
X154587205Y-96029744D01*
X154473937Y-95860226D01*
X154329774Y-95716063D01*
X154160256Y-95602795D01*
X153971898Y-95524774D01*
X153771939Y-95485000D01*
X153568061Y-95485000D01*
X153368102Y-95524774D01*
X153179744Y-95602795D01*
X153010226Y-95716063D01*
X152966289Y-95760000D01*
X143547322Y-95760000D01*
X143509999Y-95756324D01*
X143472676Y-95760000D01*
X143472667Y-95760000D01*
X143361014Y-95770997D01*
X143217753Y-95814454D01*
X143085724Y-95885026D01*
X142969999Y-95979999D01*
X142946201Y-96008997D01*
X141135000Y-97820198D01*
X141135000Y-97648665D01*
X141079853Y-97371426D01*
X140971680Y-97110273D01*
X140814637Y-96875241D01*
X140614759Y-96675363D01*
X140379727Y-96518320D01*
X140118574Y-96410147D01*
X139841335Y-96355000D01*
X139558665Y-96355000D01*
X139281426Y-96410147D01*
X139020273Y-96518320D01*
X138785241Y-96675363D01*
X138585363Y-96875241D01*
X138428320Y-97110273D01*
X138320147Y-97371426D01*
X138265000Y-97648665D01*
X138265000Y-97931335D01*
X138320147Y-98208574D01*
X138428320Y-98469727D01*
X138585363Y-98704759D01*
X138785241Y-98904637D01*
X139020273Y-99061680D01*
X139281426Y-99169853D01*
X139558665Y-99225000D01*
X139730199Y-99225000D01*
X138050200Y-100904999D01*
X132108491Y-100904999D01*
X132189853Y-100708574D01*
X132245000Y-100431335D01*
X132245000Y-100148665D01*
X132189853Y-99871426D01*
X132081680Y-99610273D01*
X131924637Y-99375241D01*
X131724759Y-99175363D01*
X131524131Y-99041308D01*
X131551514Y-99026671D01*
X131623097Y-98782702D01*
X131563984Y-98723589D01*
X133235000Y-98723589D01*
X133235000Y-98996411D01*
X133288225Y-99263989D01*
X133392629Y-99516043D01*
X133544201Y-99742886D01*
X133737114Y-99935799D01*
X133963957Y-100087371D01*
X134216011Y-100191775D01*
X134483589Y-100245000D01*
X134756411Y-100245000D01*
X135023989Y-100191775D01*
X135276043Y-100087371D01*
X135502886Y-99935799D01*
X135695799Y-99742886D01*
X135847371Y-99516043D01*
X135951775Y-99263989D01*
X136005000Y-98996411D01*
X136005000Y-98723589D01*
X135951775Y-98456011D01*
X135847371Y-98203957D01*
X135695799Y-97977114D01*
X135502886Y-97784201D01*
X135276043Y-97632629D01*
X135023989Y-97528225D01*
X134756411Y-97475000D01*
X134483589Y-97475000D01*
X134216011Y-97528225D01*
X133963957Y-97632629D01*
X133737114Y-97784201D01*
X133544201Y-97977114D01*
X133392629Y-98203957D01*
X133288225Y-98456011D01*
X133235000Y-98723589D01*
X131563984Y-98723589D01*
X130810000Y-97969605D01*
X129996903Y-98782702D01*
X130068486Y-99026671D01*
X130097341Y-99040324D01*
X129895241Y-99175363D01*
X129695363Y-99375241D01*
X129538320Y-99610273D01*
X129430147Y-99871426D01*
X129375000Y-100148665D01*
X129375000Y-100431335D01*
X129430147Y-100708574D01*
X129511509Y-100904999D01*
X125702326Y-100904999D01*
X125665001Y-100901323D01*
X125627676Y-100904999D01*
X125627668Y-100904999D01*
X125516015Y-100915996D01*
X125372754Y-100959453D01*
X125240725Y-101030025D01*
X125125000Y-101124998D01*
X125101202Y-101153996D01*
X124420199Y-101835000D01*
X124358061Y-101835000D01*
X124158102Y-101874774D01*
X123969744Y-101952795D01*
X123800226Y-102066063D01*
X123656063Y-102210226D01*
X123542795Y-102379744D01*
X123464774Y-102568102D01*
X123425000Y-102768061D01*
X120415000Y-102768061D01*
X120375226Y-102568102D01*
X120297205Y-102379744D01*
X120183937Y-102210226D01*
X120039774Y-102066063D01*
X119870256Y-101952795D01*
X119681898Y-101874774D01*
X119481939Y-101835000D01*
X119419802Y-101835000D01*
X118870000Y-101285199D01*
X118870000Y-99763711D01*
X118913937Y-99719774D01*
X119027205Y-99550256D01*
X119105226Y-99361898D01*
X119145000Y-99161939D01*
X119145000Y-98958061D01*
X119105226Y-98758102D01*
X119027205Y-98569744D01*
X118913937Y-98400226D01*
X118769774Y-98256063D01*
X118600256Y-98142795D01*
X118411898Y-98064774D01*
X118211939Y-98025000D01*
X118008061Y-98025000D01*
X117808102Y-98064774D01*
X117710776Y-98105088D01*
X117729301Y-97917000D01*
X118110000Y-97917000D01*
X118134776Y-97914560D01*
X118166796Y-97903592D01*
X118252956Y-97860512D01*
X129369783Y-97860512D01*
X129411213Y-98140130D01*
X129506397Y-98406292D01*
X129573329Y-98531514D01*
X129817298Y-98603097D01*
X130630395Y-97790000D01*
X130989605Y-97790000D01*
X131802702Y-98603097D01*
X132046671Y-98531514D01*
X132167571Y-98276004D01*
X132236300Y-98001816D01*
X132250217Y-97719488D01*
X132208787Y-97439870D01*
X132113603Y-97173708D01*
X132046671Y-97048486D01*
X131802702Y-96976903D01*
X130989605Y-97790000D01*
X130630395Y-97790000D01*
X129817298Y-96976903D01*
X129573329Y-97048486D01*
X129452429Y-97303996D01*
X129383700Y-97578184D01*
X129369783Y-97860512D01*
X118252956Y-97860512D01*
X121568576Y-96202702D01*
X129996903Y-96202702D01*
X130068486Y-96446671D01*
X130174331Y-96496754D01*
X130068486Y-96553329D01*
X129996903Y-96797298D01*
X130810000Y-97610395D01*
X131623097Y-96797298D01*
X131551514Y-96553329D01*
X131445669Y-96503246D01*
X131551514Y-96446671D01*
X131623097Y-96202702D01*
X130810000Y-95389605D01*
X129996903Y-96202702D01*
X121568576Y-96202702D01*
X123412956Y-95280512D01*
X129369783Y-95280512D01*
X129411213Y-95560130D01*
X129506397Y-95826292D01*
X129573329Y-95951514D01*
X129817298Y-96023097D01*
X130630395Y-95210000D01*
X130989605Y-95210000D01*
X131802702Y-96023097D01*
X132046671Y-95951514D01*
X132167571Y-95696004D01*
X132236300Y-95421816D01*
X132250217Y-95139488D01*
X132208787Y-94859870D01*
X132113603Y-94593708D01*
X132046671Y-94468486D01*
X131802702Y-94396903D01*
X130989605Y-95210000D01*
X130630395Y-95210000D01*
X129817298Y-94396903D01*
X129573329Y-94468486D01*
X129452429Y-94723996D01*
X129383700Y-94998184D01*
X129369783Y-95280512D01*
X123412956Y-95280512D01*
X129440339Y-92266821D01*
X129430147Y-92291426D01*
X129375000Y-92568665D01*
X129375000Y-92851335D01*
X129430147Y-93128574D01*
X129538320Y-93389727D01*
X129695363Y-93624759D01*
X129895241Y-93824637D01*
X130095869Y-93958692D01*
X130068486Y-93973329D01*
X129996903Y-94217298D01*
X130810000Y-95030395D01*
X131623097Y-94217298D01*
X131551514Y-93973329D01*
X131522659Y-93959676D01*
X131696395Y-93843589D01*
X133235000Y-93843589D01*
X133235000Y-94116411D01*
X133288225Y-94383989D01*
X133392629Y-94636043D01*
X133544201Y-94862886D01*
X133737114Y-95055799D01*
X133963957Y-95207371D01*
X134216011Y-95311775D01*
X134483589Y-95365000D01*
X134756411Y-95365000D01*
X135023989Y-95311775D01*
X135276043Y-95207371D01*
X135502886Y-95055799D01*
X135678685Y-94880000D01*
X145781928Y-94880000D01*
X145794188Y-95004482D01*
X145830498Y-95124180D01*
X145889463Y-95234494D01*
X145968815Y-95331185D01*
X146065506Y-95410537D01*
X146175820Y-95469502D01*
X146295518Y-95505812D01*
X146420000Y-95518072D01*
X147034250Y-95515000D01*
X147193000Y-95356250D01*
X147193000Y-94107000D01*
X145943750Y-94107000D01*
X145785000Y-94265750D01*
X145781928Y-94880000D01*
X135678685Y-94880000D01*
X135695799Y-94862886D01*
X135847371Y-94636043D01*
X135951775Y-94383989D01*
X136005000Y-94116411D01*
X136005000Y-93843589D01*
X135951775Y-93576011D01*
X135847371Y-93323957D01*
X135695799Y-93097114D01*
X135678685Y-93080000D01*
X145781928Y-93080000D01*
X145785000Y-93694250D01*
X145943750Y-93853000D01*
X147193000Y-93853000D01*
X147193000Y-92603750D01*
X147447000Y-92603750D01*
X147447000Y-93853000D01*
X147467000Y-93853000D01*
X147467000Y-94107000D01*
X147447000Y-94107000D01*
X147447000Y-95356250D01*
X147605750Y-95515000D01*
X148220000Y-95518072D01*
X148344482Y-95505812D01*
X148464180Y-95469502D01*
X148574494Y-95410537D01*
X148671185Y-95331185D01*
X148750537Y-95234494D01*
X148809502Y-95124180D01*
X148815056Y-95105873D01*
X148881495Y-95172312D01*
X149132905Y-95340299D01*
X149412257Y-95456011D01*
X149708816Y-95515000D01*
X150011184Y-95515000D01*
X150307743Y-95456011D01*
X150587095Y-95340299D01*
X150838505Y-95172312D01*
X151052312Y-94958505D01*
X151220299Y-94707095D01*
X151336011Y-94427743D01*
X151395000Y-94131184D01*
X151395000Y-93828816D01*
X151336011Y-93532257D01*
X151220299Y-93252905D01*
X151052312Y-93001495D01*
X150838505Y-92787688D01*
X150587095Y-92619701D01*
X150307743Y-92503989D01*
X150011184Y-92445000D01*
X149708816Y-92445000D01*
X149412257Y-92503989D01*
X149132905Y-92619701D01*
X148881495Y-92787688D01*
X148815056Y-92854127D01*
X148809502Y-92835820D01*
X148750537Y-92725506D01*
X148671185Y-92628815D01*
X148574494Y-92549463D01*
X148464180Y-92490498D01*
X148344482Y-92454188D01*
X148220000Y-92441928D01*
X147605750Y-92445000D01*
X147447000Y-92603750D01*
X147193000Y-92603750D01*
X147034250Y-92445000D01*
X146420000Y-92441928D01*
X146295518Y-92454188D01*
X146175820Y-92490498D01*
X146065506Y-92549463D01*
X145968815Y-92628815D01*
X145889463Y-92725506D01*
X145830498Y-92835820D01*
X145794188Y-92955518D01*
X145781928Y-93080000D01*
X135678685Y-93080000D01*
X135502886Y-92904201D01*
X135276043Y-92752629D01*
X135023989Y-92648225D01*
X134756411Y-92595000D01*
X134483589Y-92595000D01*
X134216011Y-92648225D01*
X133963957Y-92752629D01*
X133737114Y-92904201D01*
X133544201Y-93097114D01*
X133392629Y-93323957D01*
X133288225Y-93576011D01*
X133235000Y-93843589D01*
X131696395Y-93843589D01*
X131724759Y-93824637D01*
X131924637Y-93624759D01*
X132081680Y-93389727D01*
X132189853Y-93128574D01*
X132245000Y-92851335D01*
X132245000Y-92568665D01*
X132189853Y-92291426D01*
X132081680Y-92030273D01*
X131924637Y-91795241D01*
X131724759Y-91595363D01*
X131682311Y-91567000D01*
X159876593Y-91567000D01*
X159850498Y-91615820D01*
G37*
%TD.AperFunction*%
%TD*%
M02*
