%TF.GenerationSoftware,KiCad,Pcbnew,(5.1.7)-1*%
%TF.CreationDate,2020-12-05T19:57:28+01:00*%
%TF.ProjectId,WiFi-RC-Switch-Programmer,57694669-2d52-4432-9d53-77697463682d,rev?*%
%TF.SameCoordinates,Original*%
%TF.FileFunction,Soldermask,Top*%
%TF.FilePolarity,Negative*%
%FSLAX46Y46*%
G04 Gerber Fmt 4.6, Leading zero omitted, Abs format (unit mm)*
G04 Created by KiCad (PCBNEW (5.1.7)-1) date 2020-12-05 19:57:28*
%MOMM*%
%LPD*%
G01*
G04 APERTURE LIST*
%ADD10C,1.600000*%
%ADD11R,1.800000X1.800000*%
%ADD12C,1.800000*%
%ADD13C,0.900000*%
%ADD14O,2.300000X1.200000*%
%ADD15R,1.700000X1.700000*%
%ADD16O,1.700000X1.700000*%
%ADD17C,0.100000*%
%ADD18R,2.000000X3.800000*%
%ADD19R,2.000000X1.500000*%
%ADD20C,1.500000*%
G04 APERTURE END LIST*
D10*
%TO.C,C1*%
X133350000Y-105490000D03*
X133350000Y-110490000D03*
%TD*%
%TO.C,C2*%
X139700000Y-97790000D03*
X139700000Y-102790000D03*
%TD*%
%TO.C,C3*%
X130810000Y-97790000D03*
X130810000Y-100290000D03*
%TD*%
%TO.C,C4*%
X130810000Y-92710000D03*
X130810000Y-95210000D03*
%TD*%
%TO.C,C5*%
X129540000Y-102950000D03*
X129540000Y-107950000D03*
%TD*%
D11*
%TO.C,D1*%
X147320000Y-93980000D03*
D12*
X149860000Y-93980000D03*
%TD*%
%TO.C,D2*%
X149860000Y-101600000D03*
D11*
X147320000Y-101600000D03*
%TD*%
%TO.C,D3*%
X147320000Y-109220000D03*
D12*
X149860000Y-109220000D03*
%TD*%
D13*
%TO.C,J1*%
X116840000Y-101600000D03*
X116840000Y-100000000D03*
X115640000Y-100800000D03*
X115640000Y-102400000D03*
X116840000Y-103200000D03*
D14*
X115940000Y-105300000D03*
X115940000Y-97900000D03*
X111240000Y-97900000D03*
X111240000Y-105300000D03*
%TD*%
D15*
%TO.C,J2*%
X161290000Y-92710000D03*
D16*
X161290000Y-95250000D03*
X161290000Y-97790000D03*
X161290000Y-100330000D03*
X161290000Y-102870000D03*
X161290000Y-105410000D03*
X161290000Y-107950000D03*
X161290000Y-110490000D03*
%TD*%
D17*
%TO.C,JP1*%
G36*
X156860000Y-109740602D02*
G01*
X156884534Y-109740602D01*
X156933365Y-109745412D01*
X156981490Y-109754984D01*
X157028445Y-109769228D01*
X157073778Y-109788005D01*
X157117051Y-109811136D01*
X157157850Y-109838396D01*
X157195779Y-109869524D01*
X157230476Y-109904221D01*
X157261604Y-109942150D01*
X157288864Y-109982949D01*
X157311995Y-110026222D01*
X157330772Y-110071555D01*
X157345016Y-110118510D01*
X157354588Y-110166635D01*
X157359398Y-110215466D01*
X157359398Y-110240000D01*
X157360000Y-110240000D01*
X157360000Y-110740000D01*
X157359398Y-110740000D01*
X157359398Y-110764534D01*
X157354588Y-110813365D01*
X157345016Y-110861490D01*
X157330772Y-110908445D01*
X157311995Y-110953778D01*
X157288864Y-110997051D01*
X157261604Y-111037850D01*
X157230476Y-111075779D01*
X157195779Y-111110476D01*
X157157850Y-111141604D01*
X157117051Y-111168864D01*
X157073778Y-111191995D01*
X157028445Y-111210772D01*
X156981490Y-111225016D01*
X156933365Y-111234588D01*
X156884534Y-111239398D01*
X156860000Y-111239398D01*
X156860000Y-111240000D01*
X156360000Y-111240000D01*
X156360000Y-109740000D01*
X156860000Y-109740000D01*
X156860000Y-109740602D01*
G37*
G36*
X156060000Y-111240000D02*
G01*
X155560000Y-111240000D01*
X155560000Y-111239398D01*
X155535466Y-111239398D01*
X155486635Y-111234588D01*
X155438510Y-111225016D01*
X155391555Y-111210772D01*
X155346222Y-111191995D01*
X155302949Y-111168864D01*
X155262150Y-111141604D01*
X155224221Y-111110476D01*
X155189524Y-111075779D01*
X155158396Y-111037850D01*
X155131136Y-110997051D01*
X155108005Y-110953778D01*
X155089228Y-110908445D01*
X155074984Y-110861490D01*
X155065412Y-110813365D01*
X155060602Y-110764534D01*
X155060602Y-110740000D01*
X155060000Y-110740000D01*
X155060000Y-110240000D01*
X155060602Y-110240000D01*
X155060602Y-110215466D01*
X155065412Y-110166635D01*
X155074984Y-110118510D01*
X155089228Y-110071555D01*
X155108005Y-110026222D01*
X155131136Y-109982949D01*
X155158396Y-109942150D01*
X155189524Y-109904221D01*
X155224221Y-109869524D01*
X155262150Y-109838396D01*
X155302949Y-109811136D01*
X155346222Y-109788005D01*
X155391555Y-109769228D01*
X155438510Y-109754984D01*
X155486635Y-109745412D01*
X155535466Y-109740602D01*
X155560000Y-109740602D01*
X155560000Y-109740000D01*
X156060000Y-109740000D01*
X156060000Y-111240000D01*
G37*
%TD*%
%TO.C,JP2*%
G36*
X156060000Y-108700000D02*
G01*
X155560000Y-108700000D01*
X155560000Y-108699398D01*
X155535466Y-108699398D01*
X155486635Y-108694588D01*
X155438510Y-108685016D01*
X155391555Y-108670772D01*
X155346222Y-108651995D01*
X155302949Y-108628864D01*
X155262150Y-108601604D01*
X155224221Y-108570476D01*
X155189524Y-108535779D01*
X155158396Y-108497850D01*
X155131136Y-108457051D01*
X155108005Y-108413778D01*
X155089228Y-108368445D01*
X155074984Y-108321490D01*
X155065412Y-108273365D01*
X155060602Y-108224534D01*
X155060602Y-108200000D01*
X155060000Y-108200000D01*
X155060000Y-107700000D01*
X155060602Y-107700000D01*
X155060602Y-107675466D01*
X155065412Y-107626635D01*
X155074984Y-107578510D01*
X155089228Y-107531555D01*
X155108005Y-107486222D01*
X155131136Y-107442949D01*
X155158396Y-107402150D01*
X155189524Y-107364221D01*
X155224221Y-107329524D01*
X155262150Y-107298396D01*
X155302949Y-107271136D01*
X155346222Y-107248005D01*
X155391555Y-107229228D01*
X155438510Y-107214984D01*
X155486635Y-107205412D01*
X155535466Y-107200602D01*
X155560000Y-107200602D01*
X155560000Y-107200000D01*
X156060000Y-107200000D01*
X156060000Y-108700000D01*
G37*
G36*
X156860000Y-107200602D02*
G01*
X156884534Y-107200602D01*
X156933365Y-107205412D01*
X156981490Y-107214984D01*
X157028445Y-107229228D01*
X157073778Y-107248005D01*
X157117051Y-107271136D01*
X157157850Y-107298396D01*
X157195779Y-107329524D01*
X157230476Y-107364221D01*
X157261604Y-107402150D01*
X157288864Y-107442949D01*
X157311995Y-107486222D01*
X157330772Y-107531555D01*
X157345016Y-107578510D01*
X157354588Y-107626635D01*
X157359398Y-107675466D01*
X157359398Y-107700000D01*
X157360000Y-107700000D01*
X157360000Y-108200000D01*
X157359398Y-108200000D01*
X157359398Y-108224534D01*
X157354588Y-108273365D01*
X157345016Y-108321490D01*
X157330772Y-108368445D01*
X157311995Y-108413778D01*
X157288864Y-108457051D01*
X157261604Y-108497850D01*
X157230476Y-108535779D01*
X157195779Y-108570476D01*
X157157850Y-108601604D01*
X157117051Y-108628864D01*
X157073778Y-108651995D01*
X157028445Y-108670772D01*
X156981490Y-108685016D01*
X156933365Y-108694588D01*
X156884534Y-108699398D01*
X156860000Y-108699398D01*
X156860000Y-108700000D01*
X156360000Y-108700000D01*
X156360000Y-107200000D01*
X156860000Y-107200000D01*
X156860000Y-107200602D01*
G37*
%TD*%
%TO.C,JP3*%
G36*
X156860000Y-104660602D02*
G01*
X156884534Y-104660602D01*
X156933365Y-104665412D01*
X156981490Y-104674984D01*
X157028445Y-104689228D01*
X157073778Y-104708005D01*
X157117051Y-104731136D01*
X157157850Y-104758396D01*
X157195779Y-104789524D01*
X157230476Y-104824221D01*
X157261604Y-104862150D01*
X157288864Y-104902949D01*
X157311995Y-104946222D01*
X157330772Y-104991555D01*
X157345016Y-105038510D01*
X157354588Y-105086635D01*
X157359398Y-105135466D01*
X157359398Y-105160000D01*
X157360000Y-105160000D01*
X157360000Y-105660000D01*
X157359398Y-105660000D01*
X157359398Y-105684534D01*
X157354588Y-105733365D01*
X157345016Y-105781490D01*
X157330772Y-105828445D01*
X157311995Y-105873778D01*
X157288864Y-105917051D01*
X157261604Y-105957850D01*
X157230476Y-105995779D01*
X157195779Y-106030476D01*
X157157850Y-106061604D01*
X157117051Y-106088864D01*
X157073778Y-106111995D01*
X157028445Y-106130772D01*
X156981490Y-106145016D01*
X156933365Y-106154588D01*
X156884534Y-106159398D01*
X156860000Y-106159398D01*
X156860000Y-106160000D01*
X156360000Y-106160000D01*
X156360000Y-104660000D01*
X156860000Y-104660000D01*
X156860000Y-104660602D01*
G37*
G36*
X156060000Y-106160000D02*
G01*
X155560000Y-106160000D01*
X155560000Y-106159398D01*
X155535466Y-106159398D01*
X155486635Y-106154588D01*
X155438510Y-106145016D01*
X155391555Y-106130772D01*
X155346222Y-106111995D01*
X155302949Y-106088864D01*
X155262150Y-106061604D01*
X155224221Y-106030476D01*
X155189524Y-105995779D01*
X155158396Y-105957850D01*
X155131136Y-105917051D01*
X155108005Y-105873778D01*
X155089228Y-105828445D01*
X155074984Y-105781490D01*
X155065412Y-105733365D01*
X155060602Y-105684534D01*
X155060602Y-105660000D01*
X155060000Y-105660000D01*
X155060000Y-105160000D01*
X155060602Y-105160000D01*
X155060602Y-105135466D01*
X155065412Y-105086635D01*
X155074984Y-105038510D01*
X155089228Y-104991555D01*
X155108005Y-104946222D01*
X155131136Y-104902949D01*
X155158396Y-104862150D01*
X155189524Y-104824221D01*
X155224221Y-104789524D01*
X155262150Y-104758396D01*
X155302949Y-104731136D01*
X155346222Y-104708005D01*
X155391555Y-104689228D01*
X155438510Y-104674984D01*
X155486635Y-104665412D01*
X155535466Y-104660602D01*
X155560000Y-104660602D01*
X155560000Y-104660000D01*
X156060000Y-104660000D01*
X156060000Y-106160000D01*
G37*
%TD*%
%TO.C,JP4*%
G36*
X156060000Y-103620000D02*
G01*
X155560000Y-103620000D01*
X155560000Y-103619398D01*
X155535466Y-103619398D01*
X155486635Y-103614588D01*
X155438510Y-103605016D01*
X155391555Y-103590772D01*
X155346222Y-103571995D01*
X155302949Y-103548864D01*
X155262150Y-103521604D01*
X155224221Y-103490476D01*
X155189524Y-103455779D01*
X155158396Y-103417850D01*
X155131136Y-103377051D01*
X155108005Y-103333778D01*
X155089228Y-103288445D01*
X155074984Y-103241490D01*
X155065412Y-103193365D01*
X155060602Y-103144534D01*
X155060602Y-103120000D01*
X155060000Y-103120000D01*
X155060000Y-102620000D01*
X155060602Y-102620000D01*
X155060602Y-102595466D01*
X155065412Y-102546635D01*
X155074984Y-102498510D01*
X155089228Y-102451555D01*
X155108005Y-102406222D01*
X155131136Y-102362949D01*
X155158396Y-102322150D01*
X155189524Y-102284221D01*
X155224221Y-102249524D01*
X155262150Y-102218396D01*
X155302949Y-102191136D01*
X155346222Y-102168005D01*
X155391555Y-102149228D01*
X155438510Y-102134984D01*
X155486635Y-102125412D01*
X155535466Y-102120602D01*
X155560000Y-102120602D01*
X155560000Y-102120000D01*
X156060000Y-102120000D01*
X156060000Y-103620000D01*
G37*
G36*
X156860000Y-102120602D02*
G01*
X156884534Y-102120602D01*
X156933365Y-102125412D01*
X156981490Y-102134984D01*
X157028445Y-102149228D01*
X157073778Y-102168005D01*
X157117051Y-102191136D01*
X157157850Y-102218396D01*
X157195779Y-102249524D01*
X157230476Y-102284221D01*
X157261604Y-102322150D01*
X157288864Y-102362949D01*
X157311995Y-102406222D01*
X157330772Y-102451555D01*
X157345016Y-102498510D01*
X157354588Y-102546635D01*
X157359398Y-102595466D01*
X157359398Y-102620000D01*
X157360000Y-102620000D01*
X157360000Y-103120000D01*
X157359398Y-103120000D01*
X157359398Y-103144534D01*
X157354588Y-103193365D01*
X157345016Y-103241490D01*
X157330772Y-103288445D01*
X157311995Y-103333778D01*
X157288864Y-103377051D01*
X157261604Y-103417850D01*
X157230476Y-103455779D01*
X157195779Y-103490476D01*
X157157850Y-103521604D01*
X157117051Y-103548864D01*
X157073778Y-103571995D01*
X157028445Y-103590772D01*
X156981490Y-103605016D01*
X156933365Y-103614588D01*
X156884534Y-103619398D01*
X156860000Y-103619398D01*
X156860000Y-103620000D01*
X156360000Y-103620000D01*
X156360000Y-102120000D01*
X156860000Y-102120000D01*
X156860000Y-102120602D01*
G37*
%TD*%
%TO.C,JP5*%
G36*
X156060000Y-101080000D02*
G01*
X155560000Y-101080000D01*
X155560000Y-101079398D01*
X155535466Y-101079398D01*
X155486635Y-101074588D01*
X155438510Y-101065016D01*
X155391555Y-101050772D01*
X155346222Y-101031995D01*
X155302949Y-101008864D01*
X155262150Y-100981604D01*
X155224221Y-100950476D01*
X155189524Y-100915779D01*
X155158396Y-100877850D01*
X155131136Y-100837051D01*
X155108005Y-100793778D01*
X155089228Y-100748445D01*
X155074984Y-100701490D01*
X155065412Y-100653365D01*
X155060602Y-100604534D01*
X155060602Y-100580000D01*
X155060000Y-100580000D01*
X155060000Y-100080000D01*
X155060602Y-100080000D01*
X155060602Y-100055466D01*
X155065412Y-100006635D01*
X155074984Y-99958510D01*
X155089228Y-99911555D01*
X155108005Y-99866222D01*
X155131136Y-99822949D01*
X155158396Y-99782150D01*
X155189524Y-99744221D01*
X155224221Y-99709524D01*
X155262150Y-99678396D01*
X155302949Y-99651136D01*
X155346222Y-99628005D01*
X155391555Y-99609228D01*
X155438510Y-99594984D01*
X155486635Y-99585412D01*
X155535466Y-99580602D01*
X155560000Y-99580602D01*
X155560000Y-99580000D01*
X156060000Y-99580000D01*
X156060000Y-101080000D01*
G37*
G36*
X156860000Y-99580602D02*
G01*
X156884534Y-99580602D01*
X156933365Y-99585412D01*
X156981490Y-99594984D01*
X157028445Y-99609228D01*
X157073778Y-99628005D01*
X157117051Y-99651136D01*
X157157850Y-99678396D01*
X157195779Y-99709524D01*
X157230476Y-99744221D01*
X157261604Y-99782150D01*
X157288864Y-99822949D01*
X157311995Y-99866222D01*
X157330772Y-99911555D01*
X157345016Y-99958510D01*
X157354588Y-100006635D01*
X157359398Y-100055466D01*
X157359398Y-100080000D01*
X157360000Y-100080000D01*
X157360000Y-100580000D01*
X157359398Y-100580000D01*
X157359398Y-100604534D01*
X157354588Y-100653365D01*
X157345016Y-100701490D01*
X157330772Y-100748445D01*
X157311995Y-100793778D01*
X157288864Y-100837051D01*
X157261604Y-100877850D01*
X157230476Y-100915779D01*
X157195779Y-100950476D01*
X157157850Y-100981604D01*
X157117051Y-101008864D01*
X157073778Y-101031995D01*
X157028445Y-101050772D01*
X156981490Y-101065016D01*
X156933365Y-101074588D01*
X156884534Y-101079398D01*
X156860000Y-101079398D01*
X156860000Y-101080000D01*
X156360000Y-101080000D01*
X156360000Y-99580000D01*
X156860000Y-99580000D01*
X156860000Y-99580602D01*
G37*
%TD*%
%TO.C,JP6*%
G36*
X156845000Y-97040602D02*
G01*
X156869534Y-97040602D01*
X156918365Y-97045412D01*
X156966490Y-97054984D01*
X157013445Y-97069228D01*
X157058778Y-97088005D01*
X157102051Y-97111136D01*
X157142850Y-97138396D01*
X157180779Y-97169524D01*
X157215476Y-97204221D01*
X157246604Y-97242150D01*
X157273864Y-97282949D01*
X157296995Y-97326222D01*
X157315772Y-97371555D01*
X157330016Y-97418510D01*
X157339588Y-97466635D01*
X157344398Y-97515466D01*
X157344398Y-97540000D01*
X157345000Y-97540000D01*
X157345000Y-98040000D01*
X157344398Y-98040000D01*
X157344398Y-98064534D01*
X157339588Y-98113365D01*
X157330016Y-98161490D01*
X157315772Y-98208445D01*
X157296995Y-98253778D01*
X157273864Y-98297051D01*
X157246604Y-98337850D01*
X157215476Y-98375779D01*
X157180779Y-98410476D01*
X157142850Y-98441604D01*
X157102051Y-98468864D01*
X157058778Y-98491995D01*
X157013445Y-98510772D01*
X156966490Y-98525016D01*
X156918365Y-98534588D01*
X156869534Y-98539398D01*
X156845000Y-98539398D01*
X156845000Y-98540000D01*
X156345000Y-98540000D01*
X156345000Y-97040000D01*
X156845000Y-97040000D01*
X156845000Y-97040602D01*
G37*
G36*
X156045000Y-98540000D02*
G01*
X155545000Y-98540000D01*
X155545000Y-98539398D01*
X155520466Y-98539398D01*
X155471635Y-98534588D01*
X155423510Y-98525016D01*
X155376555Y-98510772D01*
X155331222Y-98491995D01*
X155287949Y-98468864D01*
X155247150Y-98441604D01*
X155209221Y-98410476D01*
X155174524Y-98375779D01*
X155143396Y-98337850D01*
X155116136Y-98297051D01*
X155093005Y-98253778D01*
X155074228Y-98208445D01*
X155059984Y-98161490D01*
X155050412Y-98113365D01*
X155045602Y-98064534D01*
X155045602Y-98040000D01*
X155045000Y-98040000D01*
X155045000Y-97540000D01*
X155045602Y-97540000D01*
X155045602Y-97515466D01*
X155050412Y-97466635D01*
X155059984Y-97418510D01*
X155074228Y-97371555D01*
X155093005Y-97326222D01*
X155116136Y-97282949D01*
X155143396Y-97242150D01*
X155174524Y-97204221D01*
X155209221Y-97169524D01*
X155247150Y-97138396D01*
X155287949Y-97111136D01*
X155331222Y-97088005D01*
X155376555Y-97069228D01*
X155423510Y-97054984D01*
X155471635Y-97045412D01*
X155520466Y-97040602D01*
X155545000Y-97040602D01*
X155545000Y-97040000D01*
X156045000Y-97040000D01*
X156045000Y-98540000D01*
G37*
%TD*%
%TO.C,JP7*%
G36*
X156060000Y-96000000D02*
G01*
X155560000Y-96000000D01*
X155560000Y-95999398D01*
X155535466Y-95999398D01*
X155486635Y-95994588D01*
X155438510Y-95985016D01*
X155391555Y-95970772D01*
X155346222Y-95951995D01*
X155302949Y-95928864D01*
X155262150Y-95901604D01*
X155224221Y-95870476D01*
X155189524Y-95835779D01*
X155158396Y-95797850D01*
X155131136Y-95757051D01*
X155108005Y-95713778D01*
X155089228Y-95668445D01*
X155074984Y-95621490D01*
X155065412Y-95573365D01*
X155060602Y-95524534D01*
X155060602Y-95500000D01*
X155060000Y-95500000D01*
X155060000Y-95000000D01*
X155060602Y-95000000D01*
X155060602Y-94975466D01*
X155065412Y-94926635D01*
X155074984Y-94878510D01*
X155089228Y-94831555D01*
X155108005Y-94786222D01*
X155131136Y-94742949D01*
X155158396Y-94702150D01*
X155189524Y-94664221D01*
X155224221Y-94629524D01*
X155262150Y-94598396D01*
X155302949Y-94571136D01*
X155346222Y-94548005D01*
X155391555Y-94529228D01*
X155438510Y-94514984D01*
X155486635Y-94505412D01*
X155535466Y-94500602D01*
X155560000Y-94500602D01*
X155560000Y-94500000D01*
X156060000Y-94500000D01*
X156060000Y-96000000D01*
G37*
G36*
X156860000Y-94500602D02*
G01*
X156884534Y-94500602D01*
X156933365Y-94505412D01*
X156981490Y-94514984D01*
X157028445Y-94529228D01*
X157073778Y-94548005D01*
X157117051Y-94571136D01*
X157157850Y-94598396D01*
X157195779Y-94629524D01*
X157230476Y-94664221D01*
X157261604Y-94702150D01*
X157288864Y-94742949D01*
X157311995Y-94786222D01*
X157330772Y-94831555D01*
X157345016Y-94878510D01*
X157354588Y-94926635D01*
X157359398Y-94975466D01*
X157359398Y-95000000D01*
X157360000Y-95000000D01*
X157360000Y-95500000D01*
X157359398Y-95500000D01*
X157359398Y-95524534D01*
X157354588Y-95573365D01*
X157345016Y-95621490D01*
X157330772Y-95668445D01*
X157311995Y-95713778D01*
X157288864Y-95757051D01*
X157261604Y-95797850D01*
X157230476Y-95835779D01*
X157195779Y-95870476D01*
X157157850Y-95901604D01*
X157117051Y-95928864D01*
X157073778Y-95951995D01*
X157028445Y-95970772D01*
X156981490Y-95985016D01*
X156933365Y-95994588D01*
X156884534Y-95999398D01*
X156860000Y-95999398D01*
X156860000Y-96000000D01*
X156360000Y-96000000D01*
X156360000Y-94500000D01*
X156860000Y-94500000D01*
X156860000Y-94500602D01*
G37*
%TD*%
%TO.C,JP8*%
G36*
X156860000Y-91960602D02*
G01*
X156884534Y-91960602D01*
X156933365Y-91965412D01*
X156981490Y-91974984D01*
X157028445Y-91989228D01*
X157073778Y-92008005D01*
X157117051Y-92031136D01*
X157157850Y-92058396D01*
X157195779Y-92089524D01*
X157230476Y-92124221D01*
X157261604Y-92162150D01*
X157288864Y-92202949D01*
X157311995Y-92246222D01*
X157330772Y-92291555D01*
X157345016Y-92338510D01*
X157354588Y-92386635D01*
X157359398Y-92435466D01*
X157359398Y-92460000D01*
X157360000Y-92460000D01*
X157360000Y-92960000D01*
X157359398Y-92960000D01*
X157359398Y-92984534D01*
X157354588Y-93033365D01*
X157345016Y-93081490D01*
X157330772Y-93128445D01*
X157311995Y-93173778D01*
X157288864Y-93217051D01*
X157261604Y-93257850D01*
X157230476Y-93295779D01*
X157195779Y-93330476D01*
X157157850Y-93361604D01*
X157117051Y-93388864D01*
X157073778Y-93411995D01*
X157028445Y-93430772D01*
X156981490Y-93445016D01*
X156933365Y-93454588D01*
X156884534Y-93459398D01*
X156860000Y-93459398D01*
X156860000Y-93460000D01*
X156360000Y-93460000D01*
X156360000Y-91960000D01*
X156860000Y-91960000D01*
X156860000Y-91960602D01*
G37*
G36*
X156060000Y-93460000D02*
G01*
X155560000Y-93460000D01*
X155560000Y-93459398D01*
X155535466Y-93459398D01*
X155486635Y-93454588D01*
X155438510Y-93445016D01*
X155391555Y-93430772D01*
X155346222Y-93411995D01*
X155302949Y-93388864D01*
X155262150Y-93361604D01*
X155224221Y-93330476D01*
X155189524Y-93295779D01*
X155158396Y-93257850D01*
X155131136Y-93217051D01*
X155108005Y-93173778D01*
X155089228Y-93128445D01*
X155074984Y-93081490D01*
X155065412Y-93033365D01*
X155060602Y-92984534D01*
X155060602Y-92960000D01*
X155060000Y-92960000D01*
X155060000Y-92460000D01*
X155060602Y-92460000D01*
X155060602Y-92435466D01*
X155065412Y-92386635D01*
X155074984Y-92338510D01*
X155089228Y-92291555D01*
X155108005Y-92246222D01*
X155131136Y-92202949D01*
X155158396Y-92162150D01*
X155189524Y-92124221D01*
X155224221Y-92089524D01*
X155262150Y-92058396D01*
X155302949Y-92031136D01*
X155346222Y-92008005D01*
X155391555Y-91989228D01*
X155438510Y-91974984D01*
X155486635Y-91965412D01*
X155535466Y-91960602D01*
X155560000Y-91960602D01*
X155560000Y-91960000D01*
X156060000Y-91960000D01*
X156060000Y-93460000D01*
G37*
%TD*%
%TO.C,R2*%
G36*
G01*
X153907500Y-95022500D02*
X153432500Y-95022500D01*
G75*
G02*
X153195000Y-94785000I0J237500D01*
G01*
X153195000Y-94285000D01*
G75*
G02*
X153432500Y-94047500I237500J0D01*
G01*
X153907500Y-94047500D01*
G75*
G02*
X154145000Y-94285000I0J-237500D01*
G01*
X154145000Y-94785000D01*
G75*
G02*
X153907500Y-95022500I-237500J0D01*
G01*
G37*
G36*
G01*
X153907500Y-93197500D02*
X153432500Y-93197500D01*
G75*
G02*
X153195000Y-92960000I0J237500D01*
G01*
X153195000Y-92460000D01*
G75*
G02*
X153432500Y-92222500I237500J0D01*
G01*
X153907500Y-92222500D01*
G75*
G02*
X154145000Y-92460000I0J-237500D01*
G01*
X154145000Y-92960000D01*
G75*
G02*
X153907500Y-93197500I-237500J0D01*
G01*
G37*
%TD*%
%TO.C,R4*%
G36*
G01*
X153907500Y-103357500D02*
X153432500Y-103357500D01*
G75*
G02*
X153195000Y-103120000I0J237500D01*
G01*
X153195000Y-102620000D01*
G75*
G02*
X153432500Y-102382500I237500J0D01*
G01*
X153907500Y-102382500D01*
G75*
G02*
X154145000Y-102620000I0J-237500D01*
G01*
X154145000Y-103120000D01*
G75*
G02*
X153907500Y-103357500I-237500J0D01*
G01*
G37*
G36*
G01*
X153907500Y-105182500D02*
X153432500Y-105182500D01*
G75*
G02*
X153195000Y-104945000I0J237500D01*
G01*
X153195000Y-104445000D01*
G75*
G02*
X153432500Y-104207500I237500J0D01*
G01*
X153907500Y-104207500D01*
G75*
G02*
X154145000Y-104445000I0J-237500D01*
G01*
X154145000Y-104945000D01*
G75*
G02*
X153907500Y-105182500I-237500J0D01*
G01*
G37*
%TD*%
%TO.C,R6*%
G36*
G01*
X153432500Y-107462500D02*
X153907500Y-107462500D01*
G75*
G02*
X154145000Y-107700000I0J-237500D01*
G01*
X154145000Y-108200000D01*
G75*
G02*
X153907500Y-108437500I-237500J0D01*
G01*
X153432500Y-108437500D01*
G75*
G02*
X153195000Y-108200000I0J237500D01*
G01*
X153195000Y-107700000D01*
G75*
G02*
X153432500Y-107462500I237500J0D01*
G01*
G37*
G36*
G01*
X153432500Y-109287500D02*
X153907500Y-109287500D01*
G75*
G02*
X154145000Y-109525000I0J-237500D01*
G01*
X154145000Y-110025000D01*
G75*
G02*
X153907500Y-110262500I-237500J0D01*
G01*
X153432500Y-110262500D01*
G75*
G02*
X153195000Y-110025000I0J237500D01*
G01*
X153195000Y-109525000D01*
G75*
G02*
X153432500Y-109287500I237500J0D01*
G01*
G37*
%TD*%
D18*
%TO.C,U1*%
X142850000Y-107950000D03*
D19*
X136550000Y-107950000D03*
X136550000Y-110250000D03*
X136550000Y-105650000D03*
%TD*%
%TO.C,U2*%
G36*
G01*
X127910000Y-105895000D02*
X127910000Y-106195000D01*
G75*
G02*
X127760000Y-106345000I-150000J0D01*
G01*
X126110000Y-106345000D01*
G75*
G02*
X125960000Y-106195000I0J150000D01*
G01*
X125960000Y-105895000D01*
G75*
G02*
X126110000Y-105745000I150000J0D01*
G01*
X127760000Y-105745000D01*
G75*
G02*
X127910000Y-105895000I0J-150000D01*
G01*
G37*
G36*
G01*
X127910000Y-104625000D02*
X127910000Y-104925000D01*
G75*
G02*
X127760000Y-105075000I-150000J0D01*
G01*
X126110000Y-105075000D01*
G75*
G02*
X125960000Y-104925000I0J150000D01*
G01*
X125960000Y-104625000D01*
G75*
G02*
X126110000Y-104475000I150000J0D01*
G01*
X127760000Y-104475000D01*
G75*
G02*
X127910000Y-104625000I0J-150000D01*
G01*
G37*
G36*
G01*
X127910000Y-103355000D02*
X127910000Y-103655000D01*
G75*
G02*
X127760000Y-103805000I-150000J0D01*
G01*
X126110000Y-103805000D01*
G75*
G02*
X125960000Y-103655000I0J150000D01*
G01*
X125960000Y-103355000D01*
G75*
G02*
X126110000Y-103205000I150000J0D01*
G01*
X127760000Y-103205000D01*
G75*
G02*
X127910000Y-103355000I0J-150000D01*
G01*
G37*
G36*
G01*
X127910000Y-102085000D02*
X127910000Y-102385000D01*
G75*
G02*
X127760000Y-102535000I-150000J0D01*
G01*
X126110000Y-102535000D01*
G75*
G02*
X125960000Y-102385000I0J150000D01*
G01*
X125960000Y-102085000D01*
G75*
G02*
X126110000Y-101935000I150000J0D01*
G01*
X127760000Y-101935000D01*
G75*
G02*
X127910000Y-102085000I0J-150000D01*
G01*
G37*
G36*
G01*
X127910000Y-100815000D02*
X127910000Y-101115000D01*
G75*
G02*
X127760000Y-101265000I-150000J0D01*
G01*
X126110000Y-101265000D01*
G75*
G02*
X125960000Y-101115000I0J150000D01*
G01*
X125960000Y-100815000D01*
G75*
G02*
X126110000Y-100665000I150000J0D01*
G01*
X127760000Y-100665000D01*
G75*
G02*
X127910000Y-100815000I0J-150000D01*
G01*
G37*
G36*
G01*
X127910000Y-99545000D02*
X127910000Y-99845000D01*
G75*
G02*
X127760000Y-99995000I-150000J0D01*
G01*
X126110000Y-99995000D01*
G75*
G02*
X125960000Y-99845000I0J150000D01*
G01*
X125960000Y-99545000D01*
G75*
G02*
X126110000Y-99395000I150000J0D01*
G01*
X127760000Y-99395000D01*
G75*
G02*
X127910000Y-99545000I0J-150000D01*
G01*
G37*
G36*
G01*
X127910000Y-98275000D02*
X127910000Y-98575000D01*
G75*
G02*
X127760000Y-98725000I-150000J0D01*
G01*
X126110000Y-98725000D01*
G75*
G02*
X125960000Y-98575000I0J150000D01*
G01*
X125960000Y-98275000D01*
G75*
G02*
X126110000Y-98125000I150000J0D01*
G01*
X127760000Y-98125000D01*
G75*
G02*
X127910000Y-98275000I0J-150000D01*
G01*
G37*
G36*
G01*
X127910000Y-97005000D02*
X127910000Y-97305000D01*
G75*
G02*
X127760000Y-97455000I-150000J0D01*
G01*
X126110000Y-97455000D01*
G75*
G02*
X125960000Y-97305000I0J150000D01*
G01*
X125960000Y-97005000D01*
G75*
G02*
X126110000Y-96855000I150000J0D01*
G01*
X127760000Y-96855000D01*
G75*
G02*
X127910000Y-97005000I0J-150000D01*
G01*
G37*
G36*
G01*
X122960000Y-97005000D02*
X122960000Y-97305000D01*
G75*
G02*
X122810000Y-97455000I-150000J0D01*
G01*
X121160000Y-97455000D01*
G75*
G02*
X121010000Y-97305000I0J150000D01*
G01*
X121010000Y-97005000D01*
G75*
G02*
X121160000Y-96855000I150000J0D01*
G01*
X122810000Y-96855000D01*
G75*
G02*
X122960000Y-97005000I0J-150000D01*
G01*
G37*
G36*
G01*
X122960000Y-98275000D02*
X122960000Y-98575000D01*
G75*
G02*
X122810000Y-98725000I-150000J0D01*
G01*
X121160000Y-98725000D01*
G75*
G02*
X121010000Y-98575000I0J150000D01*
G01*
X121010000Y-98275000D01*
G75*
G02*
X121160000Y-98125000I150000J0D01*
G01*
X122810000Y-98125000D01*
G75*
G02*
X122960000Y-98275000I0J-150000D01*
G01*
G37*
G36*
G01*
X122960000Y-99545000D02*
X122960000Y-99845000D01*
G75*
G02*
X122810000Y-99995000I-150000J0D01*
G01*
X121160000Y-99995000D01*
G75*
G02*
X121010000Y-99845000I0J150000D01*
G01*
X121010000Y-99545000D01*
G75*
G02*
X121160000Y-99395000I150000J0D01*
G01*
X122810000Y-99395000D01*
G75*
G02*
X122960000Y-99545000I0J-150000D01*
G01*
G37*
G36*
G01*
X122960000Y-100815000D02*
X122960000Y-101115000D01*
G75*
G02*
X122810000Y-101265000I-150000J0D01*
G01*
X121160000Y-101265000D01*
G75*
G02*
X121010000Y-101115000I0J150000D01*
G01*
X121010000Y-100815000D01*
G75*
G02*
X121160000Y-100665000I150000J0D01*
G01*
X122810000Y-100665000D01*
G75*
G02*
X122960000Y-100815000I0J-150000D01*
G01*
G37*
G36*
G01*
X122960000Y-102085000D02*
X122960000Y-102385000D01*
G75*
G02*
X122810000Y-102535000I-150000J0D01*
G01*
X121160000Y-102535000D01*
G75*
G02*
X121010000Y-102385000I0J150000D01*
G01*
X121010000Y-102085000D01*
G75*
G02*
X121160000Y-101935000I150000J0D01*
G01*
X122810000Y-101935000D01*
G75*
G02*
X122960000Y-102085000I0J-150000D01*
G01*
G37*
G36*
G01*
X122960000Y-103355000D02*
X122960000Y-103655000D01*
G75*
G02*
X122810000Y-103805000I-150000J0D01*
G01*
X121160000Y-103805000D01*
G75*
G02*
X121010000Y-103655000I0J150000D01*
G01*
X121010000Y-103355000D01*
G75*
G02*
X121160000Y-103205000I150000J0D01*
G01*
X122810000Y-103205000D01*
G75*
G02*
X122960000Y-103355000I0J-150000D01*
G01*
G37*
G36*
G01*
X122960000Y-104625000D02*
X122960000Y-104925000D01*
G75*
G02*
X122810000Y-105075000I-150000J0D01*
G01*
X121160000Y-105075000D01*
G75*
G02*
X121010000Y-104925000I0J150000D01*
G01*
X121010000Y-104625000D01*
G75*
G02*
X121160000Y-104475000I150000J0D01*
G01*
X122810000Y-104475000D01*
G75*
G02*
X122960000Y-104625000I0J-150000D01*
G01*
G37*
G36*
G01*
X122960000Y-105895000D02*
X122960000Y-106195000D01*
G75*
G02*
X122810000Y-106345000I-150000J0D01*
G01*
X121160000Y-106345000D01*
G75*
G02*
X121010000Y-106195000I0J150000D01*
G01*
X121010000Y-105895000D01*
G75*
G02*
X121160000Y-105745000I150000J0D01*
G01*
X122810000Y-105745000D01*
G75*
G02*
X122960000Y-105895000I0J-150000D01*
G01*
G37*
%TD*%
D20*
%TO.C,Y1*%
X134620000Y-93980000D03*
X134620000Y-98860000D03*
%TD*%
M02*
