%TF.GenerationSoftware,KiCad,Pcbnew,(5.1.7)-1*%
%TF.CreationDate,2020-12-05T19:57:28+01:00*%
%TF.ProjectId,WiFi-RC-Switch-Programmer,57694669-2d52-4432-9d53-77697463682d,rev?*%
%TF.SameCoordinates,Original*%
%TF.FileFunction,Paste,Top*%
%TF.FilePolarity,Positive*%
%FSLAX46Y46*%
G04 Gerber Fmt 4.6, Leading zero omitted, Abs format (unit mm)*
G04 Created by KiCad (PCBNEW (5.1.7)-1) date 2020-12-05 19:57:28*
%MOMM*%
%LPD*%
G01*
G04 APERTURE LIST*
%ADD10R,2.000000X3.800000*%
%ADD11R,2.000000X1.500000*%
G04 APERTURE END LIST*
%TO.C,R2*%
G36*
G01*
X153907500Y-95022500D02*
X153432500Y-95022500D01*
G75*
G02*
X153195000Y-94785000I0J237500D01*
G01*
X153195000Y-94285000D01*
G75*
G02*
X153432500Y-94047500I237500J0D01*
G01*
X153907500Y-94047500D01*
G75*
G02*
X154145000Y-94285000I0J-237500D01*
G01*
X154145000Y-94785000D01*
G75*
G02*
X153907500Y-95022500I-237500J0D01*
G01*
G37*
G36*
G01*
X153907500Y-93197500D02*
X153432500Y-93197500D01*
G75*
G02*
X153195000Y-92960000I0J237500D01*
G01*
X153195000Y-92460000D01*
G75*
G02*
X153432500Y-92222500I237500J0D01*
G01*
X153907500Y-92222500D01*
G75*
G02*
X154145000Y-92460000I0J-237500D01*
G01*
X154145000Y-92960000D01*
G75*
G02*
X153907500Y-93197500I-237500J0D01*
G01*
G37*
%TD*%
%TO.C,R4*%
G36*
G01*
X153907500Y-103357500D02*
X153432500Y-103357500D01*
G75*
G02*
X153195000Y-103120000I0J237500D01*
G01*
X153195000Y-102620000D01*
G75*
G02*
X153432500Y-102382500I237500J0D01*
G01*
X153907500Y-102382500D01*
G75*
G02*
X154145000Y-102620000I0J-237500D01*
G01*
X154145000Y-103120000D01*
G75*
G02*
X153907500Y-103357500I-237500J0D01*
G01*
G37*
G36*
G01*
X153907500Y-105182500D02*
X153432500Y-105182500D01*
G75*
G02*
X153195000Y-104945000I0J237500D01*
G01*
X153195000Y-104445000D01*
G75*
G02*
X153432500Y-104207500I237500J0D01*
G01*
X153907500Y-104207500D01*
G75*
G02*
X154145000Y-104445000I0J-237500D01*
G01*
X154145000Y-104945000D01*
G75*
G02*
X153907500Y-105182500I-237500J0D01*
G01*
G37*
%TD*%
%TO.C,R6*%
G36*
G01*
X153432500Y-107462500D02*
X153907500Y-107462500D01*
G75*
G02*
X154145000Y-107700000I0J-237500D01*
G01*
X154145000Y-108200000D01*
G75*
G02*
X153907500Y-108437500I-237500J0D01*
G01*
X153432500Y-108437500D01*
G75*
G02*
X153195000Y-108200000I0J237500D01*
G01*
X153195000Y-107700000D01*
G75*
G02*
X153432500Y-107462500I237500J0D01*
G01*
G37*
G36*
G01*
X153432500Y-109287500D02*
X153907500Y-109287500D01*
G75*
G02*
X154145000Y-109525000I0J-237500D01*
G01*
X154145000Y-110025000D01*
G75*
G02*
X153907500Y-110262500I-237500J0D01*
G01*
X153432500Y-110262500D01*
G75*
G02*
X153195000Y-110025000I0J237500D01*
G01*
X153195000Y-109525000D01*
G75*
G02*
X153432500Y-109287500I237500J0D01*
G01*
G37*
%TD*%
D10*
%TO.C,U1*%
X142850000Y-107950000D03*
D11*
X136550000Y-107950000D03*
X136550000Y-110250000D03*
X136550000Y-105650000D03*
%TD*%
%TO.C,U2*%
G36*
G01*
X127910000Y-105895000D02*
X127910000Y-106195000D01*
G75*
G02*
X127760000Y-106345000I-150000J0D01*
G01*
X126110000Y-106345000D01*
G75*
G02*
X125960000Y-106195000I0J150000D01*
G01*
X125960000Y-105895000D01*
G75*
G02*
X126110000Y-105745000I150000J0D01*
G01*
X127760000Y-105745000D01*
G75*
G02*
X127910000Y-105895000I0J-150000D01*
G01*
G37*
G36*
G01*
X127910000Y-104625000D02*
X127910000Y-104925000D01*
G75*
G02*
X127760000Y-105075000I-150000J0D01*
G01*
X126110000Y-105075000D01*
G75*
G02*
X125960000Y-104925000I0J150000D01*
G01*
X125960000Y-104625000D01*
G75*
G02*
X126110000Y-104475000I150000J0D01*
G01*
X127760000Y-104475000D01*
G75*
G02*
X127910000Y-104625000I0J-150000D01*
G01*
G37*
G36*
G01*
X127910000Y-103355000D02*
X127910000Y-103655000D01*
G75*
G02*
X127760000Y-103805000I-150000J0D01*
G01*
X126110000Y-103805000D01*
G75*
G02*
X125960000Y-103655000I0J150000D01*
G01*
X125960000Y-103355000D01*
G75*
G02*
X126110000Y-103205000I150000J0D01*
G01*
X127760000Y-103205000D01*
G75*
G02*
X127910000Y-103355000I0J-150000D01*
G01*
G37*
G36*
G01*
X127910000Y-102085000D02*
X127910000Y-102385000D01*
G75*
G02*
X127760000Y-102535000I-150000J0D01*
G01*
X126110000Y-102535000D01*
G75*
G02*
X125960000Y-102385000I0J150000D01*
G01*
X125960000Y-102085000D01*
G75*
G02*
X126110000Y-101935000I150000J0D01*
G01*
X127760000Y-101935000D01*
G75*
G02*
X127910000Y-102085000I0J-150000D01*
G01*
G37*
G36*
G01*
X127910000Y-100815000D02*
X127910000Y-101115000D01*
G75*
G02*
X127760000Y-101265000I-150000J0D01*
G01*
X126110000Y-101265000D01*
G75*
G02*
X125960000Y-101115000I0J150000D01*
G01*
X125960000Y-100815000D01*
G75*
G02*
X126110000Y-100665000I150000J0D01*
G01*
X127760000Y-100665000D01*
G75*
G02*
X127910000Y-100815000I0J-150000D01*
G01*
G37*
G36*
G01*
X127910000Y-99545000D02*
X127910000Y-99845000D01*
G75*
G02*
X127760000Y-99995000I-150000J0D01*
G01*
X126110000Y-99995000D01*
G75*
G02*
X125960000Y-99845000I0J150000D01*
G01*
X125960000Y-99545000D01*
G75*
G02*
X126110000Y-99395000I150000J0D01*
G01*
X127760000Y-99395000D01*
G75*
G02*
X127910000Y-99545000I0J-150000D01*
G01*
G37*
G36*
G01*
X127910000Y-98275000D02*
X127910000Y-98575000D01*
G75*
G02*
X127760000Y-98725000I-150000J0D01*
G01*
X126110000Y-98725000D01*
G75*
G02*
X125960000Y-98575000I0J150000D01*
G01*
X125960000Y-98275000D01*
G75*
G02*
X126110000Y-98125000I150000J0D01*
G01*
X127760000Y-98125000D01*
G75*
G02*
X127910000Y-98275000I0J-150000D01*
G01*
G37*
G36*
G01*
X127910000Y-97005000D02*
X127910000Y-97305000D01*
G75*
G02*
X127760000Y-97455000I-150000J0D01*
G01*
X126110000Y-97455000D01*
G75*
G02*
X125960000Y-97305000I0J150000D01*
G01*
X125960000Y-97005000D01*
G75*
G02*
X126110000Y-96855000I150000J0D01*
G01*
X127760000Y-96855000D01*
G75*
G02*
X127910000Y-97005000I0J-150000D01*
G01*
G37*
G36*
G01*
X122960000Y-97005000D02*
X122960000Y-97305000D01*
G75*
G02*
X122810000Y-97455000I-150000J0D01*
G01*
X121160000Y-97455000D01*
G75*
G02*
X121010000Y-97305000I0J150000D01*
G01*
X121010000Y-97005000D01*
G75*
G02*
X121160000Y-96855000I150000J0D01*
G01*
X122810000Y-96855000D01*
G75*
G02*
X122960000Y-97005000I0J-150000D01*
G01*
G37*
G36*
G01*
X122960000Y-98275000D02*
X122960000Y-98575000D01*
G75*
G02*
X122810000Y-98725000I-150000J0D01*
G01*
X121160000Y-98725000D01*
G75*
G02*
X121010000Y-98575000I0J150000D01*
G01*
X121010000Y-98275000D01*
G75*
G02*
X121160000Y-98125000I150000J0D01*
G01*
X122810000Y-98125000D01*
G75*
G02*
X122960000Y-98275000I0J-150000D01*
G01*
G37*
G36*
G01*
X122960000Y-99545000D02*
X122960000Y-99845000D01*
G75*
G02*
X122810000Y-99995000I-150000J0D01*
G01*
X121160000Y-99995000D01*
G75*
G02*
X121010000Y-99845000I0J150000D01*
G01*
X121010000Y-99545000D01*
G75*
G02*
X121160000Y-99395000I150000J0D01*
G01*
X122810000Y-99395000D01*
G75*
G02*
X122960000Y-99545000I0J-150000D01*
G01*
G37*
G36*
G01*
X122960000Y-100815000D02*
X122960000Y-101115000D01*
G75*
G02*
X122810000Y-101265000I-150000J0D01*
G01*
X121160000Y-101265000D01*
G75*
G02*
X121010000Y-101115000I0J150000D01*
G01*
X121010000Y-100815000D01*
G75*
G02*
X121160000Y-100665000I150000J0D01*
G01*
X122810000Y-100665000D01*
G75*
G02*
X122960000Y-100815000I0J-150000D01*
G01*
G37*
G36*
G01*
X122960000Y-102085000D02*
X122960000Y-102385000D01*
G75*
G02*
X122810000Y-102535000I-150000J0D01*
G01*
X121160000Y-102535000D01*
G75*
G02*
X121010000Y-102385000I0J150000D01*
G01*
X121010000Y-102085000D01*
G75*
G02*
X121160000Y-101935000I150000J0D01*
G01*
X122810000Y-101935000D01*
G75*
G02*
X122960000Y-102085000I0J-150000D01*
G01*
G37*
G36*
G01*
X122960000Y-103355000D02*
X122960000Y-103655000D01*
G75*
G02*
X122810000Y-103805000I-150000J0D01*
G01*
X121160000Y-103805000D01*
G75*
G02*
X121010000Y-103655000I0J150000D01*
G01*
X121010000Y-103355000D01*
G75*
G02*
X121160000Y-103205000I150000J0D01*
G01*
X122810000Y-103205000D01*
G75*
G02*
X122960000Y-103355000I0J-150000D01*
G01*
G37*
G36*
G01*
X122960000Y-104625000D02*
X122960000Y-104925000D01*
G75*
G02*
X122810000Y-105075000I-150000J0D01*
G01*
X121160000Y-105075000D01*
G75*
G02*
X121010000Y-104925000I0J150000D01*
G01*
X121010000Y-104625000D01*
G75*
G02*
X121160000Y-104475000I150000J0D01*
G01*
X122810000Y-104475000D01*
G75*
G02*
X122960000Y-104625000I0J-150000D01*
G01*
G37*
G36*
G01*
X122960000Y-105895000D02*
X122960000Y-106195000D01*
G75*
G02*
X122810000Y-106345000I-150000J0D01*
G01*
X121160000Y-106345000D01*
G75*
G02*
X121010000Y-106195000I0J150000D01*
G01*
X121010000Y-105895000D01*
G75*
G02*
X121160000Y-105745000I150000J0D01*
G01*
X122810000Y-105745000D01*
G75*
G02*
X122960000Y-105895000I0J-150000D01*
G01*
G37*
%TD*%
M02*
