M48
; DRILL file {KiCad (5.1.7)-1} date 12/05/20 19:57:33
; FORMAT={-:-/ absolute / inch / decimal}
; #@! TF.CreationDate,2020-12-05T19:57:33+01:00
; #@! TF.GenerationSoftware,Kicad,Pcbnew,(5.1.7)-1
FMAT,2
INCH
T1C0.0157
T2C0.0236
T3C0.0315
T4C0.0354
T5C0.0394
%
G90
G05
T1
X4.65Y-3.9
X4.7Y-4.05
X4.9Y-4.05
X4.9Y-4.1
X5.65Y-3.95
X5.65Y-4.05
X6.0Y-4.15
X6.05Y-3.8
T2
X4.5528Y-3.9685
X4.5528Y-4.0315
X4.6Y-3.937
X4.6Y-4.0
X4.6Y-4.063
T3
X5.15Y-3.85
X5.15Y-3.9484
X5.1Y-4.0531
X5.1Y-4.25
X5.3Y-3.7
X5.3Y-3.8921
X5.15Y-3.65
X5.15Y-3.7484
X5.5Y-3.85
X5.5Y-4.0469
X5.25Y-4.1531
X5.25Y-4.35
T4
X5.8Y-4.3
X5.9Y-4.3
X5.8Y-3.7
X5.9Y-3.7
X5.8Y-4.0
X5.9Y-4.0
T5
X6.35Y-3.65
X6.35Y-3.75
X6.35Y-3.85
X6.35Y-3.95
X6.35Y-4.05
X6.35Y-4.15
X6.35Y-4.25
X6.35Y-4.35
T3
G00X4.3579Y-3.8543
M15
G01X4.4012Y-3.8543
M16
G05
G00X4.3579Y-4.1457
M15
G01X4.4012Y-4.1457
M16
G05
G00X4.5429Y-3.8543
M15
G01X4.5862Y-3.8543
M16
G05
G00X4.5429Y-4.1457
M15
G01X4.5862Y-4.1457
M16
G05
T0
M30
