%TF.GenerationSoftware,KiCad,Pcbnew,(5.1.7)-1*%
%TF.CreationDate,2020-12-05T19:57:28+01:00*%
%TF.ProjectId,WiFi-RC-Switch-Programmer,57694669-2d52-4432-9d53-77697463682d,rev?*%
%TF.SameCoordinates,Original*%
%TF.FileFunction,Legend,Top*%
%TF.FilePolarity,Positive*%
%FSLAX46Y46*%
G04 Gerber Fmt 4.6, Leading zero omitted, Abs format (unit mm)*
G04 Created by KiCad (PCBNEW (5.1.7)-1) date 2020-12-05 19:57:28*
%MOMM*%
%LPD*%
G01*
G04 APERTURE LIST*
%ADD10C,0.120000*%
%ADD11C,0.150000*%
G04 APERTURE END LIST*
D10*
%TO.C,C1*%
X131980000Y-111110000D02*
X131980000Y-104870000D01*
X134720000Y-111110000D02*
X134720000Y-104870000D01*
X131980000Y-111110000D02*
X132425000Y-111110000D01*
X134275000Y-111110000D02*
X134720000Y-111110000D01*
X131980000Y-104870000D02*
X132425000Y-104870000D01*
X134275000Y-104870000D02*
X134720000Y-104870000D01*
%TO.C,C2*%
X138775000Y-103410000D02*
X138330000Y-103410000D01*
X141070000Y-103410000D02*
X140625000Y-103410000D01*
X138775000Y-97170000D02*
X138330000Y-97170000D01*
X141070000Y-97170000D02*
X140625000Y-97170000D01*
X138330000Y-97170000D02*
X138330000Y-103410000D01*
X141070000Y-97170000D02*
X141070000Y-103410000D01*
%TO.C,C3*%
X129690000Y-100660000D02*
X129690000Y-97420000D01*
X131930000Y-100660000D02*
X131930000Y-97420000D01*
X129690000Y-100660000D02*
X129755000Y-100660000D01*
X131865000Y-100660000D02*
X131930000Y-100660000D01*
X129690000Y-97420000D02*
X129755000Y-97420000D01*
X131865000Y-97420000D02*
X131930000Y-97420000D01*
%TO.C,C4*%
X129755000Y-95580000D02*
X129690000Y-95580000D01*
X131930000Y-95580000D02*
X131865000Y-95580000D01*
X129755000Y-92340000D02*
X129690000Y-92340000D01*
X131930000Y-92340000D02*
X131865000Y-92340000D01*
X129690000Y-92340000D02*
X129690000Y-95580000D01*
X131930000Y-92340000D02*
X131930000Y-95580000D01*
%TO.C,C5*%
X128615000Y-108570000D02*
X128170000Y-108570000D01*
X130910000Y-108570000D02*
X130465000Y-108570000D01*
X128615000Y-102330000D02*
X128170000Y-102330000D01*
X130910000Y-102330000D02*
X130465000Y-102330000D01*
X128170000Y-102330000D02*
X128170000Y-108570000D01*
X130910000Y-102330000D02*
X130910000Y-108570000D01*
%TO.C,D1*%
X146030000Y-92435000D02*
X146030000Y-95525000D01*
X151090000Y-93980000D02*
G75*
G03*
X151090000Y-93980000I-2500000J0D01*
G01*
X151580000Y-93980462D02*
G75*
G03*
X146030000Y-92435170I-2990000J462D01*
G01*
X151580000Y-93979538D02*
G75*
G02*
X146030000Y-95524830I-2990000J-462D01*
G01*
%TO.C,D2*%
X151580000Y-101599538D02*
G75*
G02*
X146030000Y-103144830I-2990000J-462D01*
G01*
X151580000Y-101600462D02*
G75*
G03*
X146030000Y-100055170I-2990000J462D01*
G01*
X151090000Y-101600000D02*
G75*
G03*
X151090000Y-101600000I-2500000J0D01*
G01*
X146030000Y-100055000D02*
X146030000Y-103145000D01*
%TO.C,D3*%
X146030000Y-107675000D02*
X146030000Y-110765000D01*
X151090000Y-109220000D02*
G75*
G03*
X151090000Y-109220000I-2500000J0D01*
G01*
X151580000Y-109220462D02*
G75*
G03*
X146030000Y-107675170I-2990000J462D01*
G01*
X151580000Y-109219538D02*
G75*
G02*
X146030000Y-110764830I-2990000J-462D01*
G01*
%TO.C,J1*%
X109940000Y-105300000D02*
X107340000Y-105300000D01*
X109940000Y-97900000D02*
X107340000Y-97900000D01*
X114640000Y-105300000D02*
X112540000Y-105300000D01*
X116840000Y-104700000D02*
X116840000Y-103800000D01*
X116840000Y-102200000D02*
X116840000Y-102600000D01*
X116840000Y-100600000D02*
X116840000Y-101000000D01*
X116840000Y-98500000D02*
X116840000Y-99400000D01*
X109340000Y-97900000D02*
X109340000Y-105300000D01*
X107340000Y-105300000D02*
X107340000Y-97900000D01*
X114640000Y-97900000D02*
X112540000Y-97900000D01*
%TO.C,J2*%
X160020000Y-91440000D02*
X161290000Y-91440000D01*
X160020000Y-92710000D02*
X160020000Y-91440000D01*
X162332929Y-110870000D02*
X162730000Y-110870000D01*
X162332929Y-110110000D02*
X162730000Y-110110000D01*
X171390000Y-110870000D02*
X165390000Y-110870000D01*
X171390000Y-110110000D02*
X171390000Y-110870000D01*
X165390000Y-110110000D02*
X171390000Y-110110000D01*
X162730000Y-109220000D02*
X165390000Y-109220000D01*
X162332929Y-108330000D02*
X162730000Y-108330000D01*
X162332929Y-107570000D02*
X162730000Y-107570000D01*
X171390000Y-108330000D02*
X165390000Y-108330000D01*
X171390000Y-107570000D02*
X171390000Y-108330000D01*
X165390000Y-107570000D02*
X171390000Y-107570000D01*
X162730000Y-106680000D02*
X165390000Y-106680000D01*
X162332929Y-105790000D02*
X162730000Y-105790000D01*
X162332929Y-105030000D02*
X162730000Y-105030000D01*
X171390000Y-105790000D02*
X165390000Y-105790000D01*
X171390000Y-105030000D02*
X171390000Y-105790000D01*
X165390000Y-105030000D02*
X171390000Y-105030000D01*
X162730000Y-104140000D02*
X165390000Y-104140000D01*
X162332929Y-103250000D02*
X162730000Y-103250000D01*
X162332929Y-102490000D02*
X162730000Y-102490000D01*
X171390000Y-103250000D02*
X165390000Y-103250000D01*
X171390000Y-102490000D02*
X171390000Y-103250000D01*
X165390000Y-102490000D02*
X171390000Y-102490000D01*
X162730000Y-101600000D02*
X165390000Y-101600000D01*
X162332929Y-100710000D02*
X162730000Y-100710000D01*
X162332929Y-99950000D02*
X162730000Y-99950000D01*
X171390000Y-100710000D02*
X165390000Y-100710000D01*
X171390000Y-99950000D02*
X171390000Y-100710000D01*
X165390000Y-99950000D02*
X171390000Y-99950000D01*
X162730000Y-99060000D02*
X165390000Y-99060000D01*
X162332929Y-98170000D02*
X162730000Y-98170000D01*
X162332929Y-97410000D02*
X162730000Y-97410000D01*
X171390000Y-98170000D02*
X165390000Y-98170000D01*
X171390000Y-97410000D02*
X171390000Y-98170000D01*
X165390000Y-97410000D02*
X171390000Y-97410000D01*
X162730000Y-96520000D02*
X165390000Y-96520000D01*
X162332929Y-95630000D02*
X162730000Y-95630000D01*
X162332929Y-94870000D02*
X162730000Y-94870000D01*
X171390000Y-95630000D02*
X165390000Y-95630000D01*
X171390000Y-94870000D02*
X171390000Y-95630000D01*
X165390000Y-94870000D02*
X171390000Y-94870000D01*
X162730000Y-93980000D02*
X165390000Y-93980000D01*
X162400000Y-93090000D02*
X162730000Y-93090000D01*
X162400000Y-92330000D02*
X162730000Y-92330000D01*
X165390000Y-92990000D02*
X171390000Y-92990000D01*
X165390000Y-92870000D02*
X171390000Y-92870000D01*
X165390000Y-92750000D02*
X171390000Y-92750000D01*
X165390000Y-92630000D02*
X171390000Y-92630000D01*
X165390000Y-92510000D02*
X171390000Y-92510000D01*
X165390000Y-92390000D02*
X171390000Y-92390000D01*
X171390000Y-93090000D02*
X165390000Y-93090000D01*
X171390000Y-92330000D02*
X171390000Y-93090000D01*
X165390000Y-92330000D02*
X171390000Y-92330000D01*
X165390000Y-91380000D02*
X162730000Y-91380000D01*
X165390000Y-111820000D02*
X165390000Y-91380000D01*
X162730000Y-111820000D02*
X165390000Y-111820000D01*
X162730000Y-91380000D02*
X162730000Y-111820000D01*
%TO.C,JP1*%
X154810000Y-110190000D02*
G75*
G02*
X155510000Y-109490000I700000J0D01*
G01*
X155510000Y-111490000D02*
G75*
G02*
X154810000Y-110790000I0J700000D01*
G01*
X157610000Y-110790000D02*
G75*
G02*
X156910000Y-111490000I-700000J0D01*
G01*
X156910000Y-109490000D02*
G75*
G02*
X157610000Y-110190000I0J-700000D01*
G01*
X154810000Y-110790000D02*
X154810000Y-110190000D01*
X156910000Y-111490000D02*
X155510000Y-111490000D01*
X157610000Y-110190000D02*
X157610000Y-110790000D01*
X155510000Y-109490000D02*
X156910000Y-109490000D01*
%TO.C,JP2*%
X155510000Y-106950000D02*
X156910000Y-106950000D01*
X157610000Y-107650000D02*
X157610000Y-108250000D01*
X156910000Y-108950000D02*
X155510000Y-108950000D01*
X154810000Y-108250000D02*
X154810000Y-107650000D01*
X156910000Y-106950000D02*
G75*
G02*
X157610000Y-107650000I0J-700000D01*
G01*
X157610000Y-108250000D02*
G75*
G02*
X156910000Y-108950000I-700000J0D01*
G01*
X155510000Y-108950000D02*
G75*
G02*
X154810000Y-108250000I0J700000D01*
G01*
X154810000Y-107650000D02*
G75*
G02*
X155510000Y-106950000I700000J0D01*
G01*
%TO.C,JP3*%
X154810000Y-105110000D02*
G75*
G02*
X155510000Y-104410000I700000J0D01*
G01*
X155510000Y-106410000D02*
G75*
G02*
X154810000Y-105710000I0J700000D01*
G01*
X157610000Y-105710000D02*
G75*
G02*
X156910000Y-106410000I-700000J0D01*
G01*
X156910000Y-104410000D02*
G75*
G02*
X157610000Y-105110000I0J-700000D01*
G01*
X154810000Y-105710000D02*
X154810000Y-105110000D01*
X156910000Y-106410000D02*
X155510000Y-106410000D01*
X157610000Y-105110000D02*
X157610000Y-105710000D01*
X155510000Y-104410000D02*
X156910000Y-104410000D01*
%TO.C,JP4*%
X155510000Y-101870000D02*
X156910000Y-101870000D01*
X157610000Y-102570000D02*
X157610000Y-103170000D01*
X156910000Y-103870000D02*
X155510000Y-103870000D01*
X154810000Y-103170000D02*
X154810000Y-102570000D01*
X156910000Y-101870000D02*
G75*
G02*
X157610000Y-102570000I0J-700000D01*
G01*
X157610000Y-103170000D02*
G75*
G02*
X156910000Y-103870000I-700000J0D01*
G01*
X155510000Y-103870000D02*
G75*
G02*
X154810000Y-103170000I0J700000D01*
G01*
X154810000Y-102570000D02*
G75*
G02*
X155510000Y-101870000I700000J0D01*
G01*
%TO.C,JP5*%
X155510000Y-99330000D02*
X156910000Y-99330000D01*
X157610000Y-100030000D02*
X157610000Y-100630000D01*
X156910000Y-101330000D02*
X155510000Y-101330000D01*
X154810000Y-100630000D02*
X154810000Y-100030000D01*
X156910000Y-99330000D02*
G75*
G02*
X157610000Y-100030000I0J-700000D01*
G01*
X157610000Y-100630000D02*
G75*
G02*
X156910000Y-101330000I-700000J0D01*
G01*
X155510000Y-101330000D02*
G75*
G02*
X154810000Y-100630000I0J700000D01*
G01*
X154810000Y-100030000D02*
G75*
G02*
X155510000Y-99330000I700000J0D01*
G01*
%TO.C,JP6*%
X154795000Y-97490000D02*
G75*
G02*
X155495000Y-96790000I700000J0D01*
G01*
X155495000Y-98790000D02*
G75*
G02*
X154795000Y-98090000I0J700000D01*
G01*
X157595000Y-98090000D02*
G75*
G02*
X156895000Y-98790000I-700000J0D01*
G01*
X156895000Y-96790000D02*
G75*
G02*
X157595000Y-97490000I0J-700000D01*
G01*
X154795000Y-98090000D02*
X154795000Y-97490000D01*
X156895000Y-98790000D02*
X155495000Y-98790000D01*
X157595000Y-97490000D02*
X157595000Y-98090000D01*
X155495000Y-96790000D02*
X156895000Y-96790000D01*
%TO.C,JP7*%
X155510000Y-94250000D02*
X156910000Y-94250000D01*
X157610000Y-94950000D02*
X157610000Y-95550000D01*
X156910000Y-96250000D02*
X155510000Y-96250000D01*
X154810000Y-95550000D02*
X154810000Y-94950000D01*
X156910000Y-94250000D02*
G75*
G02*
X157610000Y-94950000I0J-700000D01*
G01*
X157610000Y-95550000D02*
G75*
G02*
X156910000Y-96250000I-700000J0D01*
G01*
X155510000Y-96250000D02*
G75*
G02*
X154810000Y-95550000I0J700000D01*
G01*
X154810000Y-94950000D02*
G75*
G02*
X155510000Y-94250000I700000J0D01*
G01*
%TO.C,JP8*%
X154810000Y-92410000D02*
G75*
G02*
X155510000Y-91710000I700000J0D01*
G01*
X155510000Y-93710000D02*
G75*
G02*
X154810000Y-93010000I0J700000D01*
G01*
X157610000Y-93010000D02*
G75*
G02*
X156910000Y-93710000I-700000J0D01*
G01*
X156910000Y-91710000D02*
G75*
G02*
X157610000Y-92410000I0J-700000D01*
G01*
X154810000Y-93010000D02*
X154810000Y-92410000D01*
X156910000Y-93710000D02*
X155510000Y-93710000D01*
X157610000Y-92410000D02*
X157610000Y-93010000D01*
X155510000Y-91710000D02*
X156910000Y-91710000D01*
%TO.C,R2*%
X154192500Y-93877224D02*
X154192500Y-93367776D01*
X153147500Y-93877224D02*
X153147500Y-93367776D01*
%TO.C,R4*%
X153147500Y-104037224D02*
X153147500Y-103527776D01*
X154192500Y-104037224D02*
X154192500Y-103527776D01*
%TO.C,R6*%
X153147500Y-108607776D02*
X153147500Y-109117224D01*
X154192500Y-108607776D02*
X154192500Y-109117224D01*
%TO.C,U1*%
X135600000Y-104540000D02*
X141610000Y-104540000D01*
X137850000Y-111360000D02*
X141610000Y-111360000D01*
X141610000Y-104540000D02*
X141610000Y-105800000D01*
X141610000Y-111360000D02*
X141610000Y-110100000D01*
%TO.C,U2*%
X124460000Y-106660000D02*
X127910000Y-106660000D01*
X124460000Y-106660000D02*
X122510000Y-106660000D01*
X124460000Y-96540000D02*
X126410000Y-96540000D01*
X124460000Y-96540000D02*
X122510000Y-96540000D01*
%TO.C,Y1*%
X132095000Y-93220000D02*
X132095000Y-99620000D01*
X137145000Y-93220000D02*
X137145000Y-99620000D01*
X132095000Y-93220000D02*
G75*
G02*
X137145000Y-93220000I2525000J0D01*
G01*
X132095000Y-99620000D02*
G75*
G03*
X137145000Y-99620000I2525000J0D01*
G01*
%TO.C,C1*%
D11*
X133707142Y-108116666D02*
X133754761Y-108164285D01*
X133802380Y-108307142D01*
X133802380Y-108402380D01*
X133754761Y-108545238D01*
X133659523Y-108640476D01*
X133564285Y-108688095D01*
X133373809Y-108735714D01*
X133230952Y-108735714D01*
X133040476Y-108688095D01*
X132945238Y-108640476D01*
X132850000Y-108545238D01*
X132802380Y-108402380D01*
X132802380Y-108307142D01*
X132850000Y-108164285D01*
X132897619Y-108116666D01*
X133802380Y-107164285D02*
X133802380Y-107735714D01*
X133802380Y-107450000D02*
X132802380Y-107450000D01*
X132945238Y-107545238D01*
X133040476Y-107640476D01*
X133088095Y-107735714D01*
%TO.C,C2*%
X140057142Y-100456666D02*
X140104761Y-100504285D01*
X140152380Y-100647142D01*
X140152380Y-100742380D01*
X140104761Y-100885238D01*
X140009523Y-100980476D01*
X139914285Y-101028095D01*
X139723809Y-101075714D01*
X139580952Y-101075714D01*
X139390476Y-101028095D01*
X139295238Y-100980476D01*
X139200000Y-100885238D01*
X139152380Y-100742380D01*
X139152380Y-100647142D01*
X139200000Y-100504285D01*
X139247619Y-100456666D01*
X139247619Y-100075714D02*
X139200000Y-100028095D01*
X139152380Y-99932857D01*
X139152380Y-99694761D01*
X139200000Y-99599523D01*
X139247619Y-99551904D01*
X139342857Y-99504285D01*
X139438095Y-99504285D01*
X139580952Y-99551904D01*
X140152380Y-100123333D01*
X140152380Y-99504285D01*
%TO.C,C3*%
X129897142Y-99206666D02*
X129944761Y-99254285D01*
X129992380Y-99397142D01*
X129992380Y-99492380D01*
X129944761Y-99635238D01*
X129849523Y-99730476D01*
X129754285Y-99778095D01*
X129563809Y-99825714D01*
X129420952Y-99825714D01*
X129230476Y-99778095D01*
X129135238Y-99730476D01*
X129040000Y-99635238D01*
X128992380Y-99492380D01*
X128992380Y-99397142D01*
X129040000Y-99254285D01*
X129087619Y-99206666D01*
X128992380Y-98873333D02*
X128992380Y-98254285D01*
X129373333Y-98587619D01*
X129373333Y-98444761D01*
X129420952Y-98349523D01*
X129468571Y-98301904D01*
X129563809Y-98254285D01*
X129801904Y-98254285D01*
X129897142Y-98301904D01*
X129944761Y-98349523D01*
X129992380Y-98444761D01*
X129992380Y-98730476D01*
X129944761Y-98825714D01*
X129897142Y-98873333D01*
%TO.C,C4*%
X129897142Y-94126666D02*
X129944761Y-94174285D01*
X129992380Y-94317142D01*
X129992380Y-94412380D01*
X129944761Y-94555238D01*
X129849523Y-94650476D01*
X129754285Y-94698095D01*
X129563809Y-94745714D01*
X129420952Y-94745714D01*
X129230476Y-94698095D01*
X129135238Y-94650476D01*
X129040000Y-94555238D01*
X128992380Y-94412380D01*
X128992380Y-94317142D01*
X129040000Y-94174285D01*
X129087619Y-94126666D01*
X129325714Y-93269523D02*
X129992380Y-93269523D01*
X128944761Y-93507619D02*
X129659047Y-93745714D01*
X129659047Y-93126666D01*
%TO.C,C5*%
X129897142Y-105576666D02*
X129944761Y-105624285D01*
X129992380Y-105767142D01*
X129992380Y-105862380D01*
X129944761Y-106005238D01*
X129849523Y-106100476D01*
X129754285Y-106148095D01*
X129563809Y-106195714D01*
X129420952Y-106195714D01*
X129230476Y-106148095D01*
X129135238Y-106100476D01*
X129040000Y-106005238D01*
X128992380Y-105862380D01*
X128992380Y-105767142D01*
X129040000Y-105624285D01*
X129087619Y-105576666D01*
X128992380Y-104671904D02*
X128992380Y-105148095D01*
X129468571Y-105195714D01*
X129420952Y-105148095D01*
X129373333Y-105052857D01*
X129373333Y-104814761D01*
X129420952Y-104719523D01*
X129468571Y-104671904D01*
X129563809Y-104624285D01*
X129801904Y-104624285D01*
X129897142Y-104671904D01*
X129944761Y-104719523D01*
X129992380Y-104814761D01*
X129992380Y-105052857D01*
X129944761Y-105148095D01*
X129897142Y-105195714D01*
%TO.C,D1*%
X145311904Y-96972380D02*
X145311904Y-95972380D01*
X145550000Y-95972380D01*
X145692857Y-96020000D01*
X145788095Y-96115238D01*
X145835714Y-96210476D01*
X145883333Y-96400952D01*
X145883333Y-96543809D01*
X145835714Y-96734285D01*
X145788095Y-96829523D01*
X145692857Y-96924761D01*
X145550000Y-96972380D01*
X145311904Y-96972380D01*
X146835714Y-96972380D02*
X146264285Y-96972380D01*
X146550000Y-96972380D02*
X146550000Y-95972380D01*
X146454761Y-96115238D01*
X146359523Y-96210476D01*
X146264285Y-96258095D01*
%TO.C,D2*%
X145311904Y-104592380D02*
X145311904Y-103592380D01*
X145550000Y-103592380D01*
X145692857Y-103640000D01*
X145788095Y-103735238D01*
X145835714Y-103830476D01*
X145883333Y-104020952D01*
X145883333Y-104163809D01*
X145835714Y-104354285D01*
X145788095Y-104449523D01*
X145692857Y-104544761D01*
X145550000Y-104592380D01*
X145311904Y-104592380D01*
X146264285Y-103687619D02*
X146311904Y-103640000D01*
X146407142Y-103592380D01*
X146645238Y-103592380D01*
X146740476Y-103640000D01*
X146788095Y-103687619D01*
X146835714Y-103782857D01*
X146835714Y-103878095D01*
X146788095Y-104020952D01*
X146216666Y-104592380D01*
X146835714Y-104592380D01*
%TO.C,D3*%
X145311904Y-112212380D02*
X145311904Y-111212380D01*
X145550000Y-111212380D01*
X145692857Y-111260000D01*
X145788095Y-111355238D01*
X145835714Y-111450476D01*
X145883333Y-111640952D01*
X145883333Y-111783809D01*
X145835714Y-111974285D01*
X145788095Y-112069523D01*
X145692857Y-112164761D01*
X145550000Y-112212380D01*
X145311904Y-112212380D01*
X146216666Y-111212380D02*
X146835714Y-111212380D01*
X146502380Y-111593333D01*
X146645238Y-111593333D01*
X146740476Y-111640952D01*
X146788095Y-111688571D01*
X146835714Y-111783809D01*
X146835714Y-112021904D01*
X146788095Y-112117142D01*
X146740476Y-112164761D01*
X146645238Y-112212380D01*
X146359523Y-112212380D01*
X146264285Y-112164761D01*
X146216666Y-112117142D01*
%TO.C,J1*%
X117562380Y-98123333D02*
X118276666Y-98123333D01*
X118419523Y-98170952D01*
X118514761Y-98266190D01*
X118562380Y-98409047D01*
X118562380Y-98504285D01*
X118562380Y-97123333D02*
X118562380Y-97694761D01*
X118562380Y-97409047D02*
X117562380Y-97409047D01*
X117705238Y-97504285D01*
X117800476Y-97599523D01*
X117848095Y-97694761D01*
%TO.C,J2*%
X163282380Y-100663333D02*
X163996666Y-100663333D01*
X164139523Y-100710952D01*
X164234761Y-100806190D01*
X164282380Y-100949047D01*
X164282380Y-101044285D01*
X163377619Y-100234761D02*
X163330000Y-100187142D01*
X163282380Y-100091904D01*
X163282380Y-99853809D01*
X163330000Y-99758571D01*
X163377619Y-99710952D01*
X163472857Y-99663333D01*
X163568095Y-99663333D01*
X163710952Y-99710952D01*
X164282380Y-100282380D01*
X164282380Y-99663333D01*
%TO.C,JP1*%
X157916666Y-109942380D02*
X157916666Y-110656666D01*
X157869047Y-110799523D01*
X157773809Y-110894761D01*
X157630952Y-110942380D01*
X157535714Y-110942380D01*
X158392857Y-110942380D02*
X158392857Y-109942380D01*
X158773809Y-109942380D01*
X158869047Y-109990000D01*
X158916666Y-110037619D01*
X158964285Y-110132857D01*
X158964285Y-110275714D01*
X158916666Y-110370952D01*
X158869047Y-110418571D01*
X158773809Y-110466190D01*
X158392857Y-110466190D01*
X159916666Y-110942380D02*
X159345238Y-110942380D01*
X159630952Y-110942380D02*
X159630952Y-109942380D01*
X159535714Y-110085238D01*
X159440476Y-110180476D01*
X159345238Y-110228095D01*
%TO.C,JP2*%
X157916666Y-107402380D02*
X157916666Y-108116666D01*
X157869047Y-108259523D01*
X157773809Y-108354761D01*
X157630952Y-108402380D01*
X157535714Y-108402380D01*
X158392857Y-108402380D02*
X158392857Y-107402380D01*
X158773809Y-107402380D01*
X158869047Y-107450000D01*
X158916666Y-107497619D01*
X158964285Y-107592857D01*
X158964285Y-107735714D01*
X158916666Y-107830952D01*
X158869047Y-107878571D01*
X158773809Y-107926190D01*
X158392857Y-107926190D01*
X159345238Y-107497619D02*
X159392857Y-107450000D01*
X159488095Y-107402380D01*
X159726190Y-107402380D01*
X159821428Y-107450000D01*
X159869047Y-107497619D01*
X159916666Y-107592857D01*
X159916666Y-107688095D01*
X159869047Y-107830952D01*
X159297619Y-108402380D01*
X159916666Y-108402380D01*
%TO.C,JP3*%
X157916666Y-104862380D02*
X157916666Y-105576666D01*
X157869047Y-105719523D01*
X157773809Y-105814761D01*
X157630952Y-105862380D01*
X157535714Y-105862380D01*
X158392857Y-105862380D02*
X158392857Y-104862380D01*
X158773809Y-104862380D01*
X158869047Y-104910000D01*
X158916666Y-104957619D01*
X158964285Y-105052857D01*
X158964285Y-105195714D01*
X158916666Y-105290952D01*
X158869047Y-105338571D01*
X158773809Y-105386190D01*
X158392857Y-105386190D01*
X159297619Y-104862380D02*
X159916666Y-104862380D01*
X159583333Y-105243333D01*
X159726190Y-105243333D01*
X159821428Y-105290952D01*
X159869047Y-105338571D01*
X159916666Y-105433809D01*
X159916666Y-105671904D01*
X159869047Y-105767142D01*
X159821428Y-105814761D01*
X159726190Y-105862380D01*
X159440476Y-105862380D01*
X159345238Y-105814761D01*
X159297619Y-105767142D01*
%TO.C,JP4*%
X157916666Y-102322380D02*
X157916666Y-103036666D01*
X157869047Y-103179523D01*
X157773809Y-103274761D01*
X157630952Y-103322380D01*
X157535714Y-103322380D01*
X158392857Y-103322380D02*
X158392857Y-102322380D01*
X158773809Y-102322380D01*
X158869047Y-102370000D01*
X158916666Y-102417619D01*
X158964285Y-102512857D01*
X158964285Y-102655714D01*
X158916666Y-102750952D01*
X158869047Y-102798571D01*
X158773809Y-102846190D01*
X158392857Y-102846190D01*
X159821428Y-102655714D02*
X159821428Y-103322380D01*
X159583333Y-102274761D02*
X159345238Y-102989047D01*
X159964285Y-102989047D01*
%TO.C,JP5*%
X157916666Y-99782380D02*
X157916666Y-100496666D01*
X157869047Y-100639523D01*
X157773809Y-100734761D01*
X157630952Y-100782380D01*
X157535714Y-100782380D01*
X158392857Y-100782380D02*
X158392857Y-99782380D01*
X158773809Y-99782380D01*
X158869047Y-99830000D01*
X158916666Y-99877619D01*
X158964285Y-99972857D01*
X158964285Y-100115714D01*
X158916666Y-100210952D01*
X158869047Y-100258571D01*
X158773809Y-100306190D01*
X158392857Y-100306190D01*
X159869047Y-99782380D02*
X159392857Y-99782380D01*
X159345238Y-100258571D01*
X159392857Y-100210952D01*
X159488095Y-100163333D01*
X159726190Y-100163333D01*
X159821428Y-100210952D01*
X159869047Y-100258571D01*
X159916666Y-100353809D01*
X159916666Y-100591904D01*
X159869047Y-100687142D01*
X159821428Y-100734761D01*
X159726190Y-100782380D01*
X159488095Y-100782380D01*
X159392857Y-100734761D01*
X159345238Y-100687142D01*
%TO.C,JP6*%
X157916666Y-97242380D02*
X157916666Y-97956666D01*
X157869047Y-98099523D01*
X157773809Y-98194761D01*
X157630952Y-98242380D01*
X157535714Y-98242380D01*
X158392857Y-98242380D02*
X158392857Y-97242380D01*
X158773809Y-97242380D01*
X158869047Y-97290000D01*
X158916666Y-97337619D01*
X158964285Y-97432857D01*
X158964285Y-97575714D01*
X158916666Y-97670952D01*
X158869047Y-97718571D01*
X158773809Y-97766190D01*
X158392857Y-97766190D01*
X159821428Y-97242380D02*
X159630952Y-97242380D01*
X159535714Y-97290000D01*
X159488095Y-97337619D01*
X159392857Y-97480476D01*
X159345238Y-97670952D01*
X159345238Y-98051904D01*
X159392857Y-98147142D01*
X159440476Y-98194761D01*
X159535714Y-98242380D01*
X159726190Y-98242380D01*
X159821428Y-98194761D01*
X159869047Y-98147142D01*
X159916666Y-98051904D01*
X159916666Y-97813809D01*
X159869047Y-97718571D01*
X159821428Y-97670952D01*
X159726190Y-97623333D01*
X159535714Y-97623333D01*
X159440476Y-97670952D01*
X159392857Y-97718571D01*
X159345238Y-97813809D01*
%TO.C,JP7*%
X157916666Y-94702380D02*
X157916666Y-95416666D01*
X157869047Y-95559523D01*
X157773809Y-95654761D01*
X157630952Y-95702380D01*
X157535714Y-95702380D01*
X158392857Y-95702380D02*
X158392857Y-94702380D01*
X158773809Y-94702380D01*
X158869047Y-94750000D01*
X158916666Y-94797619D01*
X158964285Y-94892857D01*
X158964285Y-95035714D01*
X158916666Y-95130952D01*
X158869047Y-95178571D01*
X158773809Y-95226190D01*
X158392857Y-95226190D01*
X159297619Y-94702380D02*
X159964285Y-94702380D01*
X159535714Y-95702380D01*
%TO.C,JP8*%
X157916666Y-92162380D02*
X157916666Y-92876666D01*
X157869047Y-93019523D01*
X157773809Y-93114761D01*
X157630952Y-93162380D01*
X157535714Y-93162380D01*
X158392857Y-93162380D02*
X158392857Y-92162380D01*
X158773809Y-92162380D01*
X158869047Y-92210000D01*
X158916666Y-92257619D01*
X158964285Y-92352857D01*
X158964285Y-92495714D01*
X158916666Y-92590952D01*
X158869047Y-92638571D01*
X158773809Y-92686190D01*
X158392857Y-92686190D01*
X159535714Y-92590952D02*
X159440476Y-92543333D01*
X159392857Y-92495714D01*
X159345238Y-92400476D01*
X159345238Y-92352857D01*
X159392857Y-92257619D01*
X159440476Y-92210000D01*
X159535714Y-92162380D01*
X159726190Y-92162380D01*
X159821428Y-92210000D01*
X159869047Y-92257619D01*
X159916666Y-92352857D01*
X159916666Y-92400476D01*
X159869047Y-92495714D01*
X159821428Y-92543333D01*
X159726190Y-92590952D01*
X159535714Y-92590952D01*
X159440476Y-92638571D01*
X159392857Y-92686190D01*
X159345238Y-92781428D01*
X159345238Y-92971904D01*
X159392857Y-93067142D01*
X159440476Y-93114761D01*
X159535714Y-93162380D01*
X159726190Y-93162380D01*
X159821428Y-93114761D01*
X159869047Y-93067142D01*
X159916666Y-92971904D01*
X159916666Y-92781428D01*
X159869047Y-92686190D01*
X159821428Y-92638571D01*
X159726190Y-92590952D01*
%TO.C,R2*%
X152852380Y-93789166D02*
X152376190Y-94122500D01*
X152852380Y-94360595D02*
X151852380Y-94360595D01*
X151852380Y-93979642D01*
X151900000Y-93884404D01*
X151947619Y-93836785D01*
X152042857Y-93789166D01*
X152185714Y-93789166D01*
X152280952Y-93836785D01*
X152328571Y-93884404D01*
X152376190Y-93979642D01*
X152376190Y-94360595D01*
X151947619Y-93408214D02*
X151900000Y-93360595D01*
X151852380Y-93265357D01*
X151852380Y-93027261D01*
X151900000Y-92932023D01*
X151947619Y-92884404D01*
X152042857Y-92836785D01*
X152138095Y-92836785D01*
X152280952Y-92884404D01*
X152852380Y-93455833D01*
X152852380Y-92836785D01*
%TO.C,R4*%
X152852380Y-103949166D02*
X152376190Y-104282500D01*
X152852380Y-104520595D02*
X151852380Y-104520595D01*
X151852380Y-104139642D01*
X151900000Y-104044404D01*
X151947619Y-103996785D01*
X152042857Y-103949166D01*
X152185714Y-103949166D01*
X152280952Y-103996785D01*
X152328571Y-104044404D01*
X152376190Y-104139642D01*
X152376190Y-104520595D01*
X152185714Y-103092023D02*
X152852380Y-103092023D01*
X151804761Y-103330119D02*
X152519047Y-103568214D01*
X152519047Y-102949166D01*
%TO.C,R6*%
X152852380Y-109029166D02*
X152376190Y-109362500D01*
X152852380Y-109600595D02*
X151852380Y-109600595D01*
X151852380Y-109219642D01*
X151900000Y-109124404D01*
X151947619Y-109076785D01*
X152042857Y-109029166D01*
X152185714Y-109029166D01*
X152280952Y-109076785D01*
X152328571Y-109124404D01*
X152376190Y-109219642D01*
X152376190Y-109600595D01*
X151852380Y-108172023D02*
X151852380Y-108362500D01*
X151900000Y-108457738D01*
X151947619Y-108505357D01*
X152090476Y-108600595D01*
X152280952Y-108648214D01*
X152661904Y-108648214D01*
X152757142Y-108600595D01*
X152804761Y-108552976D01*
X152852380Y-108457738D01*
X152852380Y-108267261D01*
X152804761Y-108172023D01*
X152757142Y-108124404D01*
X152661904Y-108076785D01*
X152423809Y-108076785D01*
X152328571Y-108124404D01*
X152280952Y-108172023D01*
X152233333Y-108267261D01*
X152233333Y-108457738D01*
X152280952Y-108552976D01*
X152328571Y-108600595D01*
X152423809Y-108648214D01*
%TO.C,U1*%
X138938095Y-102902380D02*
X138938095Y-103711904D01*
X138985714Y-103807142D01*
X139033333Y-103854761D01*
X139128571Y-103902380D01*
X139319047Y-103902380D01*
X139414285Y-103854761D01*
X139461904Y-103807142D01*
X139509523Y-103711904D01*
X139509523Y-102902380D01*
X140509523Y-103902380D02*
X139938095Y-103902380D01*
X140223809Y-103902380D02*
X140223809Y-102902380D01*
X140128571Y-103045238D01*
X140033333Y-103140476D01*
X139938095Y-103188095D01*
%TO.C,U2*%
X123698095Y-106952380D02*
X123698095Y-107761904D01*
X123745714Y-107857142D01*
X123793333Y-107904761D01*
X123888571Y-107952380D01*
X124079047Y-107952380D01*
X124174285Y-107904761D01*
X124221904Y-107857142D01*
X124269523Y-107761904D01*
X124269523Y-106952380D01*
X124698095Y-107047619D02*
X124745714Y-107000000D01*
X124840952Y-106952380D01*
X125079047Y-106952380D01*
X125174285Y-107000000D01*
X125221904Y-107047619D01*
X125269523Y-107142857D01*
X125269523Y-107238095D01*
X125221904Y-107380952D01*
X124650476Y-107952380D01*
X125269523Y-107952380D01*
%TO.C,Y1*%
X138121190Y-94456190D02*
X138597380Y-94456190D01*
X137597380Y-94789523D02*
X138121190Y-94456190D01*
X137597380Y-94122857D01*
X138597380Y-93265714D02*
X138597380Y-93837142D01*
X138597380Y-93551428D02*
X137597380Y-93551428D01*
X137740238Y-93646666D01*
X137835476Y-93741904D01*
X137883095Y-93837142D01*
%TD*%
M02*
